<svg width="508" height="132" viewBox="0 0 508 132" fill="none" xmlns="http://www.w3.org/2000/svg">
<path d="M206.8 25.65C206.8 26.7167 206.417 27.6333 205.65 28.4C204.917 29.1333 204.017 29.5 202.95 29.5C201.883 29.5 200.967 29.1333 200.2 28.4C199.467 27.6333 199.1 26.7167 199.1 25.65C199.1 24.5833 199.467 23.6833 200.2 22.95C200.967 22.1833 201.883 21.8 202.95 21.8C204.017 21.8 204.917 22.1833 205.65 22.95C206.417 23.6833 206.8 24.5833 206.8 25.65ZM197.45 38C197.45 39.6 196.45 40.4 194.45 40.4C192.483 40.4 191.5 39.6 191.5 38V16.2C191.5 14.6 192.483 13.8 194.45 13.8C196.45 13.8 197.45 14.6 197.45 16.2V38ZM175.45 57.3C174.217 58.5 172.817 58.4833 171.25 57.25C169.717 56.0167 169.6 54.8 170.9 53.6L184.95 40.05C185.317 39.6833 185.733 39.4333 186.2 39.3C186.667 39.1667 187.133 39.1 187.6 39.1C188.067 39.1 188.533 39.1667 189 39.3C189.5 39.4333 189.933 39.6833 190.3 40.05L204.35 53.6C205.617 54.8333 205.483 56.05 203.95 57.25C202.45 58.4833 201.067 58.5 199.8 57.3L187.65 45.25L175.45 57.3ZM186.45 27.3C186.45 30.8333 185.233 33.8667 182.8 36.4C180.4 38.9333 177.467 40.2 174 40.2C170.467 40.2 167.483 38.95 165.05 36.45C162.65 33.9167 161.45 30.8667 161.45 27.3C161.45 23.7333 162.65 20.7 165.05 18.2C167.483 15.6667 170.467 14.4 174 14.4C177.467 14.4 180.4 15.6667 182.8 18.2C185.233 20.7 186.45 23.7333 186.45 27.3ZM180.6 27.3C180.6 25.1333 179.95 23.2833 178.65 21.75C177.383 20.2167 175.833 19.45 174 19.45C172.167 19.45 170.6 20.2167 169.3 21.75C168.033 23.2833 167.4 25.1333 167.4 27.3C167.4 29.4667 168.033 31.3167 169.3 32.85C170.6 34.3833 172.167 35.15 174 35.15C175.833 35.15 177.383 34.3833 178.65 32.85C179.95 31.3167 180.6 29.4667 180.6 27.3ZM220.2 41.95C220.2 43.5167 219.2 44.3 217.2 44.3C215.267 44.3 214.3 43.5167 214.3 41.95V17.45C214.3 15.85 215.267 15.05 217.2 15.05C219.2 15.05 220.2 15.85 220.2 17.45V41.95ZM221.3 50.95C221.3 52.1167 220.9 53.1 220.1 53.9C219.333 54.6667 218.383 55.05 217.25 55.05C216.117 55.05 215.15 54.6667 214.35 53.9C213.583 53.1 213.2 52.1167 213.2 50.95C213.2 49.8167 213.583 48.8667 214.35 48.1C215.15 47.3333 216.117 46.95 217.25 46.95C218.383 46.95 219.333 47.3333 220.1 48.1C220.9 48.8667 221.3 49.8167 221.3 50.95ZM206.55 110.5C206.55 111.267 206.317 111.967 205.85 112.6C205.417 113.2 204.6 113.5 203.4 113.5H183.25C183.017 113.5 182.883 113.55 182.85 113.65C182.817 113.75 182.8 113.867 182.8 114V116.05C182.8 116.183 182.817 116.3 182.85 116.4C182.883 116.5 183.017 116.55 183.25 116.55H205.95C207.217 116.55 207.833 117.383 207.8 119.05C207.8 120.75 207.183 121.6 205.95 121.6H180C178.8 121.6 177.967 121.283 177.5 120.65C177.067 120.05 176.85 119.367 176.85 118.6V111.45C176.85 110.683 177.067 110 177.5 109.4C177.967 108.767 178.8 108.45 180 108.45H200.15C200.383 108.45 200.517 108.4 200.55 108.3C200.583 108.2 200.6 108.083 200.6 107.95V105.9C200.6 105.767 200.583 105.65 200.55 105.55C200.517 105.45 200.383 105.4 200.15 105.4H178.75C177.517 105.4 176.883 104.567 176.85 102.9C176.85 101.2 177.483 100.35 178.75 100.35H203.4C204.6 100.35 205.417 100.667 205.85 101.3C206.317 101.9 206.55 102.583 206.55 103.35V110.5ZM187.45 95.35C188.517 96.7833 188.217 98.0167 186.55 99.05C184.917 100.083 183.583 99.9333 182.55 98.6L175.25 88.95L165.85 110.8C165.183 112.333 163.933 112.767 162.1 112.1C160.267 111.4 159.717 110.183 160.45 108.45L171.4 82.95H163.35C162.117 82.95 161.483 82.1167 161.45 80.45C161.45 78.75 162.083 77.9 163.35 77.9H185.75C187.05 77.9 187.683 78.75 187.65 80.45C187.65 82.1167 187.017 82.95 185.75 82.95H178.15L187.45 95.35ZM197.45 97.1C197.45 98.7 196.45 99.5 194.45 99.5C192.483 99.5 191.5 98.7 191.5 97.1V79.2C191.5 77.6 192.483 76.8 194.45 76.8C196.45 76.8 197.45 77.6 197.45 79.2V97.1ZM206.8 87.15C206.8 88.2167 206.417 89.1333 205.65 89.9C204.917 90.6333 204.017 91 202.95 91C201.883 91 200.967 90.6333 200.2 89.9C199.467 89.1333 199.1 88.2167 199.1 87.15C199.1 86.0833 199.467 85.1833 200.2 84.45C200.967 83.6833 201.883 83.3 202.95 83.3C204.017 83.3 204.917 83.6833 205.65 84.45C206.417 85.1833 206.8 86.0833 206.8 87.15ZM211.65 102.4C210.417 102.4 209.783 101.567 209.75 99.9C209.75 98.2 210.383 97.35 211.65 97.35H228.65V95C228.65 94.8667 228.633 94.75 228.6 94.65C228.567 94.55 228.433 94.5 228.2 94.5H218.15C216.95 94.5 216.117 94.2 215.65 93.6C215.217 92.9667 215 92.2667 215 91.5V80.9C215 80.1333 215.217 79.45 215.65 78.85C216.117 78.2167 216.95 77.9 218.15 77.9H241.55C242.75 77.9 243.567 78.2167 244 78.85C244.467 79.45 244.7 80.1333 244.7 80.9V90.2C244.7 91.8 243.7 92.6167 241.7 92.65C239.733 92.65 238.75 91.8333 238.75 90.2V83.45C238.75 83.3167 238.733 83.2 238.7 83.1C238.667 83 238.533 82.95 238.3 82.95H221.4C221.167 82.95 221.033 83 221 83.1C220.967 83.2 220.95 83.3167 220.95 83.45V88.95C220.95 89.0833 220.967 89.2 221 89.3C221.033 89.4 221.167 89.45 221.4 89.45H231.45C232.65 89.45 233.467 89.7667 233.9 90.4C234.367 91 234.6 91.6833 234.6 92.45V97.35H249.2C250.5 97.35 251.133 98.2 251.1 99.9C251.1 101.567 250.467 102.4 249.2 102.4H211.65ZM221.15 120.2C219.85 121.467 218.433 121.467 216.9 120.2C215.4 118.933 215.3 117.7 216.6 116.5L230.65 104.2C231.017 103.833 231.433 103.583 231.9 103.45C232.367 103.317 232.833 103.25 233.3 103.25C233.767 103.25 234.233 103.317 234.7 103.45C235.2 103.583 235.633 103.833 236 104.2L250.05 116.5C251.317 117.733 251.183 118.95 249.65 120.15C248.15 121.383 246.767 121.4 245.5 120.2L233.35 109.4L221.15 120.2ZM273.272 102C273.272 102.767 273.039 103.467 272.572 104.1C272.139 104.7 271.322 105 270.122 105H254.472C253.206 105 252.572 104.167 252.572 102.5C252.606 100.8 253.239 99.95 254.472 99.95H266.872C267.106 99.95 267.239 99.9 267.272 99.8C267.306 99.7 267.322 99.5833 267.322 99.45V95.3H259.772C258.572 95.3 257.739 95 257.272 94.4C256.839 93.7667 256.622 93.0667 256.622 92.3V80.9C256.622 80.1333 256.839 79.45 257.272 78.85C257.739 78.2167 258.572 77.9 259.772 77.9H280.772C282.039 77.9 282.689 78.75 282.722 80.45C282.756 82.1167 282.106 82.95 280.772 82.95H263.022C262.789 82.95 262.656 83 262.622 83.1C262.589 83.2 262.572 83.3167 262.572 83.45V89.75C262.572 89.8833 262.589 90 262.622 90.1C262.656 90.2 262.789 90.25 263.022 90.25H281.422C282.689 90.25 283.339 91.1 283.372 92.8C283.406 94.4667 282.756 95.3 281.422 95.3H273.272V102ZM270.472 120.45C269.272 120.45 268.439 120.133 267.972 119.5C267.539 118.9 267.322 118.217 267.322 117.45V107.6C267.322 106 268.306 105.2 270.272 105.2C272.272 105.2 273.272 106 273.272 107.6V114.9C273.272 115.033 273.289 115.15 273.322 115.25C273.356 115.35 273.489 115.4 273.722 115.4H295.222C296.456 115.4 297.072 116.25 297.072 117.95C297.106 119.617 296.489 120.45 295.222 120.45H270.472ZM293.422 106.15C293.422 107.75 292.422 108.55 290.422 108.55C288.456 108.55 287.472 107.75 287.472 106.15V79.2C287.472 77.6 288.456 76.8 290.422 76.8C292.422 76.8 293.422 77.6 293.422 79.2V106.15ZM339.921 87.3C339.921 89.9333 338.404 93.35 335.371 97.55C332.371 101.75 327.204 105.083 319.871 107.55C317.971 108.183 316.671 107.733 315.971 106.2C315.304 104.633 315.638 103.617 316.971 103.15C320.704 101.817 324.471 99.6333 328.271 96.6C332.071 93.5333 333.971 90.25 333.971 86.75V83.45C333.971 83.3167 333.954 83.2 333.921 83.1C333.888 83 333.754 82.95 333.521 82.95H318.721C317.488 82.95 316.854 82.1167 316.821 80.45C316.821 78.75 317.454 77.9 318.721 77.9H336.771C337.971 77.9 338.788 78.2167 339.221 78.85C339.688 79.45 339.921 80.1333 339.921 80.9V87.3ZM358.371 112.35C358.371 115.217 357.221 117.667 354.921 119.7C352.621 121.767 349.821 122.8 346.521 122.8C343.188 122.8 340.354 121.783 338.021 119.75C335.721 117.717 334.571 115.25 334.571 112.35C334.571 109.45 335.721 106.983 338.021 104.95C340.354 102.917 343.188 101.9 346.521 101.9C349.821 101.9 352.621 102.933 354.921 105C357.221 107.033 358.371 109.483 358.371 112.35ZM352.421 112.35C352.421 110.85 351.838 109.583 350.671 108.55C349.538 107.517 348.154 107 346.521 107C344.888 107 343.488 107.517 342.321 108.55C341.188 109.583 340.621 110.85 340.621 112.35C340.621 113.85 341.188 115.117 342.321 116.15C343.488 117.183 344.888 117.7 346.521 117.7C348.154 117.7 349.538 117.183 350.671 116.15C351.838 115.117 352.421 113.85 352.421 112.35ZM355.971 99.3C355.971 100.9 354.971 101.7 352.971 101.7C351.004 101.7 350.021 100.9 350.021 99.3V79.2C350.021 77.6 351.004 76.8 352.971 76.8C354.971 76.8 355.971 77.6 355.971 79.2V99.3ZM348.721 84.9C348.721 85.9667 348.338 86.8833 347.571 87.65C346.838 88.3833 345.938 88.75 344.871 88.75C343.804 88.75 342.888 88.3833 342.121 87.65C341.388 86.8833 341.021 85.9667 341.021 84.9C341.021 83.8333 341.388 82.9333 342.121 82.2C342.888 81.4333 343.804 81.05 344.871 81.05C345.938 81.05 346.838 81.4333 347.571 82.2C348.338 82.9333 348.721 83.8333 348.721 84.9ZM348.721 95.15C348.721 96.2167 348.338 97.1333 347.571 97.9C346.838 98.6333 345.938 99 344.871 99C343.804 99 342.888 98.6333 342.121 97.9C341.388 97.1333 341.021 96.2167 341.021 95.15C341.021 94.0833 341.388 93.1833 342.121 92.45C342.888 91.6833 343.804 91.3 344.871 91.3C345.938 91.3 346.838 91.6833 347.571 92.45C348.338 93.1833 348.721 94.0833 348.721 95.15ZM364.58 114.5C363.346 114.5 362.713 113.667 362.68 112C362.68 110.3 363.313 109.45 364.58 109.45H380.38V104.8C380.38 104.667 380.363 104.55 380.33 104.45C380.296 104.35 380.163 104.3 379.93 104.3H369.88C368.68 104.3 367.846 104 367.38 103.4C366.946 102.767 366.73 102.067 366.73 101.3V91.6C366.73 90.8333 366.946 90.15 367.38 89.55C367.846 88.9167 368.68 88.6 369.88 88.6H390.03C390.263 88.6 390.396 88.55 390.43 88.45C390.463 88.35 390.48 88.2333 390.48 88.1V83.45C390.48 83.3167 390.463 83.2 390.43 83.1C390.396 83 390.263 82.95 390.03 82.95H368.63C367.396 82.95 366.763 82.1167 366.73 80.45C366.73 78.75 367.363 77.9 368.63 77.9H393.28C394.48 77.9 395.296 78.2167 395.73 78.85C396.196 79.45 396.43 80.1333 396.43 80.9V90.65C396.43 91.4167 396.196 92.1167 395.73 92.75C395.296 93.35 394.48 93.65 393.28 93.65H373.13C372.896 93.65 372.763 93.7 372.73 93.8C372.696 93.9 372.68 94.0167 372.68 94.15V98.75C372.68 98.8833 372.696 99 372.73 99.1C372.763 99.2 372.896 99.25 373.13 99.25H383.18C384.38 99.25 385.196 99.5667 385.63 100.2C386.096 100.8 386.33 101.483 386.33 102.25V109.45H398.68C399.98 109.45 400.613 110.3 400.58 112C400.58 113.667 399.946 114.5 398.68 114.5H364.58ZM435.288 116.9C435.288 118.5 434.288 119.3 432.288 119.3C430.321 119.3 429.338 118.5 429.338 116.9V104.35H425.338C424.938 104.35 424.604 104.267 424.338 104.1C423.938 105.333 423.454 106.5 422.888 107.6C421.054 111.1 418.321 112.85 414.688 112.85C410.988 112.85 408.221 111.117 406.388 107.65C404.554 104.183 403.638 100 403.638 95.1C403.638 90.2 404.554 86.0167 406.388 82.55C408.221 79.0833 410.988 77.35 414.688 77.35C418.321 77.35 421.054 79.1 422.888 82.6C423.388 83.5667 423.821 84.5833 424.188 85.65C424.488 85.4167 424.871 85.3 425.338 85.3H429.338V79.2C429.338 77.6 430.321 76.8 432.288 76.8C434.288 76.8 435.288 77.6 435.288 79.2V116.9ZM445.188 116.9C445.188 118.5 444.188 119.3 442.188 119.3C440.221 119.3 439.238 118.5 439.238 116.9V79.2C439.238 77.6 440.221 76.8 442.188 76.8C444.188 76.8 445.188 77.6 445.188 79.2V116.9ZM419.738 95.1C419.738 91.5333 419.354 88.5333 418.588 86.1C417.854 83.6333 416.554 82.4 414.688 82.4C412.754 82.4 411.421 83.6333 410.688 86.1C409.954 88.5333 409.588 91.5333 409.588 95.1C409.588 98.6667 409.971 101.683 410.738 104.15C411.504 106.583 412.821 107.8 414.688 107.8C416.521 107.8 417.821 106.583 418.588 104.15C419.354 101.683 419.738 98.6667 419.738 95.1ZM425.638 95.1C425.638 96.5667 425.554 97.9667 425.388 99.3H429.338V90.35H425.338H425.288C425.521 91.85 425.638 93.4333 425.638 95.1ZM467.368 111.5C467.368 112.267 467.135 112.967 466.668 113.6C466.235 114.2 465.418 114.5 464.218 114.5H452.568C451.301 114.5 450.668 113.667 450.668 112C450.701 110.3 451.335 109.45 452.568 109.45H460.968C461.201 109.45 461.335 109.4 461.368 109.3C461.401 109.2 461.418 109.083 461.418 108.95V102.8C461.418 101.2 462.401 100.4 464.368 100.4C466.368 100.4 467.368 101.2 467.368 102.8V111.5ZM480.268 112.25C480.268 113.85 479.268 114.65 477.268 114.65C475.301 114.65 474.318 113.85 474.318 112.25V102.8C474.318 101.2 475.301 100.4 477.268 100.4C479.268 100.4 480.268 101.2 480.268 102.8V112.25ZM484.168 88.9C484.168 92.2333 482.851 95.1 480.218 97.5C477.585 99.9 474.385 101.1 470.618 101.1C466.785 101.1 463.551 99.9167 460.918 97.55C458.285 95.1833 456.968 92.3 456.968 88.9C456.968 85.5 458.285 82.6167 460.918 80.25C463.551 77.8833 466.785 76.7 470.618 76.7C474.385 76.7 477.585 77.9 480.218 80.3C482.851 82.6667 484.168 85.5333 484.168 88.9ZM478.318 88.9C478.318 86.9 477.551 85.2167 476.018 83.85C474.485 82.45 472.685 81.75 470.618 81.75C468.518 81.75 466.701 82.45 465.168 83.85C463.668 85.2167 462.918 86.9 462.918 88.9C462.918 90.9 463.668 92.6 465.168 94C466.701 95.3667 468.518 96.05 470.618 96.05C472.685 96.05 474.485 95.3667 476.018 94C477.551 92.6 478.318 90.9 478.318 88.9ZM500.326 113.9C500.326 115.033 499.942 116 499.176 116.8C498.409 117.567 497.459 117.95 496.326 117.95C495.192 117.95 494.242 117.567 493.476 116.8C492.709 116 492.326 115.033 492.326 113.9C492.326 112.8 492.709 111.867 493.476 111.1C494.242 110.3 495.192 109.9 496.326 109.9C497.459 109.9 498.409 110.3 499.176 111.1C499.942 111.867 500.326 112.8 500.326 113.9Z" fill="black"/>
<path d="M55 18.2601C37.125 15.5266 20.207 15.7081 15.2075 20.7076C3.26153 32.6536 18.8375 112.717 35.9425 111.051C45.3255 110.105 51.876 95.0346 59.5925 90.3266C62.623 88.4731 65.318 90.3541 67.221 92.8291L85.6295 116.793C88.836 120.967 91.0965 122.21 95.931 119.735C103.367 115.929 110.429 108.851 114.235 101.431C116.71 96.5911 115.467 94.3361 111.293 91.1296L96.25 79.5741" stroke="black" stroke-width="10" stroke-linecap="round" stroke-linejoin="round"/>
<path d="M78.749 53.2512C83.3906 57.8927 89.6859 60.5003 96.25 60.5003C102.814 60.5003 109.109 57.8927 113.751 53.2512C118.393 48.6096 121 42.3143 121 35.7502C121 29.186 118.393 22.8907 113.751 18.2492M78.749 53.2512C76.4508 50.9529 74.6277 48.2245 73.3839 45.2216C72.1401 42.2188 71.4999 39.0004 71.4999 35.7502C71.4999 29.186 74.1075 22.8907 78.749 18.2492C83.3906 13.6076 89.6859 11 96.25 11C102.814 11 109.109 13.6076 113.751 18.2492M78.749 53.2512L113.751 18.2492" stroke="black" stroke-width="10" stroke-linecap="round" stroke-linejoin="round"/>
</svg>
