<svg width="35" height="17" viewBox="0 0 35 17" fill="none" xmlns="http://www.w3.org/2000/svg">
<path d="M17.5576 12.1232C17.5576 12.3992 17.4736 12.6512 17.3056 12.8792C17.1496 13.0952 16.8556 13.2032 16.4236 13.2032H9.16956C9.08556 13.2032 9.03756 13.2212 9.02556 13.2572C9.01356 13.2932 9.00756 13.3352 9.00756 13.3832V14.1212C9.00756 14.1692 9.01356 14.2112 9.02556 14.2472C9.03756 14.2832 9.08556 14.3012 9.16956 14.3012H17.3416C17.7976 14.3012 18.0196 14.6012 18.0076 15.2012C18.0076 15.8132 17.7856 16.1192 17.3416 16.1192H7.99956C7.56756 16.1192 7.26756 16.0052 7.09956 15.7772C6.94356 15.5612 6.86556 15.3152 6.86556 15.0392V12.4652C6.86556 12.1892 6.94356 11.9432 7.09956 11.7272C7.26756 11.4992 7.56756 11.3852 7.99956 11.3852H15.2536C15.3376 11.3852 15.3856 11.3672 15.3976 11.3312C15.4096 11.2952 15.4156 11.2532 15.4156 11.2052V10.4672C15.4156 10.4192 15.4096 10.3772 15.3976 10.3412C15.3856 10.3052 15.3376 10.2872 15.2536 10.2872H7.44156C6.99756 10.2872 6.76956 9.98724 6.75756 9.38724C6.75756 8.77524 6.98556 8.46924 7.44156 8.46924H16.4236C16.8556 8.46924 17.1496 8.58324 17.3056 8.81124C17.4736 9.02724 17.5576 9.27324 17.5576 9.54924V12.1232ZM8.93556 3.59124C8.93556 4.46724 8.54556 5.69124 7.76556 7.26324C6.98556 8.83524 5.26356 10.1012 2.59956 11.0612C1.93956 11.3012 1.47756 11.1392 1.21356 10.5752C0.961556 10.0112 1.07556 9.64524 1.55556 9.47724C2.89956 8.99724 4.10556 8.21724 5.17356 7.13724C5.58156 6.74124 5.91156 6.32124 6.16356 5.87724H1.57356C1.12956 5.87724 0.901556 5.57724 0.889556 4.97724C0.889556 4.36524 1.11756 4.05924 1.57356 4.05924H6.75756C6.78156 3.90324 6.79356 3.74124 6.79356 3.57324V2.38524C6.79356 2.33724 6.78756 2.29524 6.77556 2.25924C6.76356 2.22324 6.71556 2.20524 6.63156 2.20524H2.18556C1.74156 2.20524 1.51356 1.90524 1.50156 1.30524C1.50156 0.693241 1.72956 0.387241 2.18556 0.387241H7.80156C8.23356 0.387241 8.52756 0.501241 8.68356 0.729241C8.85156 0.945241 8.93556 1.19124 8.93556 1.46724V3.59124ZM12.6436 7.20924C12.6436 7.78524 12.2836 8.07324 11.5636 8.07324C10.8556 8.07324 10.5016 7.78524 10.5016 7.20924V0.855242C10.5016 0.279241 10.8556 -0.0087589 11.5636 -0.0087589C12.2836 -0.0087589 12.6436 0.279241 12.6436 0.855242V3.08724H13.7056C13.8856 3.08724 14.0296 3.13524 14.1376 3.23124V0.855242C14.1376 0.279241 14.4916 -0.0087589 15.1996 -0.0087589C15.9196 -0.0087589 16.2796 0.279241 16.2796 0.855242V7.20924C16.2796 7.78524 15.9196 8.07324 15.1996 8.07324C14.4916 8.07324 14.1376 7.78524 14.1376 7.20924V4.76124C14.0296 4.85724 13.8856 4.90524 13.7056 4.90524H12.6436V7.20924ZM34.6936 15.0392C34.6936 15.6152 34.3336 15.9032 33.6136 15.9032C32.9056 15.9032 32.5516 15.6152 32.5516 15.0392V11.3132C32.5516 11.2652 32.5456 11.2232 32.5336 11.1872C32.5216 11.1512 32.4736 11.1332 32.3896 11.1332H25.1896C24.7456 11.1332 24.5176 10.8332 24.5056 10.2332C24.5056 9.62124 24.7336 9.31524 25.1896 9.31524H33.5596C33.9916 9.31524 34.2856 9.42924 34.4416 9.65724C34.6096 9.87324 34.6936 10.1192 34.6936 10.3952V15.0392ZM33.4156 8.05524C33.4156 8.63124 33.0556 8.91924 32.3356 8.91924C31.6276 8.91924 31.2736 8.63124 31.2736 8.05524V0.855242C31.2736 0.279241 31.6276 -0.0087589 32.3356 -0.0087589C33.0556 -0.0087589 33.4156 0.279241 33.4156 0.855242V8.05524ZM20.3656 2.20524C19.9216 2.20524 19.6936 1.90524 19.6816 1.30524C19.6816 0.693241 19.9096 0.387241 20.3656 0.387241H29.1856C29.6536 0.387241 29.8816 0.693241 29.8696 1.30524C29.8696 1.90524 29.6416 2.20524 29.1856 2.20524H20.3656ZM27.9796 8.07324C27.9796 8.64924 27.6196 8.93724 26.8996 8.93724C26.1916 8.93724 25.8376 8.64924 25.8376 8.07324V3.51924C25.8376 2.94324 26.1916 2.65524 26.8996 2.65524C27.6196 2.65524 27.9796 2.94324 27.9796 3.51924V8.07324ZM23.8936 10.0532C23.8936 10.3292 23.8096 10.5812 23.6416 10.8092C23.4856 11.0252 23.1916 11.1332 22.7596 11.1332H19.5916C19.1356 11.1332 18.9076 10.8332 18.9076 10.2332C18.9196 9.62124 19.1476 9.31524 19.5916 9.31524H21.5896C21.6736 9.31524 21.7216 9.29724 21.7336 9.26124C21.7456 9.22524 21.7516 9.18324 21.7516 9.13524V3.51924C21.7516 2.94324 22.1056 2.65524 22.8136 2.65524C23.5336 2.65524 23.8936 2.94324 23.8936 3.51924V10.0532Z" fill="white"/>
</svg>
