<svg width="350" height="189" viewBox="0 0 350 189" fill="none" xmlns="http://www.w3.org/2000/svg">
<path d="M32.05 28.3C33.1833 29.4333 33.0333 30.6333 31.6 31.9C30.1667 33.1667 28.8167 33.1333 27.55 31.8L17.8 21.55L8.05 31.8C6.78333 33.1333 5.43333 33.1667 4 31.9C2.56667 30.6333 2.41667 29.4333 3.55 28.3L13.4 18.2H5.85C4.61667 18.2 3.98333 17.3667 3.95 15.7C3.95 14 4.58333 13.15 5.85 13.15H14.9V9.7C14.9 8.1 15.8833 7.3 17.85 7.3C19.85 7.3 20.85 8.1 20.85 9.7V13.15H29.75C31.05 13.15 31.6833 14 31.65 15.7C31.65 17.3667 31.0167 18.2 29.75 18.2H22.2L32.05 28.3ZM42.1 47.9C42.1 49.5 41.1 50.3 39.1 50.3C37.1333 50.3 36.15 49.5 36.15 47.9V10.2C36.15 8.6 37.1333 7.8 39.1 7.8C41.1 7.8 42.1 8.6 42.1 10.2V47.9ZM20.85 41.25C20.85 42.0167 20.6167 42.7167 20.15 43.35C19.7167 43.95 18.9 44.25 17.7 44.25H3.15C1.88333 44.25 1.25 43.4167 1.25 41.75C1.28333 40.05 1.91667 39.2 3.15 39.2H14.45C14.6833 39.2 14.8167 39.15 14.85 39.05C14.8833 38.95 14.9 38.8333 14.9 38.7V31.1C14.9 29.5 15.8833 28.7 17.85 28.7C19.85 28.7 20.85 29.5 20.85 31.1V41.25ZM76.7086 28.75C77.7753 30.3167 77.4586 31.6167 75.7586 32.65C74.0919 33.65 72.7753 33.4333 71.8086 32L64.1586 20.4L54.9086 41.8C54.2419 43.3333 52.9919 43.7667 51.1586 43.1C49.3253 42.4 48.7753 41.1833 49.5086 39.45L60.4586 13.95H52.4086C51.1753 13.95 50.5419 13.1167 50.5086 11.45C50.5086 9.75 51.1419 8.9 52.4086 8.9H74.8086C76.1086 8.9 76.7419 9.75 76.7086 11.45C76.7086 13.1167 76.0753 13.95 74.8086 13.95H66.9586L76.7086 28.75ZM93.2086 49.7C93.2086 51.3 92.2086 52.1 90.2086 52.1C88.2419 52.1 87.2586 51.3 87.2586 49.7V39.85C87.2586 39.7167 87.2419 39.6 87.2086 39.5C87.1753 39.4 87.0419 39.35 86.8086 39.35H64.8086C63.5753 39.35 62.9419 38.5167 62.9086 36.85C62.9086 35.15 63.5419 34.3 64.8086 34.3H90.0586C91.2586 34.3 92.0753 34.6167 92.5086 35.25C92.9753 35.85 93.2086 36.5333 93.2086 37.3V49.7ZM89.6586 30.8C89.6586 32.4 88.6586 33.2 86.6586 33.2C84.6919 33.2 83.7086 32.4 83.7086 30.8V10.2C83.7086 8.6 84.6919 7.8 86.6586 7.8C88.6586 7.8 89.6586 8.6 89.6586 10.2V30.8ZM82.5086 19.65C82.5086 20.7167 82.1253 21.6333 81.3586 22.4C80.6253 23.1333 79.7253 23.5 78.6586 23.5C77.5919 23.5 76.6753 23.1333 75.9086 22.4C75.1753 21.6333 74.8086 20.7167 74.8086 19.65C74.8086 18.5833 75.1753 17.6833 75.9086 16.95C76.6753 16.1833 77.5919 15.8 78.6586 15.8C79.7253 15.8 80.6253 16.1833 81.3586 16.95C82.1253 17.6833 82.5086 18.5833 82.5086 19.65ZM137.217 47.9C137.217 49.5 136.217 50.3 134.217 50.3C132.251 50.3 131.267 49.5 131.267 47.9V10.2C131.267 8.6 132.251 7.8 134.217 7.8C136.217 7.8 137.217 8.6 137.217 10.2V47.9ZM98.2672 44.25C97.0339 44.25 96.4005 43.4167 96.3672 41.75C96.3672 40.05 97.0005 39.2 98.2672 39.2H128.067C129.367 39.2 130.001 40.05 129.967 41.75C129.967 43.4167 129.334 44.25 128.067 44.25H98.2672ZM125.317 19.95C125.317 23.1833 124.067 25.9667 121.567 28.3C119.101 30.6 116.084 31.75 112.517 31.75C108.884 31.75 105.817 30.6 103.317 28.3C100.851 26 99.6172 23.2167 99.6172 19.95C99.6172 16.6833 100.851 13.9 103.317 11.6C105.817 9.3 108.884 8.15 112.517 8.15C116.084 8.15 119.101 9.31666 121.567 11.65C124.067 13.95 125.317 16.7167 125.317 19.95ZM119.367 19.95C119.367 18.05 118.717 16.45 117.417 15.15C116.117 13.85 114.484 13.2 112.517 13.2C110.551 13.2 108.917 13.85 107.617 15.15C106.317 16.45 105.667 18.05 105.667 19.95C105.667 21.85 106.317 23.45 107.617 24.75C108.917 26.05 110.551 26.7 112.517 26.7C114.484 26.7 116.117 26.05 117.417 24.75C118.717 23.45 119.367 21.85 119.367 19.95ZM48.05 112.6C48.05 114.2 47.05 115 45.05 115C43.0833 115 42.1 114.2 42.1 112.6V103.1C42.1 102.967 42.0833 102.85 42.05 102.75C42.0167 102.65 41.8833 102.6 41.65 102.6H20.15C18.9167 102.6 18.2833 101.767 18.25 100.1C18.25 98.4 18.8833 97.55 20.15 97.55H44.9C46.1 97.55 46.9167 97.8667 47.35 98.5C47.8167 99.1 48.05 99.7833 48.05 100.55V112.6ZM38.95 94.1C38.95 95.7 37.95 96.5 35.95 96.5C33.9833 96.5 33 95.7 33 94.1V73.2C33 71.6 33.9833 70.8 35.95 70.8C37.95 70.8 38.95 71.6 38.95 73.2V94.1ZM48.3 88.15C48.3 89.2167 47.9167 90.1333 47.15 90.9C46.4167 91.6333 45.5167 92 44.45 92C43.3833 92 42.4667 91.6333 41.7 90.9C40.9667 90.1333 40.6 89.2167 40.6 88.15C40.6 87.0833 40.9667 86.1833 41.7 85.45C42.4667 84.6833 43.3833 84.3 44.45 84.3C45.5167 84.3 46.4167 84.6833 47.15 85.45C47.9167 86.1833 48.3 87.0833 48.3 88.15ZM48.3 78.15C48.3 79.2167 47.9167 80.1333 47.15 80.9C46.4167 81.6333 45.5167 82 44.45 82C43.3833 82 42.4667 81.6333 41.7 80.9C40.9667 80.1333 40.6 79.2167 40.6 78.15C40.6 77.0833 40.9667 76.1833 41.7 75.45C42.4667 74.6833 43.3833 74.3 44.45 74.3C45.5167 74.3 46.4167 74.6833 47.15 75.45C47.9167 76.1833 48.3 77.0833 48.3 78.15ZM27.95 84.3C27.95 87.8333 26.7333 90.8667 24.3 93.4C21.9 95.9333 18.9667 97.2 15.5 97.2C11.9667 97.2 8.98333 95.95 6.55 93.45C4.15 90.9167 2.95 87.8667 2.95 84.3C2.95 80.7333 4.15 77.7 6.55 75.2C8.98333 72.6667 11.9667 71.4 15.5 71.4C18.9667 71.4 21.9 72.6667 24.3 75.2C26.7333 77.7 27.95 80.7333 27.95 84.3ZM22.1 84.3C22.1 82.1333 21.45 80.2833 20.15 78.75C18.8833 77.2167 17.3333 76.45 15.5 76.45C13.6667 76.45 12.1 77.2167 10.8 78.75C9.53333 80.2833 8.9 82.1333 8.9 84.3C8.9 86.4667 9.53333 88.3167 10.8 89.85C12.1 91.3833 13.6667 92.15 15.5 92.15C17.3333 92.15 18.8833 91.3833 20.15 89.85C21.45 88.3167 22.1 86.4667 22.1 84.3ZM88.85 83.9C90.1167 84.9333 90.0833 86.1167 88.75 87.45C87.4167 88.75 86.1833 88.9333 85.05 88L71.85 77L58.65 88C57.5167 88.9333 56.2833 88.75 54.95 87.45C53.65 86.1167 53.6167 84.9333 54.85 83.9L69.3 71.8C70.1333 71.1 70.9833 70.9667 71.85 71.4C72.6833 70.9667 73.5333 71.1 74.4 71.8L88.85 83.9ZM89.8 112.6C89.8 114.2 88.8 115 86.8 115C84.8333 115 83.85 114.2 83.85 112.6V104.5C83.85 104.367 83.8333 104.25 83.8 104.15C83.7667 104.05 83.6333 104 83.4 104H61.75C60.5167 104 59.8833 103.167 59.85 101.5C59.85 99.8 60.4833 98.95 61.75 98.95H86.65C87.85 98.95 88.6667 99.2667 89.1 99.9C89.5667 100.5 89.8 101.183 89.8 101.95V112.6ZM74.9 93.45C74.9 94.2167 74.6667 94.9167 74.2 95.55C73.7667 96.15 72.95 96.45 71.75 96.45H53.15C51.8833 96.45 51.25 95.6167 51.25 93.95C51.2833 92.25 51.9167 91.4 53.15 91.4H68.5C68.7333 91.4 68.8667 91.35 68.9 91.25C68.9333 91.15 68.95 91.0333 68.95 90.9V85.2C68.95 83.6 69.9333 82.8 71.9 82.8C73.9 82.8 74.9 83.6 74.9 85.2V93.45ZM117.863 93.15C117.863 93.2833 117.896 93.4167 117.963 93.55C118.063 93.65 118.179 93.6833 118.313 93.65C120.346 93.1833 122.929 92.2167 126.063 90.75C129.229 89.25 131.929 87.35 134.163 85.05C135.329 83.85 136.629 83.9333 138.063 85.3C139.529 86.6667 139.513 88.1167 138.013 89.65C136.613 91.05 134.413 92.6167 131.413 94.35H152.713C153.913 94.35 154.729 94.6667 155.163 95.3C155.629 95.9 155.863 96.5833 155.863 97.35V104.5C155.863 105.267 155.629 105.967 155.163 106.6C154.729 107.2 153.913 107.5 152.713 107.5H132.563C132.329 107.5 132.196 107.55 132.163 107.65C132.129 107.75 132.113 107.867 132.113 108V110.05C132.113 110.183 132.129 110.3 132.163 110.4C132.196 110.5 132.329 110.55 132.563 110.55H155.263C156.529 110.55 157.146 111.383 157.113 113.05C157.113 114.75 156.496 115.6 155.263 115.6H129.313C128.113 115.6 127.279 115.283 126.813 114.65C126.379 114.05 126.163 113.367 126.163 112.6V105.45C126.163 104.683 126.379 104 126.813 103.4C127.279 102.767 128.113 102.45 129.313 102.45H149.463C149.696 102.45 149.829 102.4 149.863 102.3C149.896 102.2 149.913 102.083 149.913 101.95V99.9C149.913 99.7667 149.896 99.65 149.863 99.55C149.829 99.45 149.696 99.4 149.463 99.4H128.013C126.813 99.4 126.179 98.6167 126.113 97.05C122.479 98.6833 118.796 99.7667 115.063 100.3C114.229 100.433 113.496 100.167 112.863 99.5C112.229 98.8 111.913 98.0667 111.913 97.3V73.9C111.913 72.3 112.896 71.5 114.863 71.5C116.863 71.5 117.863 72.3 117.863 73.9V93.15ZM146.763 91.1C146.763 92.7 145.763 93.5 143.763 93.5C141.796 93.5 140.813 92.7 140.813 91.1V73.15C140.813 71.55 141.796 70.75 143.763 70.75C145.763 70.75 146.763 71.55 146.763 73.15V91.1ZM156.113 81.15C156.113 82.2167 155.729 83.1333 154.963 83.9C154.229 84.6333 153.329 85 152.263 85C151.196 85 150.279 84.6333 149.513 83.9C148.779 83.1333 148.413 82.2167 148.413 81.15C148.413 80.0833 148.779 79.1833 149.513 78.45C150.279 77.6833 151.196 77.3 152.263 77.3C153.329 77.3 154.229 77.6833 154.963 78.45C155.729 79.1833 156.113 80.0833 156.113 81.15ZM182.463 76.95L188.813 103.4C189.213 105.033 188.413 106 186.413 106.3C184.413 106.6 183.213 105.933 182.813 104.3L179.413 89.15L175.963 104.3C175.563 105.933 174.363 106.6 172.363 106.3C170.363 106 169.563 105.033 169.963 103.4L176.263 76.95H172.313L165.813 104.3C165.413 105.933 164.213 106.6 162.213 106.3C160.213 106 159.413 105.033 159.813 103.4L166.113 76.95H162.663C161.429 76.95 160.796 76.1167 160.763 74.45C160.763 72.75 161.396 71.9 162.663 71.9H186.562C187.863 71.9 188.496 72.75 188.463 74.45C188.463 76.1167 187.829 76.95 186.562 76.95H182.463ZM196.763 110.9C196.763 112.5 195.763 113.3 193.763 113.3C191.796 113.3 190.813 112.5 190.813 110.9V73.2C190.813 71.6 191.796 70.8 193.763 70.8C195.763 70.8 196.763 71.6 196.763 73.2V110.9ZM206.113 88.65C206.113 89.7167 205.729 90.6333 204.963 91.4C204.229 92.1333 203.329 92.5 202.263 92.5C201.196 92.5 200.279 92.1333 199.513 91.4C198.779 90.6333 198.413 89.7167 198.413 88.65C198.413 87.5833 198.779 86.6833 199.513 85.95C200.279 85.1833 201.196 84.8 202.263 84.8C203.329 84.8 204.229 85.1833 204.963 85.95C205.729 86.6833 206.113 87.5833 206.113 88.65ZM209.693 96.2C208.46 96.2 207.826 95.4167 207.793 93.85C207.793 92.2833 208.426 91.5 209.693 91.5H247.243C248.543 91.5 249.176 92.2833 249.143 93.85C249.143 95.4167 248.51 96.2 247.243 96.2H209.693ZM219.743 116C218.543 116 217.71 115.683 217.243 115.05C216.81 114.45 216.593 113.767 216.593 113V107.75C216.593 106.983 216.81 106.3 217.243 105.7C217.71 105.067 218.543 104.75 219.743 104.75H239.893C240.126 104.75 240.26 104.7 240.293 104.6C240.326 104.5 240.343 104.383 240.343 104.25V103.35C240.343 103.217 240.326 103.1 240.293 103C240.26 102.9 240.126 102.85 239.893 102.85H218.193C216.96 102.85 216.326 102.067 216.293 100.5C216.293 98.9333 216.926 98.15 218.193 98.15H243.143C244.343 98.15 245.16 98.4667 245.593 99.1C246.06 99.7 246.293 100.383 246.293 101.15V106.45C246.293 107.217 246.06 107.917 245.593 108.55C245.16 109.15 244.343 109.45 243.143 109.45H222.993C222.76 109.45 222.626 109.5 222.593 109.6C222.56 109.7 222.543 109.817 222.543 109.95V110.8C222.543 110.933 222.56 111.05 222.593 111.15C222.626 111.25 222.76 111.3 222.993 111.3H245.593C246.893 111.3 247.526 112.083 247.493 113.65C247.493 115.217 246.86 116 245.593 116H219.743ZM216.193 89.7C214.993 89.7 214.16 89.4 213.693 88.8C213.26 88.1667 213.043 87.4667 213.043 86.7V81.45C213.043 80.6833 213.26 80 213.693 79.4C214.16 78.7667 214.993 78.45 216.193 78.45H236.343C236.576 78.45 236.71 78.4 236.743 78.3C236.776 78.2 236.793 78.0833 236.793 77.95V77.05C236.793 76.9167 236.776 76.8 236.743 76.7C236.71 76.6 236.576 76.55 236.343 76.55H214.893C213.66 76.55 213.026 75.7667 212.993 74.2C212.993 72.6333 213.626 71.85 214.893 71.85H239.593C240.793 71.85 241.61 72.1667 242.043 72.8C242.51 73.4 242.743 74.0833 242.743 74.85V80.15C242.743 80.9167 242.51 81.6167 242.043 82.25C241.61 82.85 240.793 83.15 239.593 83.15H219.443C219.21 83.15 219.076 83.2 219.043 83.3C219.01 83.4 218.993 83.5167 218.993 83.65V84.5C218.993 84.6333 219.01 84.75 219.043 84.85C219.076 84.95 219.21 85 219.443 85H242.043C243.343 85 243.976 85.7833 243.943 87.35C243.943 88.9167 243.31 89.7 242.043 89.7H216.193ZM29.4 154.3C30.6667 155.633 30.5333 156.917 29 158.15C27.5 159.35 26.1 159.283 24.8 157.95L16.45 149.35L7.85 166.3C7.01667 167.933 5.7 168.367 3.9 167.6C2.1 166.833 1.61667 165.617 2.45 163.95L12.3 144.5H4.85C3.61667 144.5 2.98333 143.667 2.95 142C2.95 140.3 3.58333 139.45 4.85 139.45H13.35V135.7C13.35 134.1 14.3333 133.3 16.3 133.3C18.3 133.3 19.3 134.1 19.3 135.7V139.45H27.2C28.5 139.45 29.1333 140.3 29.1 142C29.1 143.667 28.4667 144.5 27.2 144.5H19.9L29.4 154.3ZM17.7 165.25C16.4667 165.25 15.8333 164.417 15.8 162.75C15.8 161.05 16.4333 160.2 17.7 160.2H44.65C45.95 160.2 46.5833 161.05 46.55 162.75C46.55 164.417 45.9167 165.25 44.65 165.25H37.4L46.85 174.7C48.15 175.9 48.0333 177.117 46.5 178.35C44.9667 179.583 43.5667 179.6 42.3 178.4L31.1 167.05L19.95 178.4C18.7167 179.6 17.3167 179.583 15.75 178.35C14.2167 177.117 14.1 175.9 15.4 174.7L24.85 165.25H17.7ZM38.95 156.55C38.95 158.15 37.95 158.95 35.95 158.95C33.9833 158.95 33 158.15 33 156.55V136.2C33 134.6 33.9833 133.8 35.95 133.8C37.95 133.8 38.95 134.6 38.95 136.2V156.55ZM48.3 145.55C48.3 146.617 47.9167 147.533 47.15 148.3C46.4167 149.033 45.5167 149.4 44.45 149.4C43.3833 149.4 42.4667 149.033 41.7 148.3C40.9667 147.533 40.6 146.617 40.6 145.55C40.6 144.483 40.9667 143.583 41.7 142.85C42.4667 142.083 43.3833 141.7 44.45 141.7C45.5167 141.7 46.4167 142.083 47.15 142.85C47.9167 143.583 48.3 144.483 48.3 145.55ZM72 168.5C72 169.267 71.7667 169.967 71.3 170.6C70.8667 171.2 70.05 171.5 68.85 171.5H53.15C51.8833 171.5 51.25 170.667 51.25 169C51.2833 167.3 51.9167 166.45 53.15 166.45H65.6C65.8333 166.45 65.9667 166.4 66 166.3C66.0333 166.2 66.05 166.083 66.05 165.95V151.3C66.05 149.7 67.0333 148.9 69 148.9C71 148.9 72 149.7 72 151.3V168.5ZM85.7 166.25C85.7 167.85 84.7 168.65 82.7 168.65C80.7333 168.65 79.75 167.85 79.75 166.25V140.45C79.75 140.317 79.7333 140.2 79.7 140.1C79.6667 140 79.5333 139.95 79.3 139.95H56.9C55.6667 139.95 55.0333 139.117 55 137.45C55 135.75 55.6333 134.9 56.9 134.9H82.55C83.75 134.9 84.5667 135.217 85 135.85C85.4667 136.45 85.7 137.133 85.7 137.9V166.25ZM117.208 146.65C117.208 150.083 115.991 153.033 113.558 155.5C112.524 156.533 111.391 157.367 110.158 158C110.458 158.033 110.741 158.117 111.008 158.25C111.474 158.483 111.874 158.9 112.208 159.5L117.808 169.6L123.408 159.5C123.741 158.9 124.141 158.483 124.608 158.25C125.074 158.017 125.608 157.9 126.208 157.9C126.841 157.9 127.391 158.017 127.858 158.25C128.324 158.483 128.724 158.9 129.058 159.5L137.108 174.05C138.074 175.783 137.674 177 135.908 177.7C134.141 178.4 132.908 178.133 132.208 176.9L126.258 166.1L120.258 176.9C120.024 177.333 119.691 177.633 119.258 177.8C118.824 177.967 118.374 178.033 117.908 178C117.374 178.033 116.874 177.967 116.408 177.8C115.974 177.633 115.624 177.333 115.358 176.9L109.408 166.1L103.408 176.9C102.708 178.133 101.474 178.4 99.7078 177.7C97.9411 177 97.5411 175.783 98.5078 174.05L106.558 159.5C106.658 159.333 106.758 159.167 106.858 159C106.191 159.1 105.491 159.15 104.758 159.15C101.224 159.15 98.2411 157.933 95.8078 155.5C93.4078 153.067 92.2078 150.117 92.2078 146.65C92.2078 143.183 93.4078 140.233 95.8078 137.8C98.2411 135.367 101.224 134.15 104.758 134.15C108.224 134.15 111.158 135.367 113.558 137.8C115.991 140.233 117.208 143.183 117.208 146.65ZM111.258 146.65C111.258 144.583 110.608 142.833 109.308 141.4C108.041 139.933 106.524 139.2 104.758 139.2C102.958 139.2 101.424 139.933 100.158 141.4C98.8911 142.833 98.2578 144.583 98.2578 146.65C98.2578 148.683 98.8911 150.433 100.158 151.9C101.424 153.367 102.958 154.1 104.758 154.1C106.524 154.1 108.041 153.367 109.308 151.9C110.608 150.433 111.258 148.683 111.258 146.65ZM131.408 154.6C131.408 156.2 130.408 157 128.408 157C126.441 157 125.458 156.2 125.458 154.6V136.15C125.458 134.55 126.441 133.75 128.408 133.75C130.408 133.75 131.408 134.55 131.408 136.15V154.6ZM172.766 151.65C172.766 152.717 172.383 153.633 171.616 154.4C170.883 155.133 169.983 155.5 168.916 155.5C167.85 155.5 166.933 155.133 166.166 154.4C165.433 153.633 165.066 152.717 165.066 151.65C165.066 150.583 165.433 149.683 166.166 148.95C166.933 148.183 167.85 147.8 168.916 147.8C169.983 147.8 170.883 148.183 171.616 148.95C172.383 149.683 172.766 150.583 172.766 151.65ZM178.916 173.9C178.916 175.5 177.916 176.3 175.916 176.3C173.95 176.3 172.966 175.5 172.966 173.9V136.2C172.966 134.6 173.95 133.8 175.916 133.8C177.916 133.8 178.916 134.6 178.916 136.2V173.9ZM164.966 152.1C164.966 156.933 163.833 161.1 161.566 164.6C159.333 168.1 156.283 169.85 152.416 169.85C148.583 169.85 145.516 168.117 143.216 164.65C140.916 161.183 139.766 157 139.766 152.1C139.766 147.2 140.916 143.017 143.216 139.55C145.516 136.083 148.583 134.35 152.416 134.35C156.316 134.35 159.383 136.1 161.616 139.6C163.85 143.067 164.966 147.233 164.966 152.1ZM159.116 152.1C159.116 148.533 158.533 145.533 157.366 143.1C156.233 140.633 154.583 139.4 152.416 139.4C150.316 139.4 148.666 140.633 147.466 143.1C146.3 145.533 145.716 148.533 145.716 152.1C145.716 155.667 146.3 158.683 147.466 161.15C148.666 163.583 150.316 164.8 152.416 164.8C154.583 164.8 156.233 163.583 157.366 161.15C158.533 158.683 159.116 155.667 159.116 152.1ZM202.325 168.5C202.325 169.267 202.092 169.967 201.625 170.6C201.192 171.2 200.375 171.5 199.175 171.5H187.525C186.258 171.5 185.625 170.667 185.625 169C185.658 167.3 186.292 166.45 187.525 166.45H195.925C196.158 166.45 196.292 166.4 196.325 166.3C196.358 166.2 196.375 166.083 196.375 165.95V159.8C196.375 158.2 197.358 157.4 199.325 157.4C201.325 157.4 202.325 158.2 202.325 159.8V168.5ZM215.225 169.25C215.225 170.85 214.225 171.65 212.225 171.65C210.258 171.65 209.275 170.85 209.275 169.25V159.8C209.275 158.2 210.258 157.4 212.225 157.4C214.225 157.4 215.225 158.2 215.225 159.8V169.25ZM219.125 145.9C219.125 149.233 217.808 152.1 215.175 154.5C212.542 156.9 209.342 158.1 205.575 158.1C201.742 158.1 198.508 156.917 195.875 154.55C193.242 152.183 191.925 149.3 191.925 145.9C191.925 142.5 193.242 139.617 195.875 137.25C198.508 134.883 201.742 133.7 205.575 133.7C209.342 133.7 212.542 134.9 215.175 137.3C217.808 139.667 219.125 142.533 219.125 145.9ZM213.275 145.9C213.275 143.9 212.508 142.217 210.975 140.85C209.442 139.45 207.642 138.75 205.575 138.75C203.475 138.75 201.658 139.45 200.125 140.85C198.625 142.217 197.875 143.9 197.875 145.9C197.875 147.9 198.625 149.6 200.125 151C201.658 152.367 203.475 153.05 205.575 153.05C207.642 153.05 209.442 152.367 210.975 151C212.508 149.6 213.275 147.9 213.275 145.9ZM235.283 170.9C235.283 172.033 234.899 173 234.133 173.8C233.366 174.567 232.416 174.95 231.283 174.95C230.149 174.95 229.199 174.567 228.433 173.8C227.666 173 227.283 172.033 227.283 170.9C227.283 169.8 227.666 168.867 228.433 168.1C229.199 167.3 230.149 166.9 231.283 166.9C232.416 166.9 233.366 167.3 234.133 168.1C234.899 168.867 235.283 169.8 235.283 170.9Z" fill="black"/>
</svg>
