<svg width="407" height="556" viewBox="0 0 407 556" fill="none" xmlns="http://www.w3.org/2000/svg">
<g filter="url(#filter0_d_446_15935)">
<rect x="5.5" y="2.70361" width="396" height="545" fill="white" shape-rendering="crispEdges"/>
<rect x="6" y="3.20361" width="395" height="544" stroke="#DDDDDD" shape-rendering="crispEdges"/>
<path d="M46.0859 49.3521C48.7617 49.3521 50.7539 51.0122 50.7734 53.3364C50.7539 55.6802 48.7617 57.3208 46.0859 57.3208C43.3906 57.3208 41.3984 55.6802 41.3984 53.3364C41.3984 51.0122 43.3906 49.3521 46.0859 49.3521ZM46.0859 51.1489C44.6016 51.1489 43.5078 51.9888 43.5078 53.3364C43.5078 54.7036 44.6016 55.563 46.0859 55.563C47.5703 55.563 48.6641 54.7036 48.6641 53.3364C48.6641 51.9888 47.5703 51.1489 46.0859 51.1489ZM55.793 48.7856V57.7114H53.6055V48.7856H55.793ZM55.793 58.4731V63.0825H46.2422V64.5083H56.3203V66.2271H44.1133V61.481H53.625V60.1724H44.0742V58.4731H55.793ZM73.1562 48.7856V59.2739H70.9883V54.9575H67.9805V53.1802H70.9883V48.7856H73.1562ZM67.1797 59.7231C70.9297 59.7231 73.2148 60.9536 73.2148 63.0825C73.2148 65.2114 70.9297 66.4419 67.1797 66.4419C63.4492 66.4419 61.1641 65.2114 61.1836 63.0825C61.1641 60.9536 63.4492 59.7231 67.1797 59.7231ZM67.1797 61.3833C64.7188 61.3833 63.332 61.9692 63.332 63.0825C63.332 64.1763 64.7188 64.7622 67.1797 64.7622C69.6406 64.7622 71.0469 64.1763 71.0469 63.0825C71.0469 61.9692 69.6406 61.3833 67.1797 61.3833ZM64.8555 51.813C64.8555 53.9614 66.2812 56.1294 69.0156 57.0474L67.9219 58.7661C65.959 58.1021 64.5625 56.7544 63.8008 55.0942C63.0195 56.979 61.5449 58.4829 59.4453 59.2349L58.3125 57.5161C61.1445 56.5396 62.6484 54.1567 62.6484 51.8325V51.6958H58.9766V49.938H68.5078V51.6958H64.8555V51.813ZM96.5156 56.9692V58.7466H80.4023V56.9692H96.5156ZM94.6602 53.8442V55.5825H82.375V49.3521H94.5625V51.1099H84.543V53.8442H94.6602ZM88.4297 59.9771C92.2383 59.9575 94.5234 61.1294 94.543 63.1802C94.5234 65.2505 92.2383 66.4224 88.4297 66.4224C84.582 66.4224 82.2773 65.2505 82.2773 63.1802C82.2773 61.1294 84.582 59.9575 88.4297 59.9771ZM88.4297 61.6372C85.8516 61.6372 84.4648 62.1841 84.4844 63.1802C84.4648 64.2153 85.8516 64.7427 88.4297 64.7427C90.9492 64.7427 92.3555 64.2153 92.375 63.1802C92.3555 62.1841 90.9492 61.6372 88.4297 61.6372ZM113.801 58.3364V60.0942H97.668V58.3364H104.66V56.8716H99.7188V52.1841H109.641V50.8755H99.6602V49.1763H111.809V53.7661H101.867V55.1724H112.16V56.8716H106.809V58.3364H113.801ZM111.906 61.2075V66.3247H109.719V62.9263H99.4648V61.2075H111.906Z" fill="black"/>
<path d="M350.5 59.4116L345.254 64.6576C345.161 64.7509 345.046 64.8009 344.91 64.8076C344.774 64.8143 344.653 64.7643 344.546 64.6576C344.439 64.5509 344.386 64.4329 344.386 64.3036C344.386 64.1743 344.439 64.0563 344.546 63.9496L349.792 58.7036L344.546 53.4576C344.453 53.3643 344.403 53.2496 344.396 53.1136C344.389 52.9776 344.439 52.8563 344.546 52.7496C344.653 52.6429 344.771 52.5896 344.9 52.5896C345.029 52.5896 345.147 52.6429 345.254 52.7496L350.5 57.9956L355.746 52.7496C355.839 52.6563 355.954 52.6063 356.091 52.5996C356.226 52.5929 356.347 52.6429 356.454 52.7496C356.561 52.8563 356.614 52.9743 356.614 53.1036C356.614 53.2329 356.561 53.3509 356.454 53.4576L351.208 58.7036L356.454 63.9496C356.547 64.0429 356.597 64.1579 356.604 64.2946C356.611 64.4299 356.561 64.5509 356.454 64.6576C356.347 64.7643 356.229 64.8176 356.1 64.8176C355.971 64.8176 355.853 64.7643 355.746 64.6576L350.5 59.4116Z" fill="black"/>
<rect x="41" y="99.2036" width="193" height="37" rx="9.5" fill="#F4F4F4"/>
<rect x="41" y="99.2036" width="193" height="37" rx="9.5" fill="white"/>
<rect x="41" y="99.2036" width="193" height="37" rx="9.5" stroke="#E8E8E8"/>
<path d="M65.9219 110.579V113.594H68.0156V114.625H65.9219V117.657H64.7031V110.579H65.9219ZM65.9219 118.313V121.704H58.2969V123.297H66.4375V124.282H57.0938V120.766H64.7031V119.297H57.0625V118.313H65.9219ZM58.9375 111.094C61.0312 111.11 62.5469 112.36 62.5469 114.172C62.5469 116 61.0312 117.266 58.9375 117.266C56.8594 117.266 55.3125 116 55.3281 114.172C55.3125 112.36 56.8594 111.11 58.9375 111.094ZM58.9375 112.125C57.5469 112.11 56.5156 112.969 56.5312 114.172C56.5156 115.391 57.5469 116.266 58.9375 116.266C60.3281 116.266 61.3438 115.391 61.3438 114.172C61.3438 112.969 60.3281 112.11 58.9375 112.125ZM79.6406 110.579V116.047H81.9688V117.11H79.6406V124.469H78.4219V110.579H79.6406ZM70.6875 111.766V115.438H74.75V111.766H75.9688V121.141H69.4688V111.766H70.6875ZM70.6875 120.11H74.75V116.422H70.6875V120.11Z" fill="#AEAEB2"/>
<path d="M65.9219 110.579V113.594H68.0156V114.625H65.9219V117.657H64.7031V110.579H65.9219ZM65.9219 118.313V121.704H58.2969V123.297H66.4375V124.282H57.0938V120.766H64.7031V119.297H57.0625V118.313H65.9219ZM58.9375 111.094C61.0312 111.11 62.5469 112.36 62.5469 114.172C62.5469 116 61.0312 117.266 58.9375 117.266C56.8594 117.266 55.3125 116 55.3281 114.172C55.3125 112.36 56.8594 111.11 58.9375 111.094ZM58.9375 112.125C57.5469 112.11 56.5156 112.969 56.5312 114.172C56.5156 115.391 57.5469 116.266 58.9375 116.266C60.3281 116.266 61.3438 115.391 61.3438 114.172C61.3438 112.969 60.3281 112.11 58.9375 112.125ZM79.6406 110.579V116.047H81.9688V117.11H79.6406V124.469H78.4219V110.579H79.6406ZM70.6875 111.766V115.438H74.75V111.766H75.9688V121.141H69.4688V111.766H70.6875ZM70.6875 120.11H74.75V116.422H70.6875V120.11Z" fill="black"/>
<rect x="255" y="101.704" width="32" height="32" rx="9.5" stroke="#E0E0E0"/>
<rect x="255" y="101.704" width="32" height="32" rx="9.5" stroke="black"/>
<path d="M263.5 117.704L268.5 122.704L278.5 112.704" stroke="black" stroke-width="2" stroke-linecap="round" stroke-linejoin="round"/>
<path d="M308.35 110.018V114.747H310.705V115.907H308.35V121.497H306.979V110.018H308.35ZM309.07 124.133V125.293H298.576V120.372H299.93V124.133H309.07ZM298.154 111.143V113.78H302.707V111.143H304.078V118.86H296.801V111.143H298.154ZM298.154 117.735H302.707V114.87H298.154V117.735ZM325.928 118.086V119.229H311.689V118.086H318.123V116.206H313.588V110.37H314.959V112.18H322.693V110.37H324.064V116.206H319.494V118.086H325.928ZM324.17 120.776V125.627H322.781V121.883H313.271V120.776H324.17ZM314.959 115.098H322.693V113.235H314.959V115.098Z" fill="black"/>
<circle cx="59.5" cy="175.704" r="18.5" fill="#FFBABA" stroke="black"/>
<circle cx="109.5" cy="175.704" r="19" fill="#FDE582"/>
<circle cx="159.5" cy="175.704" r="19" fill="#AFE2CE"/>
<circle cx="209.5" cy="175.704" r="19" fill="#A5DAEE"/>
<path d="M64.5 224.104H60.9V222.304C60.9 222.144 60.8368 221.992 60.7243 221.879C60.6117 221.767 60.4591 221.704 60.3 221.704C60.1409 221.704 59.9883 221.767 59.8757 221.879C59.7632 221.992 59.7 222.144 59.7 222.304V224.104H51.3V222.304C51.3 222.144 51.2368 221.992 51.1243 221.879C51.0117 221.767 50.8591 221.704 50.7 221.704C50.5409 221.704 50.3883 221.767 50.2757 221.879C50.1632 221.992 50.1 222.144 50.1 222.304V224.104H46.5C45.7046 224.105 44.9421 224.421 44.3797 224.983C43.8173 225.546 43.501 226.308 43.5 227.104V242.704C43.501 243.499 43.8173 244.261 44.3797 244.824C44.9421 245.386 45.7046 245.703 46.5 245.704H64.5C65.2957 245.704 66.0587 245.388 66.6213 244.825C67.1839 244.262 67.5 243.499 67.5 242.704V227.104C67.5 226.308 67.1839 225.545 66.6213 224.982C66.0587 224.42 65.2957 224.104 64.5 224.104ZM66.3 242.704C66.3 243.181 66.1104 243.639 65.7728 243.976C65.4352 244.314 64.9774 244.504 64.5 244.504H46.5C46.0226 244.504 45.5648 244.314 45.2272 243.976C44.8896 243.639 44.7 243.181 44.7 242.704V232.504H66.3V242.704ZM66.3 231.304H44.7V227.104C44.7 226.11 45.504 225.304 46.5 225.304H50.1V227.104C50.1 227.263 50.1632 227.415 50.2757 227.528C50.3883 227.64 50.5409 227.704 50.7 227.704C50.8591 227.704 51.0117 227.64 51.1243 227.528C51.2368 227.415 51.3 227.263 51.3 227.104V225.304H59.7V227.104C59.7 227.263 59.7632 227.415 59.8757 227.528C59.9883 227.64 60.1409 227.704 60.3 227.704C60.4591 227.704 60.6117 227.64 60.7243 227.528C60.8368 227.415 60.9 227.263 60.9 227.104V225.304H64.5C64.9774 225.304 65.4352 225.493 65.7728 225.831C66.1104 226.168 66.3 226.626 66.3 227.104V231.304Z" fill="black"/>
<rect x="78" y="215.204" width="122" height="37" rx="9.5" fill="#F4F4F4"/>
<rect x="78" y="215.204" width="122" height="37" rx="9.5" fill="white"/>
<rect x="78" y="215.204" width="122" height="37" rx="9.5" stroke="#E8E8E8"/>
<path d="M92.5625 239.204L92.5469 238.172L96.4062 234.11C97.75 232.688 98.3906 231.922 98.3906 230.875C98.3906 229.719 97.4062 228.954 96.1406 228.954C94.7969 228.954 93.9375 229.813 93.9375 231.079H92.6094C92.5938 229.079 94.1406 227.735 96.1875 227.735C98.2344 227.735 99.7031 229.11 99.7031 230.875C99.7031 232.141 99.1094 233.125 97.1094 235.188L94.5156 237.86V237.954H99.9062V239.204H92.5625ZM105.641 239.36C103.594 239.36 102.047 238.094 101.969 236.36H103.328C103.438 237.375 104.422 238.125 105.641 238.125C107.109 238.125 108.172 237.047 108.172 235.625C108.172 234.157 107.062 233.079 105.547 233.063C104.594 233.047 103.859 233.344 103.438 234.079H102.078L102.875 227.891H109V229.141H104.047L103.625 232.454H103.734C104.234 232.063 105 231.797 105.797 231.797C107.953 231.797 109.547 233.391 109.547 235.594C109.547 237.782 107.891 239.36 105.641 239.36ZM116.375 232.938V234.172H111.422V232.938H116.375ZM122.125 239.36C119.609 239.36 118.172 237.25 118.172 233.547C118.172 229.875 119.641 227.735 122.125 227.735C124.609 227.735 126.078 229.875 126.078 233.547C126.078 237.25 124.625 239.36 122.125 239.36ZM122.125 238.11C123.75 238.11 124.703 236.469 124.703 233.547C124.703 230.625 123.75 228.954 122.125 228.954C120.5 228.954 119.531 230.625 119.531 233.547C119.531 236.469 120.484 238.11 122.125 238.11ZM128 239.204L133.188 229.219V229.141H127.203V227.891H134.641V229.204L129.469 239.204H128ZM141.344 232.938V234.172H136.391V232.938H141.344ZM142.875 239.204L142.859 238.172L146.719 234.11C148.062 232.688 148.703 231.922 148.703 230.875C148.703 229.719 147.719 228.954 146.453 228.954C145.109 228.954 144.25 229.813 144.25 231.079H142.922C142.906 229.079 144.453 227.735 146.5 227.735C148.547 227.735 150.016 229.11 150.016 230.875C150.016 232.141 149.422 233.125 147.422 235.188L144.828 237.86V237.954H150.219V239.204H142.875ZM156.203 239.36C154.234 239.329 152.078 238.172 152.078 233.985C152.078 229.985 153.719 227.735 156.375 227.735C158.359 227.735 159.75 228.954 160.047 230.735H158.656C158.391 229.735 157.641 228.985 156.375 228.985C154.516 228.985 153.406 230.579 153.406 233.297H153.547C154.203 232.36 155.234 231.797 156.453 231.797C158.469 231.797 160.141 233.36 160.141 235.547C160.141 237.672 158.578 239.375 156.203 239.36ZM156.203 238.125C157.672 238.125 158.766 236.969 158.781 235.563C158.766 234.172 157.719 233.032 156.234 233.032C154.75 233.032 153.609 234.235 153.594 235.579C153.594 236.907 154.688 238.125 156.203 238.125Z" fill="#AEAEB2"/>
<path d="M92.5625 239.204L92.5469 238.172L96.4062 234.11C97.75 232.688 98.3906 231.922 98.3906 230.875C98.3906 229.719 97.4062 228.954 96.1406 228.954C94.7969 228.954 93.9375 229.813 93.9375 231.079H92.6094C92.5938 229.079 94.1406 227.735 96.1875 227.735C98.2344 227.735 99.7031 229.11 99.7031 230.875C99.7031 232.141 99.1094 233.125 97.1094 235.188L94.5156 237.86V237.954H99.9062V239.204H92.5625ZM105.641 239.36C103.594 239.36 102.047 238.094 101.969 236.36H103.328C103.438 237.375 104.422 238.125 105.641 238.125C107.109 238.125 108.172 237.047 108.172 235.625C108.172 234.157 107.062 233.079 105.547 233.063C104.594 233.047 103.859 233.344 103.438 234.079H102.078L102.875 227.891H109V229.141H104.047L103.625 232.454H103.734C104.234 232.063 105 231.797 105.797 231.797C107.953 231.797 109.547 233.391 109.547 235.594C109.547 237.782 107.891 239.36 105.641 239.36ZM116.375 232.938V234.172H111.422V232.938H116.375ZM122.125 239.36C119.609 239.36 118.172 237.25 118.172 233.547C118.172 229.875 119.641 227.735 122.125 227.735C124.609 227.735 126.078 229.875 126.078 233.547C126.078 237.25 124.625 239.36 122.125 239.36ZM122.125 238.11C123.75 238.11 124.703 236.469 124.703 233.547C124.703 230.625 123.75 228.954 122.125 228.954C120.5 228.954 119.531 230.625 119.531 233.547C119.531 236.469 120.484 238.11 122.125 238.11ZM128 239.204L133.188 229.219V229.141H127.203V227.891H134.641V229.204L129.469 239.204H128ZM141.344 232.938V234.172H136.391V232.938H141.344ZM142.875 239.204L142.859 238.172L146.719 234.11C148.062 232.688 148.703 231.922 148.703 230.875C148.703 229.719 147.719 228.954 146.453 228.954C145.109 228.954 144.25 229.813 144.25 231.079H142.922C142.906 229.079 144.453 227.735 146.5 227.735C148.547 227.735 150.016 229.11 150.016 230.875C150.016 232.141 149.422 233.125 147.422 235.188L144.828 237.86V237.954H150.219V239.204H142.875ZM156.203 239.36C154.234 239.329 152.078 238.172 152.078 233.985C152.078 229.985 153.719 227.735 156.375 227.735C158.359 227.735 159.75 228.954 160.047 230.735H158.656C158.391 229.735 157.641 228.985 156.375 228.985C154.516 228.985 153.406 230.579 153.406 233.297H153.547C154.203 232.36 155.234 231.797 156.453 231.797C158.469 231.797 160.141 233.36 160.141 235.547C160.141 237.672 158.578 239.375 156.203 239.36ZM156.203 238.125C157.672 238.125 158.766 236.969 158.781 235.563C158.766 234.172 157.719 233.032 156.234 233.032C154.75 233.032 153.609 234.235 153.594 235.579C153.594 236.907 154.688 238.125 156.203 238.125Z" fill="black"/>
<path d="M211.818 235.749C211.807 235.12 211.909 234.615 212.125 234.232C212.341 233.849 212.621 233.571 212.966 233.397C213.314 233.223 213.682 233.135 214.068 233.135C214.455 233.135 214.807 233.221 215.125 233.391C215.447 233.558 215.814 233.821 216.227 234.181C216.508 234.423 216.731 234.594 216.898 234.692C217.068 234.791 217.254 234.84 217.455 234.84C217.78 234.84 218.038 234.723 218.227 234.488C218.417 234.249 218.508 233.904 218.5 233.454H219.727C219.739 234.082 219.636 234.588 219.42 234.971C219.208 235.353 218.928 235.632 218.58 235.806C218.231 235.98 217.864 236.067 217.477 236.067C217.091 236.067 216.739 235.984 216.42 235.817C216.102 235.647 215.735 235.382 215.318 235.022C215.042 234.779 214.818 234.609 214.648 234.51C214.477 234.412 214.292 234.363 214.091 234.363C213.784 234.363 213.53 234.471 213.33 234.687C213.133 234.899 213.038 235.253 213.045 235.749H211.818Z" fill="black"/>
<rect x="232" y="215.204" width="122" height="37" rx="9.5" fill="#F4F4F4"/>
<rect x="232" y="215.204" width="122" height="37" rx="9.5" fill="white"/>
<rect x="232" y="215.204" width="122" height="37" rx="9.5" stroke="#E8E8E8"/>
<path d="M246.562 239.204L246.547 238.172L250.406 234.11C251.75 232.688 252.391 231.922 252.391 230.875C252.391 229.719 251.406 228.954 250.141 228.954C248.797 228.954 247.938 229.813 247.938 231.079H246.609C246.594 229.079 248.141 227.735 250.188 227.735C252.234 227.735 253.703 229.11 253.703 230.875C253.703 232.141 253.109 233.125 251.109 235.188L248.516 237.86V237.954H253.906V239.204H246.562ZM259.641 239.36C257.594 239.36 256.047 238.094 255.969 236.36H257.328C257.438 237.375 258.422 238.125 259.641 238.125C261.109 238.125 262.172 237.047 262.172 235.625C262.172 234.157 261.062 233.079 259.547 233.063C258.594 233.047 257.859 233.344 257.438 234.079H256.078L256.875 227.891H263V229.141H258.047L257.625 232.454H257.734C258.234 232.063 259 231.797 259.797 231.797C261.953 231.797 263.547 233.391 263.547 235.594C263.547 237.782 261.891 239.36 259.641 239.36ZM270.375 232.938V234.172H265.422V232.938H270.375ZM276.125 239.36C273.609 239.36 272.172 237.25 272.172 233.547C272.172 229.875 273.641 227.735 276.125 227.735C278.609 227.735 280.078 229.875 280.078 233.547C280.078 237.25 278.625 239.36 276.125 239.36ZM276.125 238.11C277.75 238.11 278.703 236.469 278.703 233.547C278.703 230.625 277.75 228.954 276.125 228.954C274.5 228.954 273.531 230.625 273.531 233.547C273.531 236.469 274.484 238.11 276.125 238.11ZM285.734 239.36C283.359 239.36 281.703 238.047 281.719 236.204C281.703 234.735 282.719 233.532 284.016 233.329V233.266C282.891 233 282.156 231.969 282.156 230.735C282.156 229 283.672 227.735 285.734 227.735C287.797 227.735 289.312 229 289.328 230.735C289.312 231.969 288.562 233 287.453 233.266V233.329C288.734 233.532 289.75 234.735 289.766 236.204C289.75 238.047 288.094 239.36 285.734 239.36ZM285.734 238.125C287.359 238.125 288.359 237.313 288.359 236.125C288.359 234.875 287.25 233.954 285.734 233.954C284.219 233.954 283.094 234.875 283.125 236.125C283.094 237.313 284.109 238.125 285.734 238.125ZM285.734 232.766C287.016 232.766 287.953 231.985 287.953 230.844C287.953 229.719 287.062 228.954 285.734 228.954C284.391 228.954 283.516 229.719 283.516 230.844C283.516 231.985 284.438 232.766 285.734 232.766ZM296.531 232.938V234.172H291.578V232.938H296.531ZM298.062 239.204L298.047 238.172L301.906 234.11C303.25 232.688 303.891 231.922 303.891 230.875C303.891 229.719 302.906 228.954 301.641 228.954C300.297 228.954 299.438 229.813 299.438 231.079H298.109C298.094 229.079 299.641 227.735 301.688 227.735C303.734 227.735 305.203 229.11 305.203 230.875C305.203 232.141 304.609 233.125 302.609 235.188L300.016 237.86V237.954H305.406V239.204H298.062ZM311.391 239.36C309.422 239.329 307.266 238.172 307.266 233.985C307.266 229.985 308.906 227.735 311.562 227.735C313.547 227.735 314.938 228.954 315.234 230.735H313.844C313.578 229.735 312.828 228.985 311.562 228.985C309.703 228.985 308.594 230.579 308.594 233.297H308.734C309.391 232.36 310.422 231.797 311.641 231.797C313.656 231.797 315.328 233.36 315.328 235.547C315.328 237.672 313.766 239.375 311.391 239.36ZM311.391 238.125C312.859 238.125 313.953 236.969 313.969 235.563C313.953 234.172 312.906 233.032 311.422 233.032C309.938 233.032 308.797 234.235 308.781 235.579C308.781 236.907 309.875 238.125 311.391 238.125Z" fill="#AEAEB2"/>
<path d="M246.562 239.204L246.547 238.172L250.406 234.11C251.75 232.688 252.391 231.922 252.391 230.875C252.391 229.719 251.406 228.954 250.141 228.954C248.797 228.954 247.938 229.813 247.938 231.079H246.609C246.594 229.079 248.141 227.735 250.188 227.735C252.234 227.735 253.703 229.11 253.703 230.875C253.703 232.141 253.109 233.125 251.109 235.188L248.516 237.86V237.954H253.906V239.204H246.562ZM259.641 239.36C257.594 239.36 256.047 238.094 255.969 236.36H257.328C257.438 237.375 258.422 238.125 259.641 238.125C261.109 238.125 262.172 237.047 262.172 235.625C262.172 234.157 261.062 233.079 259.547 233.063C258.594 233.047 257.859 233.344 257.438 234.079H256.078L256.875 227.891H263V229.141H258.047L257.625 232.454H257.734C258.234 232.063 259 231.797 259.797 231.797C261.953 231.797 263.547 233.391 263.547 235.594C263.547 237.782 261.891 239.36 259.641 239.36ZM270.375 232.938V234.172H265.422V232.938H270.375ZM276.125 239.36C273.609 239.36 272.172 237.25 272.172 233.547C272.172 229.875 273.641 227.735 276.125 227.735C278.609 227.735 280.078 229.875 280.078 233.547C280.078 237.25 278.625 239.36 276.125 239.36ZM276.125 238.11C277.75 238.11 278.703 236.469 278.703 233.547C278.703 230.625 277.75 228.954 276.125 228.954C274.5 228.954 273.531 230.625 273.531 233.547C273.531 236.469 274.484 238.11 276.125 238.11ZM285.734 239.36C283.359 239.36 281.703 238.047 281.719 236.204C281.703 234.735 282.719 233.532 284.016 233.329V233.266C282.891 233 282.156 231.969 282.156 230.735C282.156 229 283.672 227.735 285.734 227.735C287.797 227.735 289.312 229 289.328 230.735C289.312 231.969 288.562 233 287.453 233.266V233.329C288.734 233.532 289.75 234.735 289.766 236.204C289.75 238.047 288.094 239.36 285.734 239.36ZM285.734 238.125C287.359 238.125 288.359 237.313 288.359 236.125C288.359 234.875 287.25 233.954 285.734 233.954C284.219 233.954 283.094 234.875 283.125 236.125C283.094 237.313 284.109 238.125 285.734 238.125ZM285.734 232.766C287.016 232.766 287.953 231.985 287.953 230.844C287.953 229.719 287.062 228.954 285.734 228.954C284.391 228.954 283.516 229.719 283.516 230.844C283.516 231.985 284.438 232.766 285.734 232.766ZM296.531 232.938V234.172H291.578V232.938H296.531ZM298.062 239.204L298.047 238.172L301.906 234.11C303.25 232.688 303.891 231.922 303.891 230.875C303.891 229.719 302.906 228.954 301.641 228.954C300.297 228.954 299.438 229.813 299.438 231.079H298.109C298.094 229.079 299.641 227.735 301.688 227.735C303.734 227.735 305.203 229.11 305.203 230.875C305.203 232.141 304.609 233.125 302.609 235.188L300.016 237.86V237.954H305.406V239.204H298.062ZM311.391 239.36C309.422 239.329 307.266 238.172 307.266 233.985C307.266 229.985 308.906 227.735 311.562 227.735C313.547 227.735 314.938 228.954 315.234 230.735H313.844C313.578 229.735 312.828 228.985 311.562 228.985C309.703 228.985 308.594 230.579 308.594 233.297H308.734C309.391 232.36 310.422 231.797 311.641 231.797C313.656 231.797 315.328 233.36 315.328 235.547C315.328 237.672 313.766 239.375 311.391 239.36ZM311.391 238.125C312.859 238.125 313.953 236.969 313.969 235.563C313.953 234.172 312.906 233.032 311.422 233.032C309.938 233.032 308.797 234.235 308.781 235.579C308.781 236.907 309.875 238.125 311.391 238.125Z" fill="black"/>
<path d="M55.5 279.704C58.6826 279.704 61.7348 280.968 63.9853 283.218C66.2357 285.469 67.5 288.521 67.5 291.704C67.5 294.886 66.2357 297.938 63.9853 300.189C61.7348 302.439 58.6826 303.704 55.5 303.704C52.3174 303.704 49.2652 302.439 47.0147 300.189C44.7643 297.938 43.5 294.886 43.5 291.704C43.5 288.521 44.7643 285.469 47.0147 283.218C49.2652 280.968 52.3174 279.704 55.5 279.704ZM55.5 280.967C52.6524 280.967 49.9215 282.098 47.9079 284.112C45.8944 286.125 44.7632 288.856 44.7632 291.704C44.7632 294.551 45.8944 297.282 47.9079 299.296C49.9215 301.309 52.6524 302.44 55.5 302.44C56.91 302.44 58.3062 302.163 59.6088 301.623C60.9115 301.084 62.0951 300.293 63.0921 299.296C64.0891 298.299 64.88 297.115 65.4195 295.812C65.9591 294.51 66.2368 293.114 66.2368 291.704C66.2368 288.856 65.1056 286.125 63.0921 284.112C61.0785 282.098 58.3476 280.967 55.5 280.967ZM54.8684 284.756H56.1316V291.603L62.0684 295.026L61.4368 296.125L54.8684 292.335V284.756Z" fill="black"/>
<rect x="78" y="273.204" width="122" height="37" rx="9.5" fill="#F4F4F4"/>
<rect x="78" y="273.204" width="122" height="37" rx="9.5" fill="white"/>
<rect x="78" y="273.204" width="122" height="37" rx="9.5" stroke="#E8E8E8"/>
<path d="M96.2656 297.36C93.75 297.36 92.3125 295.25 92.3125 291.547C92.3125 287.875 93.7812 285.735 96.2656 285.735C98.75 285.735 100.219 287.875 100.219 291.547C100.219 295.25 98.7656 297.36 96.2656 297.36ZM96.2656 296.11C97.8906 296.11 98.8438 294.469 98.8438 291.547C98.8438 288.625 97.8906 286.954 96.2656 286.954C94.6406 286.954 93.6719 288.625 93.6719 291.547C93.6719 294.469 94.625 296.11 96.2656 296.11ZM106.031 297.36C104.062 297.329 101.906 296.172 101.906 291.985C101.906 287.985 103.547 285.735 106.203 285.735C108.188 285.735 109.578 286.954 109.875 288.735H108.484C108.219 287.735 107.469 286.985 106.203 286.985C104.344 286.985 103.234 288.579 103.234 291.297H103.375C104.031 290.36 105.062 289.797 106.281 289.797C108.297 289.797 109.969 291.36 109.969 293.547C109.969 295.672 108.406 297.375 106.031 297.36ZM106.031 296.125C107.5 296.125 108.594 294.969 108.609 293.563C108.594 292.172 107.547 291.032 106.062 291.032C104.578 291.032 103.438 292.235 103.422 293.579C103.422 294.907 104.516 296.125 106.031 296.125ZM112.875 295.704C112.328 295.704 111.859 295.25 111.875 294.688C111.859 294.141 112.328 293.688 112.875 293.688C113.422 293.688 113.875 294.141 113.875 294.688C113.875 295.25 113.422 295.704 112.875 295.704ZM112.875 289.422C112.328 289.422 111.859 288.969 111.875 288.407C111.859 287.86 112.328 287.407 112.875 287.407C113.422 287.407 113.875 287.86 113.875 288.407C113.875 288.969 113.422 289.422 112.875 289.422ZM119.672 297.36C117.156 297.36 115.719 295.25 115.719 291.547C115.719 287.875 117.188 285.735 119.672 285.735C122.156 285.735 123.625 287.875 123.625 291.547C123.625 295.25 122.172 297.36 119.672 297.36ZM119.672 296.11C121.297 296.11 122.25 294.469 122.25 291.547C122.25 288.625 121.297 286.954 119.672 286.954C118.047 286.954 117.078 288.625 117.078 291.547C117.078 294.469 118.031 296.11 119.672 296.11ZM129.203 297.36C126.688 297.36 125.25 295.25 125.25 291.547C125.25 287.875 126.719 285.735 129.203 285.735C131.688 285.735 133.156 287.875 133.156 291.547C133.156 295.25 131.703 297.36 129.203 297.36ZM129.203 296.11C130.828 296.11 131.781 294.469 131.781 291.547C131.781 288.625 130.828 286.954 129.203 286.954C127.578 286.954 126.609 288.625 126.609 291.547C126.609 294.469 127.562 296.11 129.203 296.11ZM135.484 291.375C135.984 290.797 136.609 290.485 137.297 290.485C138.484 290.485 139.562 291.391 140.703 291.391C141.406 291.391 142.016 291.047 142.484 290.407V291.704C141.969 292.297 141.359 292.594 140.672 292.594C139.484 292.594 138.406 291.688 137.25 291.688C136.562 291.688 135.953 292.032 135.484 292.672V291.375ZM144.547 297.204L144.531 296.172L148.391 292.11C149.734 290.688 150.375 289.922 150.375 288.875C150.375 287.719 149.391 286.954 148.125 286.954C146.781 286.954 145.922 287.813 145.922 289.079H144.594C144.578 287.079 146.125 285.735 148.172 285.735C150.219 285.735 151.688 287.11 151.688 288.875C151.688 290.141 151.094 291.125 149.094 293.188L146.5 295.86V295.954H151.891V297.204H144.547ZM153.406 294.891V293.735L158.5 285.891H160.234V293.657H161.812V294.891H160.234V297.204H158.891V294.891H153.406ZM154.922 293.657H158.891V287.672H158.75L154.922 293.563V293.657ZM164.641 295.704C164.094 295.704 163.625 295.25 163.641 294.688C163.625 294.141 164.094 293.688 164.641 293.688C165.188 293.688 165.641 294.141 165.641 294.688C165.641 295.25 165.188 295.704 164.641 295.704ZM164.641 289.422C164.094 289.422 163.625 288.969 163.641 288.407C163.625 287.86 164.094 287.407 164.641 287.407C165.188 287.407 165.641 287.86 165.641 288.407C165.641 288.969 165.188 289.422 164.641 289.422ZM171.438 297.36C168.922 297.36 167.484 295.25 167.484 291.547C167.484 287.875 168.953 285.735 171.438 285.735C173.922 285.735 175.391 287.875 175.391 291.547C175.391 295.25 173.938 297.36 171.438 297.36ZM171.438 296.11C173.062 296.11 174.016 294.469 174.016 291.547C174.016 288.625 173.062 286.954 171.438 286.954C169.812 286.954 168.844 288.625 168.844 291.547C168.844 294.469 169.797 296.11 171.438 296.11ZM180.969 297.36C178.453 297.36 177.016 295.25 177.016 291.547C177.016 287.875 178.484 285.735 180.969 285.735C183.453 285.735 184.922 287.875 184.922 291.547C184.922 295.25 183.469 297.36 180.969 297.36ZM180.969 296.11C182.594 296.11 183.547 294.469 183.547 291.547C183.547 288.625 182.594 286.954 180.969 286.954C179.344 286.954 178.375 288.625 178.375 291.547C178.375 294.469 179.328 296.11 180.969 296.11Z" fill="#AEAEB2"/>
<path d="M96.2656 297.36C93.75 297.36 92.3125 295.25 92.3125 291.547C92.3125 287.875 93.7812 285.735 96.2656 285.735C98.75 285.735 100.219 287.875 100.219 291.547C100.219 295.25 98.7656 297.36 96.2656 297.36ZM96.2656 296.11C97.8906 296.11 98.8438 294.469 98.8438 291.547C98.8438 288.625 97.8906 286.954 96.2656 286.954C94.6406 286.954 93.6719 288.625 93.6719 291.547C93.6719 294.469 94.625 296.11 96.2656 296.11ZM106.031 297.36C104.062 297.329 101.906 296.172 101.906 291.985C101.906 287.985 103.547 285.735 106.203 285.735C108.188 285.735 109.578 286.954 109.875 288.735H108.484C108.219 287.735 107.469 286.985 106.203 286.985C104.344 286.985 103.234 288.579 103.234 291.297H103.375C104.031 290.36 105.062 289.797 106.281 289.797C108.297 289.797 109.969 291.36 109.969 293.547C109.969 295.672 108.406 297.375 106.031 297.36ZM106.031 296.125C107.5 296.125 108.594 294.969 108.609 293.563C108.594 292.172 107.547 291.032 106.062 291.032C104.578 291.032 103.438 292.235 103.422 293.579C103.422 294.907 104.516 296.125 106.031 296.125ZM112.875 295.704C112.328 295.704 111.859 295.25 111.875 294.688C111.859 294.141 112.328 293.688 112.875 293.688C113.422 293.688 113.875 294.141 113.875 294.688C113.875 295.25 113.422 295.704 112.875 295.704ZM112.875 289.422C112.328 289.422 111.859 288.969 111.875 288.407C111.859 287.86 112.328 287.407 112.875 287.407C113.422 287.407 113.875 287.86 113.875 288.407C113.875 288.969 113.422 289.422 112.875 289.422ZM119.672 297.36C117.156 297.36 115.719 295.25 115.719 291.547C115.719 287.875 117.188 285.735 119.672 285.735C122.156 285.735 123.625 287.875 123.625 291.547C123.625 295.25 122.172 297.36 119.672 297.36ZM119.672 296.11C121.297 296.11 122.25 294.469 122.25 291.547C122.25 288.625 121.297 286.954 119.672 286.954C118.047 286.954 117.078 288.625 117.078 291.547C117.078 294.469 118.031 296.11 119.672 296.11ZM129.203 297.36C126.688 297.36 125.25 295.25 125.25 291.547C125.25 287.875 126.719 285.735 129.203 285.735C131.688 285.735 133.156 287.875 133.156 291.547C133.156 295.25 131.703 297.36 129.203 297.36ZM129.203 296.11C130.828 296.11 131.781 294.469 131.781 291.547C131.781 288.625 130.828 286.954 129.203 286.954C127.578 286.954 126.609 288.625 126.609 291.547C126.609 294.469 127.562 296.11 129.203 296.11ZM135.484 291.375C135.984 290.797 136.609 290.485 137.297 290.485C138.484 290.485 139.562 291.391 140.703 291.391C141.406 291.391 142.016 291.047 142.484 290.407V291.704C141.969 292.297 141.359 292.594 140.672 292.594C139.484 292.594 138.406 291.688 137.25 291.688C136.562 291.688 135.953 292.032 135.484 292.672V291.375ZM144.547 297.204L144.531 296.172L148.391 292.11C149.734 290.688 150.375 289.922 150.375 288.875C150.375 287.719 149.391 286.954 148.125 286.954C146.781 286.954 145.922 287.813 145.922 289.079H144.594C144.578 287.079 146.125 285.735 148.172 285.735C150.219 285.735 151.688 287.11 151.688 288.875C151.688 290.141 151.094 291.125 149.094 293.188L146.5 295.86V295.954H151.891V297.204H144.547ZM153.406 294.891V293.735L158.5 285.891H160.234V293.657H161.812V294.891H160.234V297.204H158.891V294.891H153.406ZM154.922 293.657H158.891V287.672H158.75L154.922 293.563V293.657ZM164.641 295.704C164.094 295.704 163.625 295.25 163.641 294.688C163.625 294.141 164.094 293.688 164.641 293.688C165.188 293.688 165.641 294.141 165.641 294.688C165.641 295.25 165.188 295.704 164.641 295.704ZM164.641 289.422C164.094 289.422 163.625 288.969 163.641 288.407C163.625 287.86 164.094 287.407 164.641 287.407C165.188 287.407 165.641 287.86 165.641 288.407C165.641 288.969 165.188 289.422 164.641 289.422ZM171.438 297.36C168.922 297.36 167.484 295.25 167.484 291.547C167.484 287.875 168.953 285.735 171.438 285.735C173.922 285.735 175.391 287.875 175.391 291.547C175.391 295.25 173.938 297.36 171.438 297.36ZM171.438 296.11C173.062 296.11 174.016 294.469 174.016 291.547C174.016 288.625 173.062 286.954 171.438 286.954C169.812 286.954 168.844 288.625 168.844 291.547C168.844 294.469 169.797 296.11 171.438 296.11ZM180.969 297.36C178.453 297.36 177.016 295.25 177.016 291.547C177.016 287.875 178.484 285.735 180.969 285.735C183.453 285.735 184.922 287.875 184.922 291.547C184.922 295.25 183.469 297.36 180.969 297.36ZM180.969 296.11C182.594 296.11 183.547 294.469 183.547 291.547C183.547 288.625 182.594 286.954 180.969 286.954C179.344 286.954 178.375 288.625 178.375 291.547C178.375 294.469 179.328 296.11 180.969 296.11Z" fill="black"/>
<rect x="221" y="275.704" width="32" height="32" rx="9.5" stroke="#E0E0E0"/>
<rect x="221" y="275.704" width="32" height="32" rx="9.5" stroke="black"/>
<path d="M229.5 291.704L234.5 296.704L244.5 286.704" stroke="black" stroke-width="2" stroke-linecap="round" stroke-linejoin="round"/>
<path d="M269.92 289.555V291.788H276.371V292.93H262.133V291.788H268.566V289.555H269.92ZM269.252 294.213C272.609 294.213 274.613 295.163 274.631 296.903C274.613 298.643 272.609 299.592 269.252 299.592C265.859 299.592 263.855 298.643 263.855 296.903C263.855 295.163 265.859 294.213 269.252 294.213ZM269.252 295.303C266.721 295.303 265.244 295.883 265.262 296.903C265.244 297.922 266.721 298.52 269.252 298.52C271.748 298.52 273.242 297.922 273.242 296.903C273.242 295.883 271.748 295.303 269.252 295.303ZM275.105 284.739V285.864H270.148C270.236 287.604 272.855 288.949 275.58 289.239L275.07 290.329C272.513 290.021 270.113 288.905 269.252 287.165C268.399 288.905 266.009 290.021 263.434 290.329L262.924 289.239C265.648 288.949 268.25 287.622 268.355 285.864H263.434V284.739H275.105ZM282.119 284.581C284.457 284.598 286.162 286.004 286.162 288.043C286.162 290.083 284.457 291.489 282.119 291.489C279.746 291.489 278.059 290.083 278.059 288.043C278.059 286.004 279.746 284.598 282.119 284.581ZM282.119 285.741C280.555 285.741 279.395 286.69 279.412 288.043C279.395 289.415 280.555 290.364 282.119 290.364C283.666 290.364 284.826 289.415 284.826 288.043C284.826 286.69 283.666 285.741 282.119 285.741ZM290.592 284V292.034H289.221V284H290.592ZM290.592 292.79V296.551H281.82V298.309H291.154V299.417H280.467V295.514H289.221V293.897H280.432V292.79H290.592Z" fill="black"/>
<path d="M47.071 348.704C47.071 350.629 47.6341 352.377 48.7604 353.948C49.8867 355.52 51.3777 356.651 53.2334 357.344C53.4226 357.414 53.5611 357.525 53.6488 357.678C53.7366 357.831 53.7382 357.976 53.6537 358.113C53.5546 358.27 53.413 358.374 53.2286 358.424C53.0442 358.473 52.8627 358.466 52.684 358.4C50.6109 357.618 48.952 356.343 47.7074 354.573C46.4627 352.804 45.84 350.841 45.8392 348.682C45.8392 348.071 45.8939 347.465 46.0034 346.866C46.1129 346.267 46.282 345.679 46.5106 345.102L44.3997 346.28C44.2572 346.366 44.1063 346.387 43.9468 346.344C43.7874 346.301 43.6659 346.211 43.5821 346.073C43.4984 345.935 43.4787 345.788 43.523 345.631C43.5673 345.475 43.6606 345.356 43.8031 345.275L47.1543 343.41C47.3894 343.285 47.6381 343.254 47.9006 343.319C48.163 343.384 48.3595 343.531 48.4899 343.758L50.4161 346.972C50.4998 347.109 50.5199 347.257 50.4764 347.413C50.4322 347.57 50.3388 347.689 50.1963 347.77C50.0538 347.851 49.9016 347.87 49.7398 347.827C49.578 347.784 49.4552 347.694 49.3715 347.556L47.8583 345.046C47.5902 345.622 47.3918 346.218 47.263 346.834C47.1342 347.451 47.0697 348.075 47.0697 348.703M56.6848 339.373C55.5963 339.373 54.5453 339.55 53.5317 339.905C52.5181 340.259 51.5866 340.766 50.7373 341.424C50.5899 341.534 50.4277 341.584 50.2506 341.573C50.0735 341.562 49.9431 341.488 49.8593 341.35C49.7555 341.188 49.7309 341.018 49.7857 340.838C49.8404 340.659 49.9431 340.512 50.0936 340.397C51.046 339.681 52.0785 339.136 53.1912 338.763C54.3038 338.39 55.4607 338.204 56.6618 338.204C58.2366 338.204 59.726 338.51 61.13 339.122C62.5357 339.734 63.7578 340.615 64.7964 341.765V339.328C64.7964 339.161 64.8543 339.022 64.9702 338.911C65.0862 338.799 65.2295 338.743 65.4002 338.743C65.5708 338.743 65.7145 338.799 65.8313 338.911C65.948 339.022 66.0056 339.161 66.004 339.328V343.057C66.004 343.328 65.9114 343.554 65.7262 343.733C65.541 343.912 65.3088 344.001 65.0294 344.001H61.1735C61.002 344.001 60.8587 343.946 60.7436 343.834C60.6285 343.723 60.5705 343.584 60.5697 343.417C60.5689 343.251 60.6269 343.111 60.7436 343C60.8603 342.889 61.0036 342.833 61.1735 342.833H64.1624C63.2526 341.723 62.1436 340.869 60.8354 340.271C59.5271 339.672 58.1436 339.372 56.6848 339.371M63.8979 354.86C64.8801 353.779 65.5604 352.557 65.9388 351.196C66.3179 349.834 66.3683 348.453 66.0897 347.053C66.0591 346.873 66.0937 346.708 66.1936 346.559C66.2934 346.41 66.4295 346.336 66.6017 346.337C66.8038 346.337 66.9705 346.411 67.1017 346.559C67.2329 346.707 67.3138 346.88 67.3444 347.077C67.6077 348.552 67.5368 350.01 67.1319 351.45C66.7269 352.891 66.0237 354.192 65.0222 355.354C64.2211 356.292 63.2824 357.068 62.206 357.684C61.1288 358.299 59.9719 358.723 58.7353 358.954L60.8245 360.118C60.9678 360.199 61.0604 360.318 61.1023 360.474C61.1441 360.63 61.1232 360.777 61.0395 360.916C60.9557 361.054 60.8342 361.143 60.6748 361.183C60.5153 361.224 60.3644 361.204 60.2219 361.123L56.8865 359.234C56.6514 359.109 56.5 358.919 56.4324 358.665C56.3656 358.411 56.397 358.171 56.5266 357.943L58.4552 354.745C58.5381 354.607 58.6592 354.518 58.8186 354.478C58.9789 354.437 59.1298 354.457 59.2715 354.538C59.414 354.619 59.5074 354.738 59.5517 354.895C59.5959 355.051 59.5762 355.199 59.4925 355.336L57.9105 357.94C59.0739 357.784 60.1712 357.446 61.2025 356.926C62.2338 356.405 63.1323 355.717 63.8979 354.86Z" fill="black"/>
<rect x="78" y="331.204" width="122" height="37" rx="9.5" fill="#F4F4F4"/>
<rect x="78" y="331.204" width="122" height="37" rx="9.5" fill="white"/>
<rect x="78" y="331.204" width="122" height="37" rx="9.5" stroke="#E8E8E8"/>
<path d="M103.969 342.579V356.469H102.781V349.11H100.844V355.766H99.6719V342.875H100.844V348.094H102.781V342.579H103.969ZM97.8906 344.204V352.735H92.5781V344.204H97.8906ZM93.7344 345.188V351.75H96.7344V345.188H93.7344ZM112.906 344.547C112.891 346.407 115.375 347.985 117.797 348.344L117.344 349.313C115.172 348.946 113.062 347.79 112.219 346.11C111.375 347.79 109.258 348.946 107.125 349.313L106.641 348.344C109.047 347.985 111.531 346.407 111.531 344.547V344.454H107.078V343.454H117.344V344.454H112.906V344.547ZM118.547 350.5V351.516H112.797V356.469H111.594V351.516H105.891V350.5H118.547Z" fill="#AEAEB2"/>
<path d="M103.969 342.579V356.469H102.781V349.11H100.844V355.766H99.6719V342.875H100.844V348.094H102.781V342.579H103.969ZM97.8906 344.204V352.735H92.5781V344.204H97.8906ZM93.7344 345.188V351.75H96.7344V345.188H93.7344ZM112.906 344.547C112.891 346.407 115.375 347.985 117.797 348.344L117.344 349.313C115.172 348.946 113.062 347.79 112.219 346.11C111.375 347.79 109.258 348.946 107.125 349.313L106.641 348.344C109.047 347.985 111.531 346.407 111.531 344.547V344.454H107.078V343.454H117.344V344.454H112.906V344.547ZM118.547 350.5V351.516H112.797V356.469H111.594V351.516H105.891V350.5H118.547Z" fill="black"/>
<circle cx="59.5" cy="407.704" r="19" fill="white"/>
<path d="M64.6016 400.523V408.71H63.3672V407.945H60.5547V407.132H63.3672V400.523H64.6016ZM53.1016 405.757C55.7891 405.773 59.2266 405.741 62.2266 405.413L62.3047 406.21C60.9453 406.406 59.5313 406.523 58.1485 406.585V408.757H56.9453V406.632C55.6328 406.679 54.375 406.687 53.2422 406.679L53.1016 405.757ZM64.6016 409.21V412.085H56.4922V413.335H65.0547V414.241H55.2891V411.226H63.3828V410.101H55.2266V409.21H64.6016ZM57.6328 400.788C59.6953 400.788 61.0703 401.601 61.086 402.882C61.0703 404.179 59.6953 404.96 57.6328 404.96C55.5391 404.96 54.1797 404.179 54.1797 402.882C54.1797 401.601 55.5391 400.788 57.6328 400.788ZM57.6328 401.648C56.2266 401.648 55.3203 402.132 55.336 402.882C55.3203 403.616 56.2266 404.116 57.6328 404.116C59.0235 404.116 59.9297 403.616 59.9297 402.882C59.9297 402.132 59.0235 401.648 57.6328 401.648Z" fill="white"/>
<path d="M64.6016 400.523V408.71H63.3672V407.945H60.5547V407.132H63.3672V400.523H64.6016ZM53.1016 405.757C55.7891 405.773 59.2266 405.741 62.2266 405.413L62.3047 406.21C60.9453 406.406 59.5313 406.523 58.1485 406.585V408.757H56.9453V406.632C55.6328 406.679 54.375 406.687 53.2422 406.679L53.1016 405.757ZM64.6016 409.21V412.085H56.4922V413.335H65.0547V414.241H55.2891V411.226H63.3828V410.101H55.2266V409.21H64.6016ZM57.6328 400.788C59.6953 400.788 61.0703 401.601 61.086 402.882C61.0703 404.179 59.6953 404.96 57.6328 404.96C55.5391 404.96 54.1797 404.179 54.1797 402.882C54.1797 401.601 55.5391 400.788 57.6328 400.788ZM57.6328 401.648C56.2266 401.648 55.3203 402.132 55.336 402.882C55.3203 403.616 56.2266 404.116 57.6328 404.116C59.0235 404.116 59.9297 403.616 59.9297 402.882C59.9297 402.132 59.0235 401.648 57.6328 401.648Z" fill="black"/>
<circle cx="107.5" cy="407.704" r="19" fill="white"/>
<path d="M111.93 400.507V406.429H114.148V407.46H111.93V414.398H110.695V400.507H111.93ZM100.977 410.695C102.109 410.695 103.43 410.695 104.805 410.648V409.101C103.188 408.921 102.133 407.976 102.148 406.601C102.133 405.038 103.461 404.023 105.43 404.023C107.367 404.023 108.711 405.038 108.727 406.601C108.711 407.976 107.641 408.921 106.039 409.116V410.601C107.336 410.538 108.641 410.437 109.852 410.257L109.93 411.195C106.898 411.71 103.617 411.741 101.18 411.741L100.977 410.695ZM109.602 402.21V403.21H101.227V402.21H104.805V400.538H106.039V402.21H109.602ZM105.43 404.976C104.148 404.976 103.289 405.632 103.289 406.601C103.289 407.57 104.148 408.195 105.43 408.179C106.695 408.195 107.555 407.57 107.555 406.601C107.555 405.632 106.695 404.976 105.43 404.976Z" fill="white"/>
<path d="M111.93 400.507V406.429H114.148V407.46H111.93V414.398H110.695V400.507H111.93ZM100.977 410.695C102.109 410.695 103.43 410.695 104.805 410.648V409.101C103.188 408.921 102.133 407.976 102.148 406.601C102.133 405.038 103.461 404.023 105.43 404.023C107.367 404.023 108.711 405.038 108.727 406.601C108.711 407.976 107.641 408.921 106.039 409.116V410.601C107.336 410.538 108.641 410.437 109.852 410.257L109.93 411.195C106.898 411.71 103.617 411.741 101.18 411.741L100.977 410.695ZM109.602 402.21V403.21H101.227V402.21H104.805V400.538H106.039V402.21H109.602ZM105.43 404.976C104.148 404.976 103.289 405.632 103.289 406.601C103.289 407.57 104.148 408.195 105.43 408.179C106.695 408.195 107.555 407.57 107.555 406.601C107.555 405.632 106.695 404.976 105.43 404.976Z" fill="black"/>
<circle cx="155.5" cy="407.704" r="19" fill="black"/>
<path d="M156.117 401.804C156.117 403.757 158.68 405.46 161.18 405.804L160.68 406.804C158.523 406.445 156.391 405.249 155.492 403.538C154.602 405.257 152.461 406.445 150.305 406.804L149.805 405.804C152.305 405.46 154.852 403.788 154.852 401.804V401.007H156.117V401.804ZM161.805 408.335V409.366H156.055V414.398H154.852V409.366H149.148V408.335H161.805Z" fill="white"/>
<circle cx="203.5" cy="407.704" r="19" fill="white"/>
<path d="M208.195 401.101V405.788H204.086V407.57H209.805V408.57H197.148V407.57H202.867V405.788H198.789V401.101H208.195ZM199.992 402.085V404.804H206.977V402.085H199.992ZM208.242 410.023V414.398H207.008V411.007H198.555V410.023H208.242Z" fill="white"/>
<path d="M208.195 401.101V405.788H204.086V407.57H209.805V408.57H197.148V407.57H202.867V405.788H198.789V401.101H208.195ZM199.992 402.085V404.804H206.977V402.085H199.992ZM208.242 410.023V414.398H207.008V411.007H198.555V410.023H208.242Z" fill="black"/>
<circle cx="251.5" cy="407.704" r="19" fill="white"/>
<path d="M256.195 401.257V402.288C256.195 403.366 256.195 404.632 255.836 406.366H257.867V407.382H245.148V406.366H254.602C254.977 404.624 254.977 403.366 254.977 402.288V402.273H246.758V401.257H256.195ZM256.258 409.304V414.21H246.711V409.304H256.258ZM247.93 410.273V413.21H255.039V410.273H247.93Z" fill="white"/>
<path d="M256.195 401.257V402.288C256.195 403.366 256.195 404.632 255.836 406.366H257.867V407.382H245.148V406.366H254.602C254.977 404.624 254.977 403.366 254.977 402.288V402.273H246.758V401.257H256.195ZM256.258 409.304V414.21H246.711V409.304H256.258ZM247.93 410.273V413.21H255.039V410.273H247.93Z" fill="black"/>
<circle cx="299.5" cy="407.704" r="19" fill="black"/>
<path d="M304.398 407.741V408.741H300.086V411.648H305.867V412.663H293.148V411.648H298.867V408.741H294.789V401.648H304.242V402.663H296.039V404.648H303.945V405.648H296.039V407.741H304.398Z" fill="white"/>
<circle cx="347.5" cy="407.704" r="19" fill="white"/>
<path d="M345.086 401.023C347.164 401.038 348.68 402.288 348.68 404.101C348.68 405.913 347.164 407.163 345.086 407.163C342.977 407.163 341.477 405.913 341.477 404.101C341.477 402.288 342.977 401.038 345.086 401.023ZM345.086 402.054C343.695 402.054 342.664 402.898 342.68 404.101C342.664 405.32 343.695 406.163 345.086 406.163C346.461 406.163 347.492 405.32 347.492 404.101C347.492 402.898 346.461 402.054 345.086 402.054ZM352.617 400.507V407.648H351.398V400.507H352.617ZM352.617 408.32V411.663H344.82V413.226H353.117V414.21H343.617V410.741H351.398V409.304H343.586V408.32H352.617Z" fill="white"/>
<path d="M345.086 401.023C347.164 401.038 348.68 402.288 348.68 404.101C348.68 405.913 347.164 407.163 345.086 407.163C342.977 407.163 341.477 405.913 341.477 404.101C341.477 402.288 342.977 401.038 345.086 401.023ZM345.086 402.054C343.695 402.054 342.664 402.898 342.68 404.101C342.664 405.32 343.695 406.163 345.086 406.163C346.461 406.163 347.492 405.32 347.492 404.101C347.492 402.898 346.461 402.054 345.086 402.054ZM352.617 400.507V407.648H351.398V400.507H352.617ZM352.617 408.32V411.663H344.82V413.226H353.117V414.21H343.617V410.741H351.398V409.304H343.586V408.32H352.617Z" fill="black"/>
<rect x="40.5" y="467.704" width="326" height="40" rx="10" fill="black"/>
<path d="M187.416 487.243V488.842H172.914V487.243H187.416ZM185.746 484.43V485.995H174.689V480.387H185.658V481.969H176.641V484.43H185.746ZM180.139 489.95C183.566 489.932 185.623 490.987 185.641 492.833C185.623 494.696 183.566 495.75 180.139 495.75C176.676 495.75 174.602 494.696 174.602 492.833C174.602 490.987 176.676 489.932 180.139 489.95ZM180.139 491.444C177.818 491.444 176.57 491.936 176.588 492.833C176.57 493.764 177.818 494.239 180.139 494.239C182.406 494.239 183.672 493.764 183.689 492.833C183.672 491.936 182.406 491.444 180.139 491.444ZM202.973 488.473V490.055H188.453V488.473H194.746V487.155H190.299V482.936H199.229V481.758H190.246V480.229H201.18V484.36H192.232V485.625H201.496V487.155H196.68V488.473H202.973ZM201.268 491.057V495.663H199.299V492.604H190.07V491.057H201.268ZM216.473 479.877V486.206H218.916V487.823H216.473V495.768H214.539V479.877H216.473ZM213.309 482.321V483.885H203.939V482.321H207.701V480.106H209.652V482.321H213.309ZM208.686 484.922C210.971 484.922 212.676 486.469 212.676 488.667C212.676 490.864 210.971 492.393 208.686 492.393C206.365 492.393 204.66 490.864 204.678 488.667C204.66 486.469 206.365 484.922 208.686 484.922ZM208.686 486.522C207.438 486.522 206.541 487.366 206.541 488.667C206.541 489.967 207.438 490.793 208.686 490.776C209.898 490.793 210.795 489.967 210.812 488.667C210.795 487.366 209.898 486.522 208.686 486.522ZM232.855 479.877V495.768H230.887V479.877H232.855ZM228.109 481.565C228.109 486.293 226.281 490.319 220.709 492.956L219.689 491.391C223.847 489.414 225.78 486.724 226.123 483.112H220.498V481.565H228.109Z" fill="white"/>
</g>
<defs>
<filter id="filter0_d_446_15935" x="0.5" y="0.703613" width="406" height="555" filterUnits="userSpaceOnUse" color-interpolation-filters="sRGB">
<feFlood flood-opacity="0" result="BackgroundImageFix"/>
<feColorMatrix in="SourceAlpha" type="matrix" values="0 0 0 0 0 0 0 0 0 0 0 0 0 0 0 0 0 0 127 0" result="hardAlpha"/>
<feOffset dy="3"/>
<feGaussianBlur stdDeviation="2.5"/>
<feComposite in2="hardAlpha" operator="out"/>
<feColorMatrix type="matrix" values="0 0 0 0 0 0 0 0 0 0 0 0 0 0 0 0 0 0 0.2 0"/>
<feBlend mode="normal" in2="BackgroundImageFix" result="effect1_dropShadow_446_15935"/>
<feBlend mode="normal" in="SourceGraphic" in2="effect1_dropShadow_446_15935" result="shape"/>
</filter>
</defs>
</svg>
