<svg width="406" height="179" viewBox="0 0 406 179" fill="none" xmlns="http://www.w3.org/2000/svg">
<path d="M47.5732 41.5465C47.5732 42.3132 47.3399 43.0132 46.8732 43.6465C46.4399 44.2465 45.6232 44.5465 44.4232 44.5465H24.2732C24.0399 44.5465 23.9065 44.5965 23.8732 44.6965C23.8399 44.7965 23.8232 44.9132 23.8232 45.0465V47.0965C23.8232 47.2298 23.8399 47.3465 23.8732 47.4465C23.9065 47.5465 24.0399 47.5965 24.2732 47.5965H46.9732C48.2399 47.5965 48.8565 48.4298 48.8232 50.0965C48.8232 51.7965 48.2065 52.6465 46.9732 52.6465H21.0232C19.8232 52.6465 18.9899 52.3298 18.5232 51.6965C18.0899 51.0965 17.8732 50.4132 17.8732 49.6465V42.4965C17.8732 41.7298 18.0899 41.0465 18.5232 40.4465C18.9899 39.8132 19.8232 39.4965 21.0232 39.4965H41.1732C41.4065 39.4965 41.5399 39.4465 41.5732 39.3465C41.6065 39.2465 41.6232 39.1298 41.6232 38.9965V36.9465C41.6232 36.8132 41.6065 36.6965 41.5732 36.5965C41.5399 36.4965 41.4065 36.4465 41.1732 36.4465H19.4732C18.2399 36.4465 17.6065 35.6132 17.5732 33.9465C17.5732 32.2465 18.2065 31.3965 19.4732 31.3965H44.4232C45.6232 31.3965 46.4399 31.7132 46.8732 32.3465C47.3399 32.9465 47.5732 33.6298 47.5732 34.3965V41.5465ZM23.6232 17.8465C23.6232 20.2798 22.5399 23.6798 20.3732 28.0465C18.2065 32.4132 13.4232 35.9298 6.02319 38.5965C4.18986 39.2632 2.90653 38.8132 2.17319 37.2465C1.47319 35.6798 1.78986 34.6632 3.12319 34.1965C6.85653 32.8632 10.2065 30.6965 13.1732 27.6965C14.3065 26.5965 15.2232 25.4298 15.9232 24.1965H3.17319C1.93986 24.1965 1.30653 23.3632 1.27319 21.6965C1.27319 19.9965 1.90653 19.1465 3.17319 19.1465H17.5732C17.6399 18.7132 17.6732 18.2632 17.6732 17.7965V14.4965C17.6732 14.3632 17.6565 14.2465 17.6232 14.1465C17.5899 14.0465 17.4565 13.9965 17.2232 13.9965H4.87319C3.63986 13.9965 3.00653 13.1632 2.97319 11.4965C2.97319 9.79651 3.60653 8.94651 4.87319 8.94651H20.4732C21.6732 8.94651 22.4899 9.26317 22.9232 9.89651C23.3899 10.4965 23.6232 11.1798 23.6232 11.9465V17.8465ZM33.9232 27.8965C33.9232 29.4965 32.9232 30.2965 30.9232 30.2965C28.9565 30.2965 27.9732 29.4965 27.9732 27.8965V10.2465C27.9732 8.64651 28.9565 7.84651 30.9232 7.84651C32.9232 7.84651 33.9232 8.64651 33.9232 10.2465V16.4465H36.8732C37.3732 16.4465 37.7732 16.5798 38.0732 16.8465V10.2465C38.0732 8.64651 39.0565 7.84651 41.0232 7.84651C43.0232 7.84651 44.0232 8.64651 44.0232 10.2465V27.8965C44.0232 29.4965 43.0232 30.2965 41.0232 30.2965C39.0565 30.2965 38.0732 29.4965 38.0732 27.8965V21.0965C37.7732 21.3632 37.3732 21.4965 36.8732 21.4965H33.9232V27.8965ZM69.8732 51.4965C68.6732 51.4965 67.8399 51.1798 67.3732 50.5465C66.9399 49.9465 66.7232 49.2632 66.7232 48.4965V36.1465C66.7232 34.5465 67.7065 33.7465 69.6732 33.7465C71.6732 33.7465 72.6732 34.5465 72.6732 36.1465V45.9465C72.6732 46.0798 72.6899 46.1965 72.7232 46.2965C72.7565 46.3965 72.8899 46.4465 73.1232 46.4465H94.1232C95.3565 46.4465 95.9732 47.2965 95.9732 48.9965C96.0065 50.6632 95.3899 51.4965 94.1232 51.4965H69.8732ZM91.6232 36.1465C91.6232 37.7465 90.6232 38.5465 88.6232 38.5465C86.6565 38.5465 85.6732 37.7465 85.6732 36.1465V10.2465C85.6732 8.64651 86.6565 7.84651 88.6232 7.84651C90.6232 7.84651 91.6232 8.64651 91.6232 10.2465V36.1465ZM76.9732 23.2465C76.9732 24.0132 76.7399 24.7132 76.2732 25.3465C75.8399 25.9465 75.0232 26.2465 73.8232 26.2465H60.0232C59.7899 26.2465 59.6565 26.2965 59.6232 26.3965C59.5899 26.4965 59.5732 26.6132 59.5732 26.7465V33.1965C59.5732 33.3298 59.5899 33.4465 59.6232 33.5465C59.6565 33.6465 59.7899 33.6965 60.0232 33.6965H64.4232C65.6899 33.6965 66.3065 34.5465 66.2732 36.2465C66.2732 37.9132 65.6565 38.7465 64.4232 38.7465H56.7732C55.5732 38.7465 54.7399 38.4465 54.2732 37.8465C53.8399 37.2132 53.6232 36.5132 53.6232 35.7465V24.1965C53.6232 23.4298 53.8399 22.7465 54.2732 22.1465C54.7399 21.5132 55.5732 21.1965 56.7732 21.1965H70.5732C70.8065 21.1965 70.9399 21.1465 70.9732 21.0465C71.0065 20.9465 71.0232 20.8298 71.0232 20.6965V14.4965C71.0232 14.3632 71.0065 14.2465 70.9732 14.1465C70.9399 14.0465 70.8065 13.9965 70.5732 13.9965H55.5232C54.2899 13.9965 53.6565 13.1632 53.6232 11.4965C53.6232 9.79651 54.2565 8.94651 55.5232 8.94651H73.8232C75.0232 8.94651 75.8399 9.26317 76.2732 9.89651C76.7399 10.4965 76.9732 11.1798 76.9732 11.9465V23.2465ZM132.032 23.6965C132.032 24.7632 131.648 25.6798 130.882 26.4465C130.148 27.1798 129.248 27.5465 128.182 27.5465C127.115 27.5465 126.198 27.1798 125.432 26.4465C124.698 25.6798 124.332 24.7632 124.332 23.6965C124.332 22.6298 124.698 21.7298 125.432 20.9965C126.198 20.2298 127.115 19.8465 128.182 19.8465C129.248 19.8465 130.148 20.2298 130.882 20.9965C131.648 21.7298 132.032 22.6298 132.032 23.6965ZM139.182 47.9465C139.182 49.5465 138.182 50.3465 136.182 50.3465C134.215 50.3465 133.232 49.5465 133.232 47.9465V10.2465C133.232 8.64651 134.215 7.84651 136.182 7.84651C138.182 7.84651 139.182 8.64651 139.182 10.2465V47.9465ZM101.182 11.9465C101.182 11.1798 101.398 10.4965 101.832 9.89651C102.298 9.26317 103.132 8.94651 104.332 8.94651H122.032C123.298 8.94651 123.915 9.79651 123.882 11.4965C123.882 13.1632 123.265 13.9965 122.032 13.9965H107.582C107.348 13.9965 107.215 14.0465 107.182 14.1465C107.148 14.2465 107.132 14.3632 107.132 14.4965V37.5465C107.132 37.6798 107.165 37.7965 107.232 37.8965C107.332 37.9965 107.448 38.0465 107.582 38.0465C109.448 38.1132 112.315 37.6132 116.182 36.5465C120.082 35.4798 123.148 34.3298 125.382 33.0965C126.882 32.2632 127.965 32.7132 128.632 34.4465C129.332 36.1798 128.882 37.4298 127.282 38.1965C125.115 39.2298 121.948 40.3965 117.782 41.6965C113.648 42.9632 109.165 43.6798 104.332 43.8465C103.498 43.8798 102.765 43.5798 102.132 42.9465C101.498 42.3132 101.182 41.6132 101.182 40.8465V11.9465ZM179.24 47.9465C179.24 49.5465 178.24 50.3465 176.24 50.3465C174.274 50.3465 173.29 49.5465 173.29 47.9465V27.8965H169.54C169.34 31.9965 168.44 35.5798 166.84 38.6465C165.007 42.1465 162.274 43.8965 158.64 43.8965C154.94 43.8965 152.174 42.1632 150.34 38.6965C148.507 35.2298 147.59 31.0465 147.59 26.1465C147.59 21.2465 148.507 17.0632 150.34 13.5965C152.174 10.1298 154.94 8.39651 158.64 8.39651C162.274 8.39651 165.007 10.1465 166.84 13.6465C168.24 16.3132 169.107 19.3798 169.44 22.8465H169.54H173.29V10.2465C173.29 8.64651 174.274 7.84651 176.24 7.84651C178.24 7.84651 179.24 8.64651 179.24 10.2465V47.9465ZM189.14 47.9465C189.14 49.5465 188.14 50.3465 186.14 50.3465C184.174 50.3465 183.19 49.5465 183.19 47.9465V10.2465C183.19 8.64651 184.174 7.84651 186.14 7.84651C188.14 7.84651 189.14 8.64651 189.14 10.2465V47.9465ZM163.69 26.1465C163.69 22.5798 163.307 19.5798 162.54 17.1465C161.807 14.6798 160.507 13.4465 158.64 13.4465C156.707 13.4465 155.374 14.6798 154.64 17.1465C153.907 19.5798 153.54 22.5798 153.54 26.1465C153.54 29.7132 153.924 32.7298 154.69 35.1965C155.457 37.6298 156.774 38.8465 158.64 38.8465C160.474 38.8465 161.774 37.6298 162.54 35.1965C163.307 32.7298 163.69 29.7132 163.69 26.1465ZM224.721 39.9465C225.254 41.4798 224.588 42.5632 222.721 43.1965C220.854 43.8298 219.654 43.3798 219.121 41.8465L209.771 13.7465L200.421 41.8465C199.888 43.3798 198.688 43.8298 196.821 43.1965C194.954 42.5632 194.288 41.4798 194.821 39.9465L204.621 10.4465C205.154 8.91317 206.354 8.47984 208.221 9.14651C208.888 9.41317 209.388 9.71317 209.721 10.0465C210.088 9.71317 210.621 9.41317 211.321 9.14651C213.188 8.47984 214.388 8.91317 214.921 10.4465L224.721 39.9465ZM235.471 47.9465C235.471 49.5465 234.471 50.3465 232.471 50.3465C230.504 50.3465 229.521 49.5465 229.521 47.9465V10.2465C229.521 8.64651 230.504 7.84651 232.471 7.84651C234.471 7.84651 235.471 8.64651 235.471 10.2465V47.9465ZM228.321 23.6965C228.321 24.7632 227.938 25.6798 227.171 26.4465C226.438 27.1798 225.538 27.5465 224.471 27.5465C223.404 27.5465 222.488 27.1798 221.721 26.4465C220.988 25.6798 220.621 24.7632 220.621 23.6965C220.621 22.6298 220.988 21.7298 221.721 20.9965C222.488 20.2298 223.404 19.8465 224.471 19.8465C225.538 19.8465 226.438 20.2298 227.171 20.9965C227.938 21.7298 228.321 22.6298 228.321 23.6965ZM47.5732 112.647C47.5732 114.247 46.5732 115.047 44.5732 115.047C42.6065 115.047 41.6232 114.247 41.6232 112.647V103.147C41.6232 103.013 41.6065 102.897 41.5732 102.797C41.5399 102.697 41.4065 102.647 41.1732 102.647H19.6732C18.4399 102.647 17.8065 101.813 17.7732 100.147C17.7732 98.4465 18.4065 97.5965 19.6732 97.5965H44.4232C45.6232 97.5965 46.4399 97.9132 46.8732 98.5465C47.3399 99.1465 47.5732 99.8298 47.5732 100.597V112.647ZM38.4732 94.1465C38.4732 95.7465 37.4732 96.5465 35.4732 96.5465C33.5065 96.5465 32.5232 95.7465 32.5232 94.1465V73.2465C32.5232 71.6465 33.5065 70.8465 35.4732 70.8465C37.4732 70.8465 38.4732 71.6465 38.4732 73.2465V94.1465ZM47.8232 88.1965C47.8232 89.2632 47.4399 90.1798 46.6732 90.9465C45.9399 91.6798 45.0399 92.0465 43.9732 92.0465C42.9065 92.0465 41.9899 91.6798 41.2232 90.9465C40.4899 90.1798 40.1232 89.2632 40.1232 88.1965C40.1232 87.1298 40.4899 86.2298 41.2232 85.4965C41.9899 84.7298 42.9065 84.3465 43.9732 84.3465C45.0399 84.3465 45.9399 84.7298 46.6732 85.4965C47.4399 86.2298 47.8232 87.1298 47.8232 88.1965ZM47.8232 78.1965C47.8232 79.2632 47.4399 80.1798 46.6732 80.9465C45.9399 81.6798 45.0399 82.0465 43.9732 82.0465C42.9065 82.0465 41.9899 81.6798 41.2232 80.9465C40.4899 80.1798 40.1232 79.2632 40.1232 78.1965C40.1232 77.1298 40.4899 76.2298 41.2232 75.4965C41.9899 74.7298 42.9065 74.3465 43.9732 74.3465C45.0399 74.3465 45.9399 74.7298 46.6732 75.4965C47.4399 76.2298 47.8232 77.1298 47.8232 78.1965ZM27.4732 84.3465C27.4732 87.8798 26.2565 90.9132 23.8232 93.4465C21.4232 95.9798 18.4899 97.2465 15.0232 97.2465C11.4899 97.2465 8.50653 95.9965 6.07319 93.4965C3.67319 90.9632 2.47319 87.9132 2.47319 84.3465C2.47319 80.7798 3.67319 77.7465 6.07319 75.2465C8.50653 72.7132 11.4899 71.4465 15.0232 71.4465C18.4899 71.4465 21.4232 72.7132 23.8232 75.2465C26.2565 77.7465 27.4732 80.7798 27.4732 84.3465ZM21.6232 84.3465C21.6232 82.1798 20.9732 80.3298 19.6732 78.7965C18.4065 77.2632 16.8565 76.4965 15.0232 76.4965C13.1899 76.4965 11.6232 77.2632 10.3232 78.7965C9.05653 80.3298 8.42319 82.1798 8.42319 84.3465C8.42319 86.5132 9.05653 88.3632 10.3232 89.8965C11.6232 91.4298 13.1899 92.1965 15.0232 92.1965C16.8565 92.1965 18.4065 91.4298 19.6732 89.8965C20.9732 88.3632 21.6232 86.5132 21.6232 84.3465ZM88.3732 83.9465C89.6399 84.9798 89.6065 86.1632 88.2732 87.4965C86.9399 88.7965 85.7065 88.9798 84.5732 88.0465L71.3732 77.0465L58.1732 88.0465C57.0399 88.9798 55.8065 88.7965 54.4732 87.4965C53.1732 86.1632 53.1399 84.9798 54.3732 83.9465L68.8232 71.8465C69.6565 71.1465 70.5065 71.0132 71.3732 71.4465C72.2065 71.0132 73.0565 71.1465 73.9232 71.8465L88.3732 83.9465ZM89.3232 112.647C89.3232 114.247 88.3232 115.047 86.3232 115.047C84.3565 115.047 83.3732 114.247 83.3732 112.647V104.547C83.3732 104.413 83.3565 104.297 83.3232 104.197C83.2899 104.097 83.1565 104.047 82.9232 104.047H61.2732C60.0399 104.047 59.4065 103.213 59.3732 101.547C59.3732 99.8465 60.0065 98.9965 61.2732 98.9965H86.1732C87.3732 98.9965 88.1899 99.3132 88.6232 99.9465C89.0899 100.547 89.3232 101.23 89.3232 101.997V112.647ZM74.4232 93.4965C74.4232 94.2632 74.1899 94.9632 73.7232 95.5965C73.2899 96.1965 72.4732 96.4965 71.2732 96.4965H52.6732C51.4065 96.4965 50.7732 95.6632 50.7732 93.9965C50.8065 92.2965 51.4399 91.4465 52.6732 91.4465H68.0232C68.2565 91.4465 68.3899 91.3965 68.4232 91.2965C68.4565 91.1965 68.4732 91.0798 68.4732 90.9465V85.2465C68.4732 83.6465 69.4565 82.8465 71.4232 82.8465C73.4232 82.8465 74.4232 83.6465 74.4232 85.2465V93.4965ZM126.195 80.7465C126.195 83.5798 125.045 86.0298 122.745 88.0965C120.445 90.1298 117.645 91.1465 114.345 91.1465C111.012 91.1465 108.179 90.1298 105.845 88.0965C103.545 86.0632 102.395 83.6132 102.395 80.7465C102.395 77.8798 103.545 75.4298 105.845 73.3965C108.179 71.3632 111.012 70.3465 114.345 70.3465C117.645 70.3465 120.445 71.3632 122.745 73.3965C125.045 75.4298 126.195 77.8798 126.195 80.7465ZM120.245 80.7465C120.245 79.2465 119.662 77.9798 118.495 76.9465C117.362 75.9132 115.979 75.3965 114.345 75.3965C112.712 75.3965 111.312 75.9132 110.145 76.9465C109.012 77.9798 108.445 79.2465 108.445 80.7465C108.445 82.2465 109.012 83.5132 110.145 84.5465C111.312 85.5798 112.712 86.0965 114.345 86.0965C115.979 86.0965 117.362 85.5798 118.495 84.5465C119.662 83.5132 120.245 82.2465 120.245 80.7465ZM132.095 107.097C132.095 107.863 131.862 108.563 131.395 109.197C130.962 109.797 130.145 110.097 128.945 110.097H108.795C108.562 110.097 108.429 110.147 108.395 110.247C108.362 110.347 108.345 110.463 108.345 110.597V111.397C108.345 111.53 108.362 111.647 108.395 111.747C108.429 111.847 108.562 111.897 108.795 111.897H131.495C132.762 111.897 133.379 112.697 133.345 114.297C133.345 115.93 132.729 116.747 131.495 116.747H105.545C104.345 116.747 103.512 116.43 103.045 115.797C102.612 115.197 102.395 114.513 102.395 113.747V108.247C102.395 107.48 102.612 106.797 103.045 106.197C103.512 105.563 104.345 105.247 105.545 105.247H125.695C125.929 105.247 126.062 105.197 126.095 105.097C126.129 104.997 126.145 104.88 126.145 104.747V103.947C126.145 103.813 126.129 103.697 126.095 103.597C126.062 103.497 125.929 103.447 125.695 103.447H104.245C103.012 103.447 102.379 102.647 102.345 101.047C102.345 99.4132 102.979 98.5965 104.245 98.5965H128.945C130.145 98.5965 130.962 98.9132 131.395 99.5465C131.862 100.147 132.095 100.83 132.095 101.597V107.097ZM95.4955 96.8965C94.2621 96.8965 93.6288 96.0798 93.5955 94.4465C93.5955 92.7798 94.2288 91.9465 95.4955 91.9465H133.045C134.345 91.9465 134.979 92.7798 134.945 94.4465C134.945 96.0798 134.312 96.8965 133.045 96.8965H95.4955ZM23.3232 136.847C23.3232 135.247 24.3065 134.447 26.2732 134.447C28.2732 134.447 29.2732 135.247 29.2732 136.847V163.297C29.2732 164.897 28.2732 165.713 26.2732 165.747C24.3065 165.747 23.3232 164.93 23.3232 163.297V151.697H19.4232V164.197H21.5732C22.8399 164.197 23.4565 165.047 23.4232 166.747C23.4232 168.413 22.8065 169.247 21.5732 169.247H6.77319C5.57319 169.247 4.73986 168.947 4.27319 168.347C3.83986 167.713 3.62319 167.013 3.62319 166.247V136.847C3.62319 135.247 4.60653 134.447 6.57319 134.447C8.57319 134.447 9.57319 135.247 9.57319 136.847V146.647H13.4732V136.847C13.4732 135.247 14.4565 134.447 16.4232 134.447C18.4232 134.447 19.4232 135.247 19.4232 136.847V146.647H23.3232V136.847ZM38.4732 173.947C38.4732 175.547 37.4732 176.347 35.4732 176.347C33.5065 176.347 32.5232 175.547 32.5232 173.947V136.247C32.5232 134.647 33.5065 133.847 35.4732 133.847C37.4732 133.847 38.4732 134.647 38.4732 136.247V173.947ZM9.62319 164.047C9.65653 164.147 9.78986 164.197 10.0232 164.197H13.4732V151.697H9.57319V163.697C9.57319 163.83 9.58986 163.947 9.62319 164.047ZM47.8232 151.697C47.8232 152.763 47.4399 153.68 46.6732 154.447C45.9399 155.18 45.0399 155.547 43.9732 155.547C42.9065 155.547 41.9899 155.18 41.2232 154.447C40.4899 153.68 40.1232 152.763 40.1232 151.697C40.1232 150.63 40.4899 149.73 41.2232 148.997C41.9899 148.23 42.9065 147.847 43.9732 147.847C45.0399 147.847 45.9399 148.23 46.6732 148.997C47.4399 149.73 47.8232 150.63 47.8232 151.697ZM51.4037 171.547C50.1703 171.547 49.537 170.713 49.5037 169.047C49.5037 167.347 50.137 166.497 51.4037 166.497H85.5037C86.8037 166.497 87.437 167.347 87.4037 169.047C87.4037 170.713 86.7703 171.547 85.5037 171.547H51.4037ZM83.2037 147.047C83.2037 147.813 82.9703 148.513 82.5037 149.147C82.0703 149.747 81.2537 150.047 80.0537 150.047H59.9037C59.6703 150.047 59.537 150.097 59.5037 150.197C59.4703 150.297 59.4537 150.413 59.4537 150.547V154.697C59.4537 154.83 59.4703 154.947 59.5037 155.047C59.537 155.147 59.6703 155.197 59.9037 155.197H82.6037C83.8703 155.197 84.487 156.047 84.4537 157.747C84.4537 159.413 83.837 160.247 82.6037 160.247H56.6537C55.4537 160.247 54.6203 159.947 54.1537 159.347C53.7203 158.713 53.5037 158.013 53.5037 157.247V147.997C53.5037 147.23 53.7203 146.547 54.1537 145.947C54.6203 145.313 55.4537 144.997 56.6537 144.997H76.8037C77.037 144.997 77.1703 144.947 77.2037 144.847C77.237 144.747 77.2537 144.63 77.2537 144.497V140.447C77.2537 140.313 77.237 140.197 77.2037 140.097C77.1703 139.997 77.037 139.947 76.8037 139.947H55.3537C54.1203 139.947 53.487 139.113 53.4537 137.447C53.4537 135.747 54.087 134.897 55.3537 134.897H80.0537C81.2537 134.897 82.0703 135.213 82.5037 135.847C82.9703 136.447 83.2037 137.13 83.2037 137.897V147.047ZM93.5115 171.397C91.6781 172.163 90.3948 171.763 89.6615 170.197C88.9615 168.63 89.2781 167.563 90.6115 166.997C94.2781 165.43 97.7115 162.813 100.911 159.147C104.111 155.48 105.711 151.297 105.711 146.597V140.497C105.711 140.363 105.695 140.247 105.661 140.147C105.628 140.047 105.495 139.997 105.261 139.997H92.3615C91.1281 139.997 90.4948 139.163 90.4615 137.497C90.4615 135.797 91.0948 134.947 92.3615 134.947H108.511C109.711 134.947 110.528 135.263 110.961 135.897C111.428 136.497 111.661 137.18 111.661 137.947V147.647C111.661 148.413 111.561 149.247 111.361 150.147C111.661 149.947 112.028 149.847 112.461 149.847H116.961V136.247C116.961 134.647 117.945 133.847 119.911 133.847C121.911 133.847 122.911 134.647 122.911 136.247V173.947C122.911 175.547 121.911 176.347 119.911 176.347C117.945 176.347 116.961 175.547 116.961 173.947V154.897H112.461C111.361 154.897 110.745 154.247 110.611 152.947C109.945 154.847 108.995 157.013 107.761 159.447C105.195 164.547 100.445 168.53 93.5115 171.397ZM132.011 173.947C132.011 175.547 131.011 176.347 129.011 176.347C127.045 176.347 126.061 175.547 126.061 173.947V136.247C126.061 134.647 127.045 133.847 129.011 133.847C131.011 133.847 132.011 134.647 132.011 136.247V173.947ZM155.082 157.797C153.549 157.797 152.782 156.963 152.782 155.297C152.816 154.43 153.032 153.797 153.432 153.397C153.832 152.963 154.382 152.747 155.082 152.747H165.182C166.682 152.747 167.432 153.597 167.432 155.297C167.499 156.963 166.749 157.797 165.182 157.797H155.082ZM228.572 175.647C228.572 177.247 227.572 178.047 225.572 178.047C223.605 178.047 222.622 177.247 222.622 175.647V165.297C222.622 165.163 222.605 165.047 222.572 164.947C222.538 164.847 222.405 164.797 222.172 164.797H202.172C200.938 164.797 200.305 163.963 200.272 162.297C200.272 160.597 200.905 159.747 202.172 159.747H225.422C226.622 159.747 227.438 160.063 227.872 160.697C228.338 161.297 228.572 161.98 228.572 162.747V175.647ZM225.022 156.247C225.022 157.847 224.022 158.647 222.022 158.647C220.055 158.647 219.072 157.847 219.072 156.247V136.247C219.072 134.647 220.055 133.847 222.022 133.847C224.022 133.847 225.022 134.647 225.022 136.247V156.247ZM188.772 139.997C187.538 139.997 186.905 139.163 186.872 137.497C186.872 135.797 187.505 134.947 188.772 134.947H213.272C214.572 134.947 215.205 135.797 215.172 137.497C215.172 139.163 214.538 139.997 213.272 139.997H188.772ZM209.922 156.297C209.922 157.897 208.922 158.697 206.922 158.697C204.955 158.697 203.972 157.897 203.972 156.297V143.647C203.972 142.047 204.955 141.247 206.922 141.247C208.922 141.247 209.922 142.047 209.922 143.647V156.297ZM198.572 161.797C198.572 162.563 198.338 163.263 197.872 163.897C197.438 164.497 196.622 164.797 195.422 164.797H186.622C185.355 164.797 184.722 163.963 184.722 162.297C184.755 160.597 185.388 159.747 186.622 159.747H192.172C192.405 159.747 192.538 159.697 192.572 159.597C192.605 159.497 192.622 159.38 192.622 159.247V143.647C192.622 142.047 193.605 141.247 195.572 141.247C197.572 141.247 198.572 142.047 198.572 143.647V161.797Z" fill="black"/>
<path fill-rule="evenodd" clip-rule="evenodd" d="M310.787 58.2559L307.292 113.202L317.322 104.535C318.122 103.844 319.075 103.352 320.101 103.099C321.128 102.847 322.2 102.84 323.229 103.081C324.259 103.321 325.217 103.801 326.026 104.483C326.834 105.164 327.47 106.027 327.882 107L344.613 146.547L349.97 144.266L334.022 106.162C332.234 101.908 335.193 97.1615 339.792 96.8779L353.392 96.0395L310.787 58.2559ZM299.216 45.9881C299.295 44.7348 299.725 43.5288 300.456 42.5076C301.187 41.4864 302.19 40.6909 303.35 40.2117C304.511 39.7324 305.783 39.5887 307.022 39.7969C308.26 40.0051 309.415 40.5568 310.356 41.3892L371.701 95.8053C376.164 99.763 373.624 107.148 367.663 107.518L348.447 108.696L361.344 139.513C362.601 142.518 362.618 145.897 361.391 148.914C360.164 151.931 357.794 154.34 354.797 155.615L349.446 157.896C347.954 158.532 346.351 158.867 344.729 158.882C343.107 158.898 341.498 158.593 339.995 157.985C338.491 157.378 337.122 156.479 335.966 155.342C334.81 154.204 333.889 152.85 333.258 151.356L319.535 118.917L305.214 131.289C300.714 135.173 293.76 131.721 294.136 125.791L299.216 45.9881Z" fill="black"/>
</svg>
