<svg width="32" height="32" viewBox="0 0 32 32" fill="none" xmlns="http://www.w3.org/2000/svg">
<path d="M16 16.7077L10.754 21.9537C10.6607 22.0471 10.546 22.0971 10.41 22.1037C10.274 22.1104 10.1527 22.0604 10.046 21.9537C9.93932 21.8471 9.88599 21.7291 9.88599 21.5997C9.88599 21.4704 9.93932 21.3524 10.046 21.2457L15.292 15.9997L10.046 10.7537C9.95265 10.6604 9.90265 10.5457 9.89599 10.4097C9.88932 10.2737 9.93932 10.1524 10.046 10.0457C10.1527 9.93908 10.2707 9.88574 10.4 9.88574C10.5293 9.88574 10.6473 9.93908 10.754 10.0457L16 15.2917L21.246 10.0457C21.3393 9.95241 21.4543 9.90241 21.591 9.89574C21.7263 9.88908 21.8473 9.93908 21.954 10.0457C22.0607 10.1524 22.114 10.2704 22.114 10.3997C22.114 10.5291 22.0607 10.6471 21.954 10.7537L16.708 15.9997L21.954 21.2457C22.0473 21.3391 22.0973 21.4541 22.104 21.5907C22.1107 21.7261 22.0607 21.8471 21.954 21.9537C21.8473 22.0604 21.7293 22.1137 21.6 22.1137C21.4707 22.1137 21.3527 22.0604 21.246 21.9537L16 16.7077Z" fill="black"/>
</svg>
