<svg width="32" height="32" viewBox="0 0 32 32" fill="none" xmlns="http://www.w3.org/2000/svg">
<path d="M10.1338 11.6846C10.2076 11.6775 10.2826 11.6852 10.3535 11.707C10.4244 11.7289 10.4899 11.7651 10.5469 11.8125C10.604 11.8601 10.6511 11.9185 10.6855 11.9844C10.7199 12.0502 10.7416 12.1223 10.748 12.1963L11.8066 23.1426C11.8111 23.1889 11.8328 23.2323 11.8672 23.2637C11.9016 23.2949 11.9467 23.3124 11.9932 23.3125H20.0068C20.0533 23.3124 20.0984 23.2949 20.1328 23.2637C20.1672 23.2323 20.1889 23.1889 20.1934 23.1426L21.252 12.1963C21.2663 12.0478 21.339 11.9104 21.4541 11.8154C21.5692 11.7206 21.7177 11.6752 21.8662 11.6895C22.0147 11.7038 22.1521 11.7765 22.2471 11.8916C22.3419 12.0067 22.3873 12.1552 22.373 12.3037L21.3135 23.252C21.2819 23.5765 21.1301 23.8775 20.8887 24.0967C20.6472 24.3158 20.3329 24.4375 20.0068 24.4375H11.9932C11.6673 24.4375 11.3527 24.3166 11.1113 24.0977C10.8699 23.8787 10.7183 23.5773 10.6865 23.2529L9.62793 12.3037C9.62012 12.2299 9.62727 12.1551 9.64844 12.084C9.66964 12.0128 9.705 11.9462 9.75195 11.8887C9.79882 11.8313 9.85659 11.784 9.92188 11.749C9.98741 11.714 10.0598 11.6917 10.1338 11.6846ZM13.9043 13.1875C13.9781 13.1831 14.0522 13.1936 14.1221 13.2178C14.1919 13.242 14.2563 13.28 14.3115 13.3291C14.3667 13.3782 14.4121 13.4374 14.4443 13.5039C14.4766 13.5704 14.4947 13.643 14.499 13.7168L14.874 20.0918C14.8827 20.2408 14.8325 20.3875 14.7334 20.499C14.6342 20.6106 14.4938 20.6778 14.3447 20.6865C14.1958 20.6952 14.049 20.645 13.9375 20.5459C13.8259 20.4467 13.7588 20.3063 13.75 20.1572L13.375 13.7822C13.3707 13.7087 13.3812 13.6351 13.4053 13.5654C13.4294 13.4958 13.4667 13.4311 13.5156 13.376C13.5647 13.3207 13.6249 13.2754 13.6914 13.2432C13.7578 13.211 13.8297 13.1918 13.9033 13.1875H13.9043ZM18.0947 13.1875C18.2438 13.1963 18.3842 13.2634 18.4834 13.375C18.5825 13.4865 18.6327 13.6333 18.624 13.7822L18.248 20.1572C18.2393 20.3062 18.172 20.4458 18.0605 20.5449C17.949 20.6441 17.8023 20.6953 17.6533 20.6865C17.5045 20.6777 17.3657 20.6095 17.2666 20.498C17.1675 20.3866 17.1163 20.2407 17.125 20.0918L17.5 13.7168C17.5087 13.5679 17.5761 13.4283 17.6875 13.3291C17.799 13.23 17.9458 13.1789 18.0947 13.1875ZM17.6875 7.5625C18.412 7.5625 19 8.1505 19 8.875V9.8125H22.9375C23.0867 9.8125 23.2295 9.87205 23.335 9.97754C23.4404 10.083 23.5 10.2258 23.5 10.375C23.5 10.5242 23.4404 10.667 23.335 10.7725C23.2295 10.8779 23.0867 10.9375 22.9375 10.9375H9.0625C8.91332 10.9375 8.77053 10.878 8.66504 10.7725C8.55955 10.667 8.5 10.5242 8.5 10.375C8.5 10.2258 8.55955 10.083 8.66504 9.97754C8.77053 9.87205 8.91332 9.8125 9.0625 9.8125H13V8.875C13 8.1505 13.588 7.5625 14.3125 7.5625H17.6875ZM14.3125 8.6875C14.2628 8.6875 14.2149 8.70702 14.1797 8.74219C14.1445 8.77735 14.125 8.82527 14.125 8.875V9.8125H17.875V8.875C17.875 8.82527 17.8555 8.77735 17.8203 8.74219C17.7851 8.70702 17.7372 8.6875 17.6875 8.6875H14.3125Z" fill="black"/>
</svg>
