<svg width="305" height="347" viewBox="0 0 305 347" fill="none" xmlns="http://www.w3.org/2000/svg">
<path d="M11.0469 15.1172C9.57031 15.0938 7.95312 14.2266 7.95312 11.0859C7.95312 8.08594 9.18359 6.39844 11.1758 6.39844C12.6641 6.39844 13.707 7.3125 13.9297 8.64844H12.8867C12.6875 7.89844 12.125 7.33594 11.1758 7.33594C9.78125 7.33594 8.94922 8.53125 8.94922 10.5703H9.05469C9.54688 9.86719 10.3203 9.44531 11.2344 9.44531C12.7461 9.44531 14 10.6172 14 12.2578C14 13.8516 12.8281 15.1289 11.0469 15.1172ZM11.0469 14.1914C12.1484 14.1914 12.9688 13.3242 12.9805 12.2695C12.9688 11.2266 12.1836 10.3711 11.0703 10.3711C9.95703 10.3711 9.10156 11.2734 9.08984 12.2812C9.08984 13.2773 9.91016 14.1914 11.0469 14.1914ZM16.1797 13.875C15.7695 13.875 15.418 13.5352 15.4297 13.1133C15.418 12.7031 15.7695 12.3633 16.1797 12.3633C16.5898 12.3633 16.9297 12.7031 16.9297 13.1133C16.9297 13.5352 16.5898 13.875 16.1797 13.875ZM16.1797 9.16406C15.7695 9.16406 15.418 8.82422 15.4297 8.40234C15.418 7.99219 15.7695 7.65234 16.1797 7.65234C16.5898 7.65234 16.9297 7.99219 16.9297 8.40234C16.9297 8.82422 16.5898 9.16406 16.1797 9.16406ZM21.2773 15.1172C19.3906 15.1172 18.3125 13.5352 18.3125 10.7578C18.3125 8.00391 19.4141 6.39844 21.2773 6.39844C23.1406 6.39844 24.2422 8.00391 24.2422 10.7578C24.2422 13.5352 23.1523 15.1172 21.2773 15.1172ZM21.2773 14.1797C22.4961 14.1797 23.2109 12.9492 23.2109 10.7578C23.2109 8.56641 22.4961 7.3125 21.2773 7.3125C20.0586 7.3125 19.332 8.56641 19.332 10.7578C19.332 12.9492 20.0469 14.1797 21.2773 14.1797ZM28.4258 15.1172C26.5391 15.1172 25.4609 13.5352 25.4609 10.7578C25.4609 8.00391 26.5625 6.39844 28.4258 6.39844C30.2891 6.39844 31.3906 8.00391 31.3906 10.7578C31.3906 13.5352 30.3008 15.1172 28.4258 15.1172ZM28.4258 14.1797C29.6445 14.1797 30.3594 12.9492 30.3594 10.7578C30.3594 8.56641 29.6445 7.3125 28.4258 7.3125C27.207 7.3125 26.4805 8.56641 26.4805 10.7578C26.4805 12.9492 27.1953 14.1797 28.4258 14.1797ZM9.5 34L13.3906 26.5117V26.4531H8.90234V25.5156H14.4805V26.5L10.6016 34H9.5ZM16.1797 32.875C15.7695 32.875 15.418 32.5352 15.4297 32.1133C15.418 31.7031 15.7695 31.3633 16.1797 31.3633C16.5898 31.3633 16.9297 31.7031 16.9297 32.1133C16.9297 32.5352 16.5898 32.875 16.1797 32.875ZM16.1797 28.1641C15.7695 28.1641 15.418 27.8242 15.4297 27.4023C15.418 26.9922 15.7695 26.6523 16.1797 26.6523C16.5898 26.6523 16.9297 26.9922 16.9297 27.4023C16.9297 27.8242 16.5898 28.1641 16.1797 28.1641ZM21.2773 34.1172C19.3906 34.1172 18.3125 32.5352 18.3125 29.7578C18.3125 27.0039 19.4141 25.3984 21.2773 25.3984C23.1406 25.3984 24.2422 27.0039 24.2422 29.7578C24.2422 32.5352 23.1523 34.1172 21.2773 34.1172ZM21.2773 33.1797C22.4961 33.1797 23.2109 31.9492 23.2109 29.7578C23.2109 27.5664 22.4961 26.3125 21.2773 26.3125C20.0586 26.3125 19.332 27.5664 19.332 29.7578C19.332 31.9492 20.0469 33.1797 21.2773 33.1797ZM28.4258 34.1172C26.5391 34.1172 25.4609 32.5352 25.4609 29.7578C25.4609 27.0039 26.5625 25.3984 28.4258 25.3984C30.2891 25.3984 31.3906 27.0039 31.3906 29.7578C31.3906 32.5352 30.3008 34.1172 28.4258 34.1172ZM28.4258 33.1797C29.6445 33.1797 30.3594 31.9492 30.3594 29.7578C30.3594 27.5664 29.6445 26.3125 28.4258 26.3125C27.207 26.3125 26.4805 27.5664 26.4805 29.7578C26.4805 31.9492 27.1953 33.1797 28.4258 33.1797ZM11.0117 53.1172C9.23047 53.1172 7.98828 52.1328 8 50.75C7.98828 49.6484 8.75 48.7461 9.72266 48.5938V48.5469C8.87891 48.3477 8.32812 47.5742 8.32812 46.6484C8.32812 45.3477 9.46484 44.3984 11.0117 44.3984C12.5586 44.3984 13.6953 45.3477 13.707 46.6484C13.6953 47.5742 13.1328 48.3477 12.3008 48.5469V48.5938C13.2617 48.7461 14.0234 49.6484 14.0352 50.75C14.0234 52.1328 12.7812 53.1172 11.0117 53.1172ZM11.0117 52.1914C12.2305 52.1914 12.9805 51.582 12.9805 50.6914C12.9805 49.7539 12.1484 49.0625 11.0117 49.0625C9.875 49.0625 9.03125 49.7539 9.05469 50.6914C9.03125 51.582 9.79297 52.1914 11.0117 52.1914ZM11.0117 48.1719C11.9727 48.1719 12.6758 47.5859 12.6758 46.7305C12.6758 45.8867 12.0078 45.3125 11.0117 45.3125C10.0039 45.3125 9.34766 45.8867 9.34766 46.7305C9.34766 47.5859 10.0391 48.1719 11.0117 48.1719ZM16.1797 51.875C15.7695 51.875 15.418 51.5352 15.4297 51.1133C15.418 50.7031 15.7695 50.3633 16.1797 50.3633C16.5898 50.3633 16.9297 50.7031 16.9297 51.1133C16.9297 51.5352 16.5898 51.875 16.1797 51.875ZM16.1797 47.1641C15.7695 47.1641 15.418 46.8242 15.4297 46.4023C15.418 45.9922 15.7695 45.6523 16.1797 45.6523C16.5898 45.6523 16.9297 45.9922 16.9297 46.4023C16.9297 46.8242 16.5898 47.1641 16.1797 47.1641ZM21.2773 53.1172C19.3906 53.1172 18.3125 51.5352 18.3125 48.7578C18.3125 46.0039 19.4141 44.3984 21.2773 44.3984C23.1406 44.3984 24.2422 46.0039 24.2422 48.7578C24.2422 51.5352 23.1523 53.1172 21.2773 53.1172ZM21.2773 52.1797C22.4961 52.1797 23.2109 50.9492 23.2109 48.7578C23.2109 46.5664 22.4961 45.3125 21.2773 45.3125C20.0586 45.3125 19.332 46.5664 19.332 48.7578C19.332 50.9492 20.0469 52.1797 21.2773 52.1797ZM28.4258 53.1172C26.5391 53.1172 25.4609 51.5352 25.4609 48.7578C25.4609 46.0039 26.5625 44.3984 28.4258 44.3984C30.2891 44.3984 31.3906 46.0039 31.3906 48.7578C31.3906 51.5352 30.3008 53.1172 28.4258 53.1172ZM28.4258 52.1797C29.6445 52.1797 30.3594 50.9492 30.3594 48.7578C30.3594 46.5664 29.6445 45.3125 28.4258 45.3125C27.207 45.3125 26.4805 46.5664 26.4805 48.7578C26.4805 50.9492 27.1953 52.1797 28.4258 52.1797ZM10.918 63.3984C12.3828 63.4102 14 64.2891 14 67.418C14 70.4297 12.7695 72.1172 10.7773 72.1172C9.28906 72.1172 8.23438 71.2031 8.02344 69.8555H9.06641C9.25391 70.6172 9.82812 71.1797 10.7773 71.1797C12.1602 71.1797 13.0039 69.9844 13.0156 67.9219H12.8984C12.4062 68.625 11.6328 69.0469 10.7305 69.0469C9.20703 69.0469 7.95312 67.8867 7.95312 66.2461C7.95312 64.6641 9.11328 63.3867 10.918 63.3984ZM10.918 64.3242C9.80469 64.3242 8.97266 65.1914 8.98438 66.2344C8.98438 67.2891 9.76953 68.1211 10.8828 68.1211C11.9844 68.1211 12.8516 67.207 12.8516 66.2109C12.8516 65.2383 12.043 64.3242 10.918 64.3242ZM16.1797 70.875C15.7695 70.875 15.418 70.5352 15.4297 70.1133C15.418 69.7031 15.7695 69.3633 16.1797 69.3633C16.5898 69.3633 16.9297 69.7031 16.9297 70.1133C16.9297 70.5352 16.5898 70.875 16.1797 70.875ZM16.1797 66.1641C15.7695 66.1641 15.418 65.8242 15.4297 65.4023C15.418 64.9922 15.7695 64.6523 16.1797 64.6523C16.5898 64.6523 16.9297 64.9922 16.9297 65.4023C16.9297 65.8242 16.5898 66.1641 16.1797 66.1641ZM21.2773 72.1172C19.3906 72.1172 18.3125 70.5352 18.3125 67.7578C18.3125 65.0039 19.4141 63.3984 21.2773 63.3984C23.1406 63.3984 24.2422 65.0039 24.2422 67.7578C24.2422 70.5352 23.1523 72.1172 21.2773 72.1172ZM21.2773 71.1797C22.4961 71.1797 23.2109 69.9492 23.2109 67.7578C23.2109 65.5664 22.4961 64.3125 21.2773 64.3125C20.0586 64.3125 19.332 65.5664 19.332 67.7578C19.332 69.9492 20.0469 71.1797 21.2773 71.1797ZM28.4258 72.1172C26.5391 72.1172 25.4609 70.5352 25.4609 67.7578C25.4609 65.0039 26.5625 63.3984 28.4258 63.3984C30.2891 63.3984 31.3906 65.0039 31.3906 67.7578C31.3906 70.5352 30.3008 72.1172 28.4258 72.1172ZM28.4258 71.1797C29.6445 71.1797 30.3594 69.9492 30.3594 67.7578C30.3594 65.5664 29.6445 64.3125 28.4258 64.3125C27.207 64.3125 26.4805 65.5664 26.4805 67.7578C26.4805 69.9492 27.1953 71.1797 28.4258 71.1797ZM6.04297 82.5156V91H4.97656V83.6172H4.92969L2.86719 84.9883V83.9219L4.97656 82.5156H6.04297ZM11.082 91.1172C9.19531 91.1172 8.11719 89.5352 8.11719 86.7578C8.11719 84.0039 9.21875 82.3984 11.082 82.3984C12.9453 82.3984 14.0469 84.0039 14.0469 86.7578C14.0469 89.5352 12.957 91.1172 11.082 91.1172ZM11.082 90.1797C12.3008 90.1797 13.0156 88.9492 13.0156 86.7578C13.0156 84.5664 12.3008 83.3125 11.082 83.3125C9.86328 83.3125 9.13672 84.5664 9.13672 86.7578C9.13672 88.9492 9.85156 90.1797 11.082 90.1797ZM16.1797 89.875C15.7695 89.875 15.418 89.5352 15.4297 89.1133C15.418 88.7031 15.7695 88.3633 16.1797 88.3633C16.5898 88.3633 16.9297 88.7031 16.9297 89.1133C16.9297 89.5352 16.5898 89.875 16.1797 89.875ZM16.1797 85.1641C15.7695 85.1641 15.418 84.8242 15.4297 84.4023C15.418 83.9922 15.7695 83.6523 16.1797 83.6523C16.5898 83.6523 16.9297 83.9922 16.9297 84.4023C16.9297 84.8242 16.5898 85.1641 16.1797 85.1641ZM21.2773 91.1172C19.3906 91.1172 18.3125 89.5352 18.3125 86.7578C18.3125 84.0039 19.4141 82.3984 21.2773 82.3984C23.1406 82.3984 24.2422 84.0039 24.2422 86.7578C24.2422 89.5352 23.1523 91.1172 21.2773 91.1172ZM21.2773 90.1797C22.4961 90.1797 23.2109 88.9492 23.2109 86.7578C23.2109 84.5664 22.4961 83.3125 21.2773 83.3125C20.0586 83.3125 19.332 84.5664 19.332 86.7578C19.332 88.9492 20.0469 90.1797 21.2773 90.1797ZM28.4258 91.1172C26.5391 91.1172 25.4609 89.5352 25.4609 86.7578C25.4609 84.0039 26.5625 82.3984 28.4258 82.3984C30.2891 82.3984 31.3906 84.0039 31.3906 86.7578C31.3906 89.5352 30.3008 91.1172 28.4258 91.1172ZM28.4258 90.1797C29.6445 90.1797 30.3594 88.9492 30.3594 86.7578C30.3594 84.5664 29.6445 83.3125 28.4258 83.3125C27.207 83.3125 26.4805 84.5664 26.4805 86.7578C26.4805 88.9492 27.1953 90.1797 28.4258 90.1797ZM7.92969 101.516V110H6.86328V102.617H6.81641L4.75391 103.988V102.922L6.86328 101.516H7.92969ZM13.1914 101.516V110H12.125V102.617H12.0781L10.0156 103.988V102.922L12.125 101.516H13.1914ZM16.1797 108.875C15.7695 108.875 15.418 108.535 15.4297 108.113C15.418 107.703 15.7695 107.363 16.1797 107.363C16.5898 107.363 16.9297 107.703 16.9297 108.113C16.9297 108.535 16.5898 108.875 16.1797 108.875ZM16.1797 104.164C15.7695 104.164 15.418 103.824 15.4297 103.402C15.418 102.992 15.7695 102.652 16.1797 102.652C16.5898 102.652 16.9297 102.992 16.9297 103.402C16.9297 103.824 16.5898 104.164 16.1797 104.164ZM21.2773 110.117C19.3906 110.117 18.3125 108.535 18.3125 105.758C18.3125 103.004 19.4141 101.398 21.2773 101.398C23.1406 101.398 24.2422 103.004 24.2422 105.758C24.2422 108.535 23.1523 110.117 21.2773 110.117ZM21.2773 109.18C22.4961 109.18 23.2109 107.949 23.2109 105.758C23.2109 103.566 22.4961 102.312 21.2773 102.312C20.0586 102.312 19.332 103.566 19.332 105.758C19.332 107.949 20.0469 109.18 21.2773 109.18ZM28.4258 110.117C26.5391 110.117 25.4609 108.535 25.4609 105.758C25.4609 103.004 26.5625 101.398 28.4258 101.398C30.2891 101.398 31.3906 103.004 31.3906 105.758C31.3906 108.535 30.3008 110.117 28.4258 110.117ZM28.4258 109.18C29.6445 109.18 30.3594 107.949 30.3594 105.758C30.3594 103.566 29.6445 102.312 28.4258 102.312C27.207 102.312 26.4805 103.566 26.4805 105.758C26.4805 107.949 27.1953 109.18 28.4258 109.18ZM6.14844 120.516V129H5.08203V121.617H5.03516L2.97266 122.988V121.922L5.08203 120.516H6.14844ZM8.41016 129L8.39844 128.227L11.293 125.18C12.3008 124.113 12.7812 123.539 12.7812 122.754C12.7812 121.887 12.043 121.312 11.0938 121.312C10.0859 121.312 9.44141 121.957 9.44141 122.906H8.44531C8.43359 121.406 9.59375 120.398 11.1289 120.398C12.6641 120.398 13.7656 121.43 13.7656 122.754C13.7656 123.703 13.3203 124.441 11.8203 125.988L9.875 127.992V128.062H13.918V129H8.41016ZM16.1797 127.875C15.7695 127.875 15.418 127.535 15.4297 127.113C15.418 126.703 15.7695 126.363 16.1797 126.363C16.5898 126.363 16.9297 126.703 16.9297 127.113C16.9297 127.535 16.5898 127.875 16.1797 127.875ZM16.1797 123.164C15.7695 123.164 15.418 122.824 15.4297 122.402C15.418 121.992 15.7695 121.652 16.1797 121.652C16.5898 121.652 16.9297 121.992 16.9297 122.402C16.9297 122.824 16.5898 123.164 16.1797 123.164ZM21.2773 129.117C19.3906 129.117 18.3125 127.535 18.3125 124.758C18.3125 122.004 19.4141 120.398 21.2773 120.398C23.1406 120.398 24.2422 122.004 24.2422 124.758C24.2422 127.535 23.1523 129.117 21.2773 129.117ZM21.2773 128.18C22.4961 128.18 23.2109 126.949 23.2109 124.758C23.2109 122.566 22.4961 121.312 21.2773 121.312C20.0586 121.312 19.332 122.566 19.332 124.758C19.332 126.949 20.0469 128.18 21.2773 128.18ZM28.4258 129.117C26.5391 129.117 25.4609 127.535 25.4609 124.758C25.4609 122.004 26.5625 120.398 28.4258 120.398C30.2891 120.398 31.3906 122.004 31.3906 124.758C31.3906 127.535 30.3008 129.117 28.4258 129.117ZM28.4258 128.18C29.6445 128.18 30.3594 126.949 30.3594 124.758C30.3594 122.566 29.6445 121.312 28.4258 121.312C27.207 121.312 26.4805 122.566 26.4805 124.758C26.4805 126.949 27.1953 128.18 28.4258 128.18ZM5.78516 139.516V148H4.71875V140.617H4.67188L2.60938 141.988V140.922L4.71875 139.516H5.78516ZM10.9766 148.117C9.28906 148.117 8.08203 147.215 8.02344 145.867H9.08984C9.14844 146.676 9.95703 147.18 10.9648 147.18C12.0781 147.18 12.8984 146.57 12.8984 145.691C12.8984 144.766 12.1602 144.109 10.8359 144.109H10.1445V143.184H10.8359C11.8672 143.184 12.582 142.609 12.582 141.73C12.582 140.887 11.9609 140.312 11 140.312C10.0977 140.312 9.26562 140.816 9.21875 141.648H8.19922C8.25781 140.301 9.5 139.398 11.0117 139.398C12.6289 139.398 13.6133 140.453 13.6016 141.672C13.6133 142.633 13.0508 143.348 12.1602 143.594V143.652C13.2617 143.828 13.9414 144.613 13.9297 145.691C13.9414 147.086 12.6641 148.117 10.9766 148.117ZM16.1797 146.875C15.7695 146.875 15.418 146.535 15.4297 146.113C15.418 145.703 15.7695 145.363 16.1797 145.363C16.5898 145.363 16.9297 145.703 16.9297 146.113C16.9297 146.535 16.5898 146.875 16.1797 146.875ZM16.1797 142.164C15.7695 142.164 15.418 141.824 15.4297 141.402C15.418 140.992 15.7695 140.652 16.1797 140.652C16.5898 140.652 16.9297 140.992 16.9297 141.402C16.9297 141.824 16.5898 142.164 16.1797 142.164ZM21.2773 148.117C19.3906 148.117 18.3125 146.535 18.3125 143.758C18.3125 141.004 19.4141 139.398 21.2773 139.398C23.1406 139.398 24.2422 141.004 24.2422 143.758C24.2422 146.535 23.1523 148.117 21.2773 148.117ZM21.2773 147.18C22.4961 147.18 23.2109 145.949 23.2109 143.758C23.2109 141.566 22.4961 140.312 21.2773 140.312C20.0586 140.312 19.332 141.566 19.332 143.758C19.332 145.949 20.0469 147.18 21.2773 147.18ZM28.4258 148.117C26.5391 148.117 25.4609 146.535 25.4609 143.758C25.4609 141.004 26.5625 139.398 28.4258 139.398C30.2891 139.398 31.3906 141.004 31.3906 143.758C31.3906 146.535 30.3008 148.117 28.4258 148.117ZM28.4258 147.18C29.6445 147.18 30.3594 145.949 30.3594 143.758C30.3594 141.566 29.6445 140.312 28.4258 140.312C27.207 140.312 26.4805 141.566 26.4805 143.758C26.4805 145.949 27.1953 147.18 28.4258 147.18ZM5.70312 158.516V167H4.63672V159.617H4.58984L2.52734 160.988V159.922L4.63672 158.516H5.70312ZM7.75391 165.266V164.398L11.5742 158.516H12.875V164.34H14.0586V165.266H12.875V167H11.8672V165.266H7.75391ZM8.89062 164.34H11.8672V159.852H11.7617L8.89062 164.27V164.34ZM16.1797 165.875C15.7695 165.875 15.418 165.535 15.4297 165.113C15.418 164.703 15.7695 164.363 16.1797 164.363C16.5898 164.363 16.9297 164.703 16.9297 165.113C16.9297 165.535 16.5898 165.875 16.1797 165.875ZM16.1797 161.164C15.7695 161.164 15.418 160.824 15.4297 160.402C15.418 159.992 15.7695 159.652 16.1797 159.652C16.5898 159.652 16.9297 159.992 16.9297 160.402C16.9297 160.824 16.5898 161.164 16.1797 161.164ZM21.2773 167.117C19.3906 167.117 18.3125 165.535 18.3125 162.758C18.3125 160.004 19.4141 158.398 21.2773 158.398C23.1406 158.398 24.2422 160.004 24.2422 162.758C24.2422 165.535 23.1523 167.117 21.2773 167.117ZM21.2773 166.18C22.4961 166.18 23.2109 164.949 23.2109 162.758C23.2109 160.566 22.4961 159.312 21.2773 159.312C20.0586 159.312 19.332 160.566 19.332 162.758C19.332 164.949 20.0469 166.18 21.2773 166.18ZM28.4258 167.117C26.5391 167.117 25.4609 165.535 25.4609 162.758C25.4609 160.004 26.5625 158.398 28.4258 158.398C30.2891 158.398 31.3906 160.004 31.3906 162.758C31.3906 165.535 30.3008 167.117 28.4258 167.117ZM28.4258 166.18C29.6445 166.18 30.3594 164.949 30.3594 162.758C30.3594 160.566 29.6445 159.312 28.4258 159.312C27.207 159.312 26.4805 160.566 26.4805 162.758C26.4805 164.949 27.1953 166.18 28.4258 166.18ZM6.03125 177.516V186H4.96484V178.617H4.91797L2.85547 179.988V178.922L4.96484 177.516H6.03125ZM11.0586 186.117C9.52344 186.117 8.36328 185.168 8.30469 183.867H9.32422C9.40625 184.629 10.1445 185.191 11.0586 185.191C12.1602 185.191 12.957 184.383 12.957 183.316C12.957 182.215 12.125 181.406 10.9883 181.395C10.2734 181.383 9.72266 181.605 9.40625 182.156H8.38672L8.98438 177.516H13.5781V178.453H9.86328L9.54688 180.938H9.62891C10.0039 180.645 10.5781 180.445 11.1758 180.445C12.793 180.445 13.9883 181.641 13.9883 183.293C13.9883 184.934 12.7461 186.117 11.0586 186.117ZM16.1797 184.875C15.7695 184.875 15.418 184.535 15.4297 184.113C15.418 183.703 15.7695 183.363 16.1797 183.363C16.5898 183.363 16.9297 183.703 16.9297 184.113C16.9297 184.535 16.5898 184.875 16.1797 184.875ZM16.1797 180.164C15.7695 180.164 15.418 179.824 15.4297 179.402C15.418 178.992 15.7695 178.652 16.1797 178.652C16.5898 178.652 16.9297 178.992 16.9297 179.402C16.9297 179.824 16.5898 180.164 16.1797 180.164ZM21.2773 186.117C19.3906 186.117 18.3125 184.535 18.3125 181.758C18.3125 179.004 19.4141 177.398 21.2773 177.398C23.1406 177.398 24.2422 179.004 24.2422 181.758C24.2422 184.535 23.1523 186.117 21.2773 186.117ZM21.2773 185.18C22.4961 185.18 23.2109 183.949 23.2109 181.758C23.2109 179.566 22.4961 178.312 21.2773 178.312C20.0586 178.312 19.332 179.566 19.332 181.758C19.332 183.949 20.0469 185.18 21.2773 185.18ZM28.4258 186.117C26.5391 186.117 25.4609 184.535 25.4609 181.758C25.4609 179.004 26.5625 177.398 28.4258 177.398C30.2891 177.398 31.3906 179.004 31.3906 181.758C31.3906 184.535 30.3008 186.117 28.4258 186.117ZM28.4258 185.18C29.6445 185.18 30.3594 183.949 30.3594 181.758C30.3594 179.566 29.6445 178.312 28.4258 178.312C27.207 178.312 26.4805 179.566 26.4805 181.758C26.4805 183.949 27.1953 185.18 28.4258 185.18ZM5.83203 196.516V205H4.76562V197.617H4.71875L2.65625 198.988V197.922L4.76562 196.516H5.83203ZM11.0469 205.117C9.57031 205.094 7.95312 204.227 7.95312 201.086C7.95312 198.086 9.18359 196.398 11.1758 196.398C12.6641 196.398 13.707 197.312 13.9297 198.648H12.8867C12.6875 197.898 12.125 197.336 11.1758 197.336C9.78125 197.336 8.94922 198.531 8.94922 200.57H9.05469C9.54688 199.867 10.3203 199.445 11.2344 199.445C12.7461 199.445 14 200.617 14 202.258C14 203.852 12.8281 205.129 11.0469 205.117ZM11.0469 204.191C12.1484 204.191 12.9688 203.324 12.9805 202.27C12.9688 201.227 12.1836 200.371 11.0703 200.371C9.95703 200.371 9.10156 201.273 9.08984 202.281C9.08984 203.277 9.91016 204.191 11.0469 204.191ZM16.1797 203.875C15.7695 203.875 15.418 203.535 15.4297 203.113C15.418 202.703 15.7695 202.363 16.1797 202.363C16.5898 202.363 16.9297 202.703 16.9297 203.113C16.9297 203.535 16.5898 203.875 16.1797 203.875ZM16.1797 199.164C15.7695 199.164 15.418 198.824 15.4297 198.402C15.418 197.992 15.7695 197.652 16.1797 197.652C16.5898 197.652 16.9297 197.992 16.9297 198.402C16.9297 198.824 16.5898 199.164 16.1797 199.164ZM21.2773 205.117C19.3906 205.117 18.3125 203.535 18.3125 200.758C18.3125 198.004 19.4141 196.398 21.2773 196.398C23.1406 196.398 24.2422 198.004 24.2422 200.758C24.2422 203.535 23.1523 205.117 21.2773 205.117ZM21.2773 204.18C22.4961 204.18 23.2109 202.949 23.2109 200.758C23.2109 198.566 22.4961 197.312 21.2773 197.312C20.0586 197.312 19.332 198.566 19.332 200.758C19.332 202.949 20.0469 204.18 21.2773 204.18ZM28.4258 205.117C26.5391 205.117 25.4609 203.535 25.4609 200.758C25.4609 198.004 26.5625 196.398 28.4258 196.398C30.2891 196.398 31.3906 198.004 31.3906 200.758C31.3906 203.535 30.3008 205.117 28.4258 205.117ZM28.4258 204.18C29.6445 204.18 30.3594 202.949 30.3594 200.758C30.3594 198.566 29.6445 197.312 28.4258 197.312C27.207 197.312 26.4805 198.566 26.4805 200.758C26.4805 202.949 27.1953 204.18 28.4258 204.18ZM6.96875 215.516V224H5.90234V216.617H5.85547L3.79297 217.988V216.922L5.90234 215.516H6.96875ZM9.5 224L13.3906 216.512V216.453H8.90234V215.516H14.4805V216.5L10.6016 224H9.5ZM16.1797 222.875C15.7695 222.875 15.418 222.535 15.4297 222.113C15.418 221.703 15.7695 221.363 16.1797 221.363C16.5898 221.363 16.9297 221.703 16.9297 222.113C16.9297 222.535 16.5898 222.875 16.1797 222.875ZM16.1797 218.164C15.7695 218.164 15.418 217.824 15.4297 217.402C15.418 216.992 15.7695 216.652 16.1797 216.652C16.5898 216.652 16.9297 216.992 16.9297 217.402C16.9297 217.824 16.5898 218.164 16.1797 218.164ZM21.2773 224.117C19.3906 224.117 18.3125 222.535 18.3125 219.758C18.3125 217.004 19.4141 215.398 21.2773 215.398C23.1406 215.398 24.2422 217.004 24.2422 219.758C24.2422 222.535 23.1523 224.117 21.2773 224.117ZM21.2773 223.18C22.4961 223.18 23.2109 221.949 23.2109 219.758C23.2109 217.566 22.4961 216.312 21.2773 216.312C20.0586 216.312 19.332 217.566 19.332 219.758C19.332 221.949 20.0469 223.18 21.2773 223.18ZM28.4258 224.117C26.5391 224.117 25.4609 222.535 25.4609 219.758C25.4609 217.004 26.5625 215.398 28.4258 215.398C30.2891 215.398 31.3906 217.004 31.3906 219.758C31.3906 222.535 30.3008 224.117 28.4258 224.117ZM28.4258 223.18C29.6445 223.18 30.3594 221.949 30.3594 219.758C30.3594 217.566 29.6445 216.312 28.4258 216.312C27.207 216.312 26.4805 217.566 26.4805 219.758C26.4805 221.949 27.1953 223.18 28.4258 223.18ZM5.91406 234.516V243H4.84766V235.617H4.80078L2.73828 236.988V235.922L4.84766 234.516H5.91406ZM11.0117 243.117C9.23047 243.117 7.98828 242.133 8 240.75C7.98828 239.648 8.75 238.746 9.72266 238.594V238.547C8.87891 238.348 8.32812 237.574 8.32812 236.648C8.32812 235.348 9.46484 234.398 11.0117 234.398C12.5586 234.398 13.6953 235.348 13.707 236.648C13.6953 237.574 13.1328 238.348 12.3008 238.547V238.594C13.2617 238.746 14.0234 239.648 14.0352 240.75C14.0234 242.133 12.7812 243.117 11.0117 243.117ZM11.0117 242.191C12.2305 242.191 12.9805 241.582 12.9805 240.691C12.9805 239.754 12.1484 239.062 11.0117 239.062C9.875 239.062 9.03125 239.754 9.05469 240.691C9.03125 241.582 9.79297 242.191 11.0117 242.191ZM11.0117 238.172C11.9727 238.172 12.6758 237.586 12.6758 236.73C12.6758 235.887 12.0078 235.312 11.0117 235.312C10.0039 235.312 9.34766 235.887 9.34766 236.73C9.34766 237.586 10.0391 238.172 11.0117 238.172ZM16.1797 241.875C15.7695 241.875 15.418 241.535 15.4297 241.113C15.418 240.703 15.7695 240.363 16.1797 240.363C16.5898 240.363 16.9297 240.703 16.9297 241.113C16.9297 241.535 16.5898 241.875 16.1797 241.875ZM16.1797 237.164C15.7695 237.164 15.418 236.824 15.4297 236.402C15.418 235.992 15.7695 235.652 16.1797 235.652C16.5898 235.652 16.9297 235.992 16.9297 236.402C16.9297 236.824 16.5898 237.164 16.1797 237.164ZM21.2773 243.117C19.3906 243.117 18.3125 241.535 18.3125 238.758C18.3125 236.004 19.4141 234.398 21.2773 234.398C23.1406 234.398 24.2422 236.004 24.2422 238.758C24.2422 241.535 23.1523 243.117 21.2773 243.117ZM21.2773 242.18C22.4961 242.18 23.2109 240.949 23.2109 238.758C23.2109 236.566 22.4961 235.312 21.2773 235.312C20.0586 235.312 19.332 236.566 19.332 238.758C19.332 240.949 20.0469 242.18 21.2773 242.18ZM28.4258 243.117C26.5391 243.117 25.4609 241.535 25.4609 238.758C25.4609 236.004 26.5625 234.398 28.4258 234.398C30.2891 234.398 31.3906 236.004 31.3906 238.758C31.3906 241.535 30.3008 243.117 28.4258 243.117ZM28.4258 242.18C29.6445 242.18 30.3594 240.949 30.3594 238.758C30.3594 236.566 29.6445 235.312 28.4258 235.312C27.207 235.312 26.4805 236.566 26.4805 238.758C26.4805 240.949 27.1953 242.18 28.4258 242.18ZM5.83203 253.516V262H4.76562V254.617H4.71875L2.65625 255.988V254.922L4.76562 253.516H5.83203ZM10.918 253.398C12.3828 253.41 14 254.289 14 257.418C14 260.43 12.7695 262.117 10.7773 262.117C9.28906 262.117 8.23438 261.203 8.02344 259.855H9.06641C9.25391 260.617 9.82812 261.18 10.7773 261.18C12.1602 261.18 13.0039 259.984 13.0156 257.922H12.8984C12.4062 258.625 11.6328 259.047 10.7305 259.047C9.20703 259.047 7.95312 257.887 7.95312 256.246C7.95312 254.664 9.11328 253.387 10.918 253.398ZM10.918 254.324C9.80469 254.324 8.97266 255.191 8.98438 256.234C8.98438 257.289 9.76953 258.121 10.8828 258.121C11.9844 258.121 12.8516 257.207 12.8516 256.211C12.8516 255.238 12.043 254.324 10.918 254.324ZM16.1797 260.875C15.7695 260.875 15.418 260.535 15.4297 260.113C15.418 259.703 15.7695 259.363 16.1797 259.363C16.5898 259.363 16.9297 259.703 16.9297 260.113C16.9297 260.535 16.5898 260.875 16.1797 260.875ZM16.1797 256.164C15.7695 256.164 15.418 255.824 15.4297 255.402C15.418 254.992 15.7695 254.652 16.1797 254.652C16.5898 254.652 16.9297 254.992 16.9297 255.402C16.9297 255.824 16.5898 256.164 16.1797 256.164ZM21.2773 262.117C19.3906 262.117 18.3125 260.535 18.3125 257.758C18.3125 255.004 19.4141 253.398 21.2773 253.398C23.1406 253.398 24.2422 255.004 24.2422 257.758C24.2422 260.535 23.1523 262.117 21.2773 262.117ZM21.2773 261.18C22.4961 261.18 23.2109 259.949 23.2109 257.758C23.2109 255.566 22.4961 254.312 21.2773 254.312C20.0586 254.312 19.332 255.566 19.332 257.758C19.332 259.949 20.0469 261.18 21.2773 261.18ZM28.4258 262.117C26.5391 262.117 25.4609 260.535 25.4609 257.758C25.4609 255.004 26.5625 253.398 28.4258 253.398C30.2891 253.398 31.3906 255.004 31.3906 257.758C31.3906 260.535 30.3008 262.117 28.4258 262.117ZM28.4258 261.18C29.6445 261.18 30.3594 259.949 30.3594 257.758C30.3594 255.566 29.6445 254.312 28.4258 254.312C27.207 254.312 26.4805 255.566 26.4805 257.758C26.4805 259.949 27.1953 261.18 28.4258 261.18ZM1.26172 281L1.25 280.227L4.14453 277.18C5.15234 276.113 5.63281 275.539 5.63281 274.754C5.63281 273.887 4.89453 273.312 3.94531 273.312C2.9375 273.312 2.29297 273.957 2.29297 274.906H1.29688C1.28516 273.406 2.44531 272.398 3.98047 272.398C5.51562 272.398 6.61719 273.43 6.61719 274.754C6.61719 275.703 6.17188 276.441 4.67188 277.988L2.72656 279.992V280.062H6.76953V281H1.26172ZM11.082 281.117C9.19531 281.117 8.11719 279.535 8.11719 276.758C8.11719 274.004 9.21875 272.398 11.082 272.398C12.9453 272.398 14.0469 274.004 14.0469 276.758C14.0469 279.535 12.957 281.117 11.082 281.117ZM11.082 280.18C12.3008 280.18 13.0156 278.949 13.0156 276.758C13.0156 274.566 12.3008 273.312 11.082 273.312C9.86328 273.312 9.13672 274.566 9.13672 276.758C9.13672 278.949 9.85156 280.18 11.082 280.18ZM16.1797 279.875C15.7695 279.875 15.418 279.535 15.4297 279.113C15.418 278.703 15.7695 278.363 16.1797 278.363C16.5898 278.363 16.9297 278.703 16.9297 279.113C16.9297 279.535 16.5898 279.875 16.1797 279.875ZM16.1797 275.164C15.7695 275.164 15.418 274.824 15.4297 274.402C15.418 273.992 15.7695 273.652 16.1797 273.652C16.5898 273.652 16.9297 273.992 16.9297 274.402C16.9297 274.824 16.5898 275.164 16.1797 275.164ZM21.2773 281.117C19.3906 281.117 18.3125 279.535 18.3125 276.758C18.3125 274.004 19.4141 272.398 21.2773 272.398C23.1406 272.398 24.2422 274.004 24.2422 276.758C24.2422 279.535 23.1523 281.117 21.2773 281.117ZM21.2773 280.18C22.4961 280.18 23.2109 278.949 23.2109 276.758C23.2109 274.566 22.4961 273.312 21.2773 273.312C20.0586 273.312 19.332 274.566 19.332 276.758C19.332 278.949 20.0469 280.18 21.2773 280.18ZM28.4258 281.117C26.5391 281.117 25.4609 279.535 25.4609 276.758C25.4609 274.004 26.5625 272.398 28.4258 272.398C30.2891 272.398 31.3906 274.004 31.3906 276.758C31.3906 279.535 30.3008 281.117 28.4258 281.117ZM28.4258 280.18C29.6445 280.18 30.3594 278.949 30.3594 276.758C30.3594 274.566 29.6445 273.312 28.4258 273.312C27.207 273.312 26.4805 274.566 26.4805 276.758C26.4805 278.949 27.1953 280.18 28.4258 280.18ZM3.14844 300L3.13672 299.227L6.03125 296.18C7.03906 295.113 7.51953 294.539 7.51953 293.754C7.51953 292.887 6.78125 292.312 5.83203 292.312C4.82422 292.312 4.17969 292.957 4.17969 293.906H3.18359C3.17188 292.406 4.33203 291.398 5.86719 291.398C7.40234 291.398 8.50391 292.43 8.50391 293.754C8.50391 294.703 8.05859 295.441 6.55859 296.988L4.61328 298.992V299.062H8.65625V300H3.14844ZM13.1914 291.516V300H12.125V292.617H12.0781L10.0156 293.988V292.922L12.125 291.516H13.1914ZM16.1797 298.875C15.7695 298.875 15.418 298.535 15.4297 298.113C15.418 297.703 15.7695 297.363 16.1797 297.363C16.5898 297.363 16.9297 297.703 16.9297 298.113C16.9297 298.535 16.5898 298.875 16.1797 298.875ZM16.1797 294.164C15.7695 294.164 15.418 293.824 15.4297 293.402C15.418 292.992 15.7695 292.652 16.1797 292.652C16.5898 292.652 16.9297 292.992 16.9297 293.402C16.9297 293.824 16.5898 294.164 16.1797 294.164ZM21.2773 300.117C19.3906 300.117 18.3125 298.535 18.3125 295.758C18.3125 293.004 19.4141 291.398 21.2773 291.398C23.1406 291.398 24.2422 293.004 24.2422 295.758C24.2422 298.535 23.1523 300.117 21.2773 300.117ZM21.2773 299.18C22.4961 299.18 23.2109 297.949 23.2109 295.758C23.2109 293.566 22.4961 292.312 21.2773 292.312C20.0586 292.312 19.332 293.566 19.332 295.758C19.332 297.949 20.0469 299.18 21.2773 299.18ZM28.4258 300.117C26.5391 300.117 25.4609 298.535 25.4609 295.758C25.4609 293.004 26.5625 291.398 28.4258 291.398C30.2891 291.398 31.3906 293.004 31.3906 295.758C31.3906 298.535 30.3008 300.117 28.4258 300.117ZM28.4258 299.18C29.6445 299.18 30.3594 297.949 30.3594 295.758C30.3594 293.566 29.6445 292.312 28.4258 292.312C27.207 292.312 26.4805 293.566 26.4805 295.758C26.4805 297.949 27.1953 299.18 28.4258 299.18ZM1.36719 319L1.35547 318.227L4.25 315.18C5.25781 314.113 5.73828 313.539 5.73828 312.754C5.73828 311.887 5 311.312 4.05078 311.312C3.04297 311.312 2.39844 311.957 2.39844 312.906H1.40234C1.39062 311.406 2.55078 310.398 4.08594 310.398C5.62109 310.398 6.72266 311.43 6.72266 312.754C6.72266 313.703 6.27734 314.441 4.77734 315.988L2.83203 317.992V318.062H6.875V319H1.36719ZM8.41016 319L8.39844 318.227L11.293 315.18C12.3008 314.113 12.7812 313.539 12.7812 312.754C12.7812 311.887 12.043 311.312 11.0938 311.312C10.0859 311.312 9.44141 311.957 9.44141 312.906H8.44531C8.43359 311.406 9.59375 310.398 11.1289 310.398C12.6641 310.398 13.7656 311.43 13.7656 312.754C13.7656 313.703 13.3203 314.441 11.8203 315.988L9.875 317.992V318.062H13.918V319H8.41016ZM16.1797 317.875C15.7695 317.875 15.418 317.535 15.4297 317.113C15.418 316.703 15.7695 316.363 16.1797 316.363C16.5898 316.363 16.9297 316.703 16.9297 317.113C16.9297 317.535 16.5898 317.875 16.1797 317.875ZM16.1797 313.164C15.7695 313.164 15.418 312.824 15.4297 312.402C15.418 311.992 15.7695 311.652 16.1797 311.652C16.5898 311.652 16.9297 311.992 16.9297 312.402C16.9297 312.824 16.5898 313.164 16.1797 313.164ZM21.2773 319.117C19.3906 319.117 18.3125 317.535 18.3125 314.758C18.3125 312.004 19.4141 310.398 21.2773 310.398C23.1406 310.398 24.2422 312.004 24.2422 314.758C24.2422 317.535 23.1523 319.117 21.2773 319.117ZM21.2773 318.18C22.4961 318.18 23.2109 316.949 23.2109 314.758C23.2109 312.566 22.4961 311.312 21.2773 311.312C20.0586 311.312 19.332 312.566 19.332 314.758C19.332 316.949 20.0469 318.18 21.2773 318.18ZM28.4258 319.117C26.5391 319.117 25.4609 317.535 25.4609 314.758C25.4609 312.004 26.5625 310.398 28.4258 310.398C30.2891 310.398 31.3906 312.004 31.3906 314.758C31.3906 317.535 30.3008 319.117 28.4258 319.117ZM28.4258 318.18C29.6445 318.18 30.3594 316.949 30.3594 314.758C30.3594 312.566 29.6445 311.312 28.4258 311.312C27.207 311.312 26.4805 312.566 26.4805 314.758C26.4805 316.949 27.1953 318.18 28.4258 318.18ZM1.00391 338L0.992188 337.227L3.88672 334.18C4.89453 333.113 5.375 332.539 5.375 331.754C5.375 330.887 4.63672 330.312 3.6875 330.312C2.67969 330.312 2.03516 330.957 2.03516 331.906H1.03906C1.02734 330.406 2.1875 329.398 3.72266 329.398C5.25781 329.398 6.35938 330.43 6.35938 331.754C6.35938 332.703 5.91406 333.441 4.41406 334.988L2.46875 336.992V337.062H6.51172V338H1.00391ZM10.9766 338.117C9.28906 338.117 8.08203 337.215 8.02344 335.867H9.08984C9.14844 336.676 9.95703 337.18 10.9648 337.18C12.0781 337.18 12.8984 336.57 12.8984 335.691C12.8984 334.766 12.1602 334.109 10.8359 334.109H10.1445V333.184H10.8359C11.8672 333.184 12.582 332.609 12.582 331.73C12.582 330.887 11.9609 330.312 11 330.312C10.0977 330.312 9.26562 330.816 9.21875 331.648H8.19922C8.25781 330.301 9.5 329.398 11.0117 329.398C12.6289 329.398 13.6133 330.453 13.6016 331.672C13.6133 332.633 13.0508 333.348 12.1602 333.594V333.652C13.2617 333.828 13.9414 334.613 13.9297 335.691C13.9414 337.086 12.6641 338.117 10.9766 338.117ZM16.1797 336.875C15.7695 336.875 15.418 336.535 15.4297 336.113C15.418 335.703 15.7695 335.363 16.1797 335.363C16.5898 335.363 16.9297 335.703 16.9297 336.113C16.9297 336.535 16.5898 336.875 16.1797 336.875ZM16.1797 332.164C15.7695 332.164 15.418 331.824 15.4297 331.402C15.418 330.992 15.7695 330.652 16.1797 330.652C16.5898 330.652 16.9297 330.992 16.9297 331.402C16.9297 331.824 16.5898 332.164 16.1797 332.164ZM21.2773 338.117C19.3906 338.117 18.3125 336.535 18.3125 333.758C18.3125 331.004 19.4141 329.398 21.2773 329.398C23.1406 329.398 24.2422 331.004 24.2422 333.758C24.2422 336.535 23.1523 338.117 21.2773 338.117ZM21.2773 337.18C22.4961 337.18 23.2109 335.949 23.2109 333.758C23.2109 331.566 22.4961 330.312 21.2773 330.312C20.0586 330.312 19.332 331.566 19.332 333.758C19.332 335.949 20.0469 337.18 21.2773 337.18ZM28.4258 338.117C26.5391 338.117 25.4609 336.535 25.4609 333.758C25.4609 331.004 26.5625 329.398 28.4258 329.398C30.2891 329.398 31.3906 331.004 31.3906 333.758C31.3906 336.535 30.3008 338.117 28.4258 338.117ZM28.4258 337.18C29.6445 337.18 30.3594 335.949 30.3594 333.758C30.3594 331.566 29.6445 330.312 28.4258 330.312C27.207 330.312 26.4805 331.566 26.4805 333.758C26.4805 335.949 27.1953 337.18 28.4258 337.18Z" fill="#AEAEB2"/>
<rect x="42" y="1" width="131" height="19.1667" fill="white" stroke="#E8E8E8"/>
<rect x="173" y="1" width="131" height="19.1667" fill="white" stroke="#E8E8E8"/>
<rect x="42" y="20.167" width="131" height="19.1667" fill="white" stroke="#E8E8E8"/>
<rect x="173" y="20.167" width="131" height="19.1667" fill="white" stroke="#E8E8E8"/>
<rect x="42" y="39.333" width="131" height="19.1667" fill="white" stroke="#E8E8E8"/>
<rect x="173" y="39.333" width="131" height="19.1667" fill="white" stroke="#E8E8E8"/>
<rect x="42" y="58.5" width="131" height="19.1667" fill="white" stroke="#E8E8E8"/>
<rect x="173" y="58.5" width="131" height="19.1667" fill="white" stroke="#E8E8E8"/>
<rect x="42" y="77.667" width="131" height="19.1667" fill="white" stroke="#E8E8E8"/>
<rect x="173" y="77.667" width="131" height="19.1667" fill="white" stroke="#E8E8E8"/>
<rect x="42" y="96.833" width="131" height="19.1667" fill="white" stroke="#E8E8E8"/>
<rect x="173" y="96.833" width="131" height="19.1667" fill="white" stroke="#E8E8E8"/>
<rect x="42" y="116" width="131" height="19.1667" fill="white" stroke="#E8E8E8"/>
<rect x="173" y="116" width="131" height="19.1667" fill="white" stroke="#E8E8E8"/>
<rect x="42" y="135.167" width="131" height="19.1667" fill="white" stroke="#E8E8E8"/>
<rect x="173" y="135.167" width="131" height="19.1667" fill="white" stroke="#E8E8E8"/>
<rect x="42" y="154.333" width="131" height="19.1667" fill="white" stroke="#E8E8E8"/>
<rect x="173" y="154.333" width="131" height="19.1667" fill="white" stroke="#E8E8E8"/>
<rect x="42" y="173.5" width="131" height="19.1667" fill="white" stroke="#E8E8E8"/>
<rect x="173" y="173.5" width="131" height="19.1667" fill="white" stroke="#E8E8E8"/>
<rect x="42" y="192.667" width="131" height="19.1667" fill="white" stroke="#E8E8E8"/>
<rect x="173" y="192.667" width="131" height="19.1667" fill="white" stroke="#E8E8E8"/>
<rect x="42" y="211.833" width="131" height="19.1667" fill="white" stroke="#E8E8E8"/>
<rect x="173" y="211.833" width="131" height="19.1667" fill="white" stroke="#E8E8E8"/>
<rect x="42" y="231" width="131" height="19.1667" fill="white" stroke="#E8E8E8"/>
<rect x="173" y="231" width="131" height="19.1667" fill="white" stroke="#E8E8E8"/>
<rect x="42" y="250.167" width="131" height="19.1667" fill="white" stroke="#E8E8E8"/>
<rect x="173" y="250.167" width="131" height="19.1667" fill="white" stroke="#E8E8E8"/>
<rect x="42" y="269.333" width="131" height="19.1667" fill="white" stroke="#E8E8E8"/>
<rect x="173" y="269.333" width="131" height="19.1667" fill="white" stroke="#E8E8E8"/>
<rect x="42" y="288.5" width="131" height="19.1667" fill="white" stroke="#E8E8E8"/>
<rect x="173" y="288.5" width="131" height="19.1667" fill="white" stroke="#E8E8E8"/>
<rect x="42" y="307.667" width="131" height="19.1667" fill="white" stroke="#E8E8E8"/>
<rect x="173" y="307.667" width="131" height="19.1667" fill="white" stroke="#E8E8E8"/>
<rect x="42" y="326.833" width="131" height="19.1667" fill="white" stroke="#E8E8E8"/>
<rect x="173" y="326.833" width="131" height="19.1667" fill="white" stroke="#E8E8E8"/>
</svg>
