<svg width="46" height="20" viewBox="0 0 46 20" fill="none" xmlns="http://www.w3.org/2000/svg">
<path d="M15.216 13.6C15.216 13.8453 15.1413 14.0693 14.992 14.272C14.8533 14.464 14.592 14.56 14.208 14.56H7.76C7.68533 14.56 7.64267 14.576 7.632 14.608C7.62133 14.64 7.616 14.6773 7.616 14.72V15.376C7.616 15.4187 7.62133 15.456 7.632 15.488C7.64267 15.52 7.68533 15.536 7.76 15.536H15.024C15.4293 15.536 15.6267 15.8027 15.616 16.336C15.616 16.88 15.4187 17.152 15.024 17.152H6.72C6.336 17.152 6.06933 17.0507 5.92 16.848C5.78133 16.656 5.712 16.4373 5.712 16.192V13.904C5.712 13.6587 5.78133 13.44 5.92 13.248C6.06933 13.0453 6.336 12.944 6.72 12.944H13.168C13.2427 12.944 13.2853 12.928 13.296 12.896C13.3067 12.864 13.312 12.8267 13.312 12.784V12.128C13.312 12.0853 13.3067 12.048 13.296 12.016C13.2853 11.984 13.2427 11.968 13.168 11.968H6.224C5.82933 11.968 5.62667 11.7013 5.616 11.168C5.616 10.624 5.81867 10.352 6.224 10.352H14.208C14.592 10.352 14.8533 10.4533 14.992 10.656C15.1413 10.848 15.216 11.0667 15.216 11.312V13.6ZM7.552 6.016C7.552 6.79467 7.20533 7.88267 6.512 9.28C5.81867 10.6773 4.288 11.8027 1.92 12.656C1.33333 12.8693 0.922667 12.7253 0.688 12.224C0.464 11.7227 0.565333 11.3973 0.992 11.248C2.18667 10.8213 3.25867 10.128 4.208 9.168C4.57067 8.816 4.864 8.44267 5.088 8.048H1.008C0.613333 8.048 0.410667 7.78133 0.4 7.248C0.4 6.704 0.602667 6.432 1.008 6.432H5.616C5.63733 6.29333 5.648 6.14933 5.648 6V4.944C5.648 4.90133 5.64267 4.864 5.632 4.832C5.62133 4.8 5.57867 4.784 5.504 4.784H1.552C1.15733 4.784 0.954667 4.51733 0.944 3.984C0.944 3.44 1.14667 3.168 1.552 3.168H6.544C6.928 3.168 7.18933 3.26933 7.328 3.472C7.47733 3.664 7.552 3.88267 7.552 4.128V6.016ZM10.848 9.232C10.848 9.744 10.528 10 9.888 10C9.25867 10 8.944 9.744 8.944 9.232V3.584C8.944 3.072 9.25867 2.816 9.888 2.816C10.528 2.816 10.848 3.072 10.848 3.584V5.568H11.792C11.952 5.568 12.08 5.61067 12.176 5.696V3.584C12.176 3.072 12.4907 2.816 13.12 2.816C13.76 2.816 14.08 3.072 14.08 3.584V9.232C14.08 9.744 13.76 10 13.12 10C12.4907 10 12.176 9.744 12.176 9.232V7.056C12.08 7.14133 11.952 7.184 11.792 7.184H10.848V9.232ZM30.448 16.192C30.448 16.704 30.128 16.96 29.488 16.96C28.8587 16.96 28.544 16.704 28.544 16.192V12.88C28.544 12.8373 28.5387 12.8 28.528 12.768C28.5173 12.736 28.4747 12.72 28.4 12.72H22C21.6053 12.72 21.4027 12.4533 21.392 11.92C21.392 11.376 21.5947 11.104 22 11.104H29.44C29.824 11.104 30.0853 11.2053 30.224 11.408C30.3733 11.6 30.448 11.8187 30.448 12.064V16.192ZM29.312 9.984C29.312 10.496 28.992 10.752 28.352 10.752C27.7227 10.752 27.408 10.496 27.408 9.984V3.584C27.408 3.072 27.7227 2.816 28.352 2.816C28.992 2.816 29.312 3.072 29.312 3.584V9.984ZM17.712 4.784C17.3173 4.784 17.1147 4.51733 17.104 3.984C17.104 3.44 17.3067 3.168 17.712 3.168H25.552C25.968 3.168 26.1707 3.44 26.16 3.984C26.16 4.51733 25.9573 4.784 25.552 4.784H17.712ZM24.48 10C24.48 10.512 24.16 10.768 23.52 10.768C22.8907 10.768 22.576 10.512 22.576 10V5.952C22.576 5.44 22.8907 5.184 23.52 5.184C24.16 5.184 24.48 5.44 24.48 5.952V10ZM20.848 11.76C20.848 12.0053 20.7733 12.2293 20.624 12.432C20.4853 12.624 20.224 12.72 19.84 12.72H17.024C16.6187 12.72 16.416 12.4533 16.416 11.92C16.4267 11.376 16.6293 11.104 17.024 11.104H18.8C18.8747 11.104 18.9173 11.088 18.928 11.056C18.9387 11.024 18.944 10.9867 18.944 10.944V5.952C18.944 5.44 19.2587 5.184 19.888 5.184C20.528 5.184 20.848 5.44 20.848 5.952V11.76Z" fill="black"/>
<path fill-rule="evenodd" clip-rule="evenodd" d="M34.4193 5.04021L33.994 11.725L35.2143 10.6705C35.3116 10.5864 35.4275 10.5266 35.5524 10.4958C35.6773 10.4651 35.8077 10.4643 35.933 10.4936C36.0582 10.5228 36.1748 10.5813 36.2732 10.6642C36.3715 10.747 36.4489 10.852 36.499 10.9705L38.5345 15.7817L39.1863 15.5042L37.246 10.8685C37.0285 10.351 37.3885 9.77346 37.948 9.73896L39.6025 9.63696L34.4193 5.04021ZM33.0115 3.54771C33.0211 3.39523 33.0734 3.24852 33.1623 3.12428C33.2513 3.00004 33.3733 2.90325 33.5145 2.84495C33.6557 2.78665 33.8105 2.76917 33.9611 2.79449C34.1118 2.81982 34.2524 2.88694 34.3668 2.98821L41.83 9.60846C42.373 10.09 42.064 10.9885 41.3388 11.0335L39.001 11.1767L40.57 14.926C40.7229 15.2915 40.7249 15.7027 40.5757 16.0697C40.4265 16.4367 40.1381 16.7298 39.7735 16.885L39.1225 17.1625C38.941 17.2398 38.746 17.2806 38.5486 17.2824C38.3513 17.2843 38.1556 17.2472 37.9726 17.1733C37.7897 17.0993 37.6231 16.9901 37.4825 16.8517C37.3418 16.7132 37.2299 16.5485 37.153 16.3667L35.4835 12.4202L33.7413 13.9255C33.1938 14.398 32.3478 13.978 32.3935 13.2565L33.0115 3.54771Z" fill="black"/>
</svg>
