<svg width="32" height="33" viewBox="0 0 32 33" fill="none" xmlns="http://www.w3.org/2000/svg">
<path d="M8.616 23.5C8.15533 23.5 7.771 23.346 7.463 23.038C7.155 22.73 7.00067 22.3453 7 21.884V11.116C7 10.6553 7.15433 10.271 7.463 9.963C7.77167 9.655 8.15567 9.50067 8.615 9.5H23.385C23.845 9.5 24.229 9.65433 24.537 9.963C24.845 10.2717 24.9993 10.656 25 11.116V21.885C25 22.345 24.8457 22.7293 24.537 23.038C24.2283 23.3467 23.8443 23.5007 23.385 23.5H8.616ZM16 16.616L8 11.385V21.885C8 22.0643 8.05767 22.2117 8.173 22.327C8.28833 22.4423 8.436 22.5 8.616 22.5H23.385C23.5643 22.5 23.7117 22.4423 23.827 22.327C23.9423 22.2117 24 22.064 24 21.884V11.384L16 16.616ZM16 15.5L23.692 10.5H8.308L16 15.5ZM8 11.385V10.5V21.885C8 22.0643 8.05767 22.2117 8.173 22.327C8.28833 22.4423 8.436 22.5 8.616 22.5H8V11.385Z" fill="black"/>
</svg>
