<svg width="32" height="32" viewBox="0 0 32 32" fill="none" xmlns="http://www.w3.org/2000/svg">
<path d="M8.616 23C8.15533 23 7.771 22.846 7.463 22.538C7.155 22.23 7.00067 21.8453 7 21.384V10.616C7 10.1553 7.15433 9.771 7.463 9.463C7.77167 9.155 8.15567 9.00067 8.615 9H23.385C23.845 9 24.229 9.15433 24.537 9.463C24.845 9.77167 24.9993 10.156 25 10.616V21.385C25 21.845 24.8457 22.2293 24.537 22.538C24.2283 22.8467 23.8443 23.0007 23.385 23H8.616ZM16 16.116L8 10.885V21.385C8 21.5643 8.05767 21.7117 8.173 21.827C8.28833 21.9423 8.436 22 8.616 22H23.385C23.5643 22 23.7117 21.9423 23.827 21.827C23.9423 21.7117 24 21.564 24 21.384V10.884L16 16.116ZM16 15L23.692 10H8.308L16 15ZM8 10.885V10V21.385C8 21.5643 8.05767 21.7117 8.173 21.827C8.28833 21.9423 8.436 22 8.616 22H8V10.885Z" fill="#C3C3C3"/>
</svg>
