<svg width="24" height="24" viewBox="0 0 24 24" fill="none" xmlns="http://www.w3.org/2000/svg">
<path d="M3.57095 11.0008C3.57095 12.9256 4.1341 14.6736 5.26041 16.2448C6.38671 17.8159 7.87772 18.9478 9.73342 19.6402C9.92261 19.7104 10.0611 19.8217 10.1488 19.9744C10.2366 20.1271 10.2382 20.272 10.1537 20.4091C10.0546 20.5664 9.91295 20.67 9.72859 20.7199C9.54423 20.7697 9.36268 20.762 9.18396 20.6965C7.11088 19.9144 5.45202 18.6389 4.20737 16.8699C2.96272 15.1008 2.33999 13.1371 2.33918 10.9786C2.33918 10.3671 2.39393 9.76185 2.50342 9.16283C2.61291 8.56303 2.78198 7.97491 3.01062 7.39848L0.899705 8.57627C0.757206 8.66196 0.606254 8.68338 0.446849 8.64053C0.287443 8.59769 0.165876 8.50733 0.0821483 8.36946C-0.00157975 8.23158 -0.0213042 8.08436 0.0229751 7.92779C0.0672544 7.77121 0.160643 7.65242 0.303142 7.57141L3.65428 5.70658C3.88936 5.58116 4.13813 5.55078 4.40059 5.61544C4.66304 5.68087 4.85948 5.82732 4.9899 6.05477L6.91605 9.26799C6.99978 9.40586 7.01991 9.55309 6.97643 9.70966C6.93215 9.86623 6.83876 9.98502 6.69626 10.066C6.55377 10.147 6.40161 10.1661 6.23979 10.1233C6.07797 10.0804 5.95519 9.99008 5.87146 9.85221L4.35832 7.3424C4.09023 7.91805 3.89178 8.51395 3.76296 9.13011C3.63415 9.74783 3.56975 10.371 3.56975 10.9996M13.1848 1.66961C12.0963 1.66961 11.0453 1.84682 10.0317 2.20125C9.01811 2.55568 8.08663 3.062 7.23728 3.72023C7.08995 3.83084 6.92772 3.88069 6.75061 3.86979C6.57349 3.85888 6.44307 3.78449 6.35934 3.64661C6.25548 3.48459 6.23093 3.314 6.28568 3.13484C6.34042 2.95568 6.44307 2.80845 6.59362 2.69317C7.54602 1.9773 8.57854 1.43281 9.69115 1.05968C10.8038 0.686561 11.9607 0.5 13.1618 0.5C14.7366 0.5 16.226 0.806132 17.63 1.4184C19.0357 2.03066 20.2578 2.91166 21.2964 4.06141V1.62404C21.2964 1.45734 21.3543 1.3183 21.4702 1.20691C21.5862 1.09552 21.7295 1.03982 21.9002 1.03982C22.0708 1.03982 22.2145 1.09552 22.3313 1.20691C22.448 1.3183 22.5056 1.45734 22.504 1.62404V5.35371C22.504 5.62479 22.4114 5.84991 22.2262 6.02907C22.041 6.20823 21.8088 6.29781 21.5294 6.29781H17.6735C17.502 6.29781 17.3587 6.24211 17.2436 6.13072C17.1285 6.01933 17.0705 5.88029 17.0697 5.71359C17.0689 5.54689 17.1269 5.40785 17.2436 5.29645C17.3603 5.18506 17.5036 5.12937 17.6735 5.12937H20.6624C19.7526 4.01935 18.6436 3.16522 17.3354 2.56697C16.0271 1.96873 14.6436 1.66883 13.1848 1.66727M20.3979 17.1561C21.3801 16.0749 22.0604 14.8535 22.4388 13.4919C22.8179 12.1303 22.8683 10.7496 22.5897 9.34978C22.5591 9.16906 22.5937 9.00431 22.6936 8.85553C22.7934 8.70675 22.9295 8.63274 23.1017 8.63352C23.3038 8.63352 23.4705 8.70753 23.6017 8.85553C23.7329 9.00353 23.8138 9.17607 23.8444 9.37315C24.1077 10.8485 24.0368 12.3063 23.6319 13.7466C23.2269 15.1869 22.5237 16.4882 21.5222 17.6504C20.7211 18.5883 19.7824 19.3649 18.706 19.9803C17.6288 20.5956 16.4719 21.019 15.2353 21.2504L17.3245 22.4141C17.4678 22.4951 17.5604 22.6139 17.6023 22.7705C17.6441 22.9263 17.6232 23.0735 17.5395 23.2122C17.4557 23.35 17.3342 23.4392 17.1748 23.4797C17.0153 23.5203 16.8644 23.5 16.7219 23.419L13.3865 21.5308C13.1514 21.4054 13 21.2157 12.9324 20.9618C12.8656 20.7078 12.897 20.4671 13.0266 20.2397L14.9552 17.0416C15.0381 16.9038 15.1592 16.8146 15.3186 16.7741C15.4789 16.7336 15.6298 16.7538 15.7715 16.8348C15.914 16.9158 16.0074 17.0346 16.0517 17.1912C16.0959 17.3478 16.0762 17.495 15.9925 17.6329L14.4105 20.2362C15.5739 20.0804 16.6712 19.7423 17.7025 19.2219C18.7338 18.7016 19.6323 18.013 20.3979 17.1561Z" fill="black"/>
</svg>
