<svg width="36" height="36" viewBox="0 0 36 36" fill="none" xmlns="http://www.w3.org/2000/svg">
<path d="M26.5692 9.43356C26.3749 9.24015 26.1311 9.10418 25.8648 9.0406C25.5984 8.97702 25.3197 8.98829 25.0593 9.07317L10.0323 14.098C9.75361 14.1866 9.50734 14.3559 9.32459 14.5847C9.14184 14.8134 9.03082 15.0913 9.00554 15.3833C8.98026 15.6753 9.04186 15.9682 9.18256 16.2251C9.32326 16.482 9.53675 16.6914 9.79606 16.8267L16.0308 19.9158L19.1122 26.1865C19.236 26.432 19.4256 26.6381 19.6596 26.7817C19.8936 26.9254 20.1628 27.001 20.4372 27H20.5399C20.8338 26.9783 21.1143 26.8685 21.3451 26.6849C21.5759 26.5012 21.7463 26.2523 21.8341 25.9703L26.9184 10.9472C27.0092 10.6876 27.0246 10.4076 26.9627 10.1396C26.9009 9.87164 26.7644 9.62678 26.5692 9.43356ZM10.6691 15.519L23.7856 11.1325L16.5033 18.433L10.6691 15.519ZM20.5091 25.3731L17.592 19.5245L24.8744 12.224L20.5091 25.3731Z" fill="#9F9F9F"/>
</svg>
