<svg width="24" height="24" viewBox="0 0 24 24" fill="none" xmlns="http://www.w3.org/2000/svg">
<path d="M12 0C15.1826 0 18.2348 1.26428 20.4853 3.51472C22.7357 5.76516 24 8.8174 24 12C24 15.1826 22.7357 18.2348 20.4853 20.4853C18.2348 22.7357 15.1826 24 12 24C8.8174 24 5.76516 22.7357 3.51472 20.4853C1.26428 18.2348 0 15.1826 0 12C0 8.8174 1.26428 5.76516 3.51472 3.51472C5.76516 1.26428 8.8174 0 12 0ZM12 1.26316C9.15241 1.26316 6.42145 2.39436 4.40791 4.40791C2.39436 6.42145 1.26316 9.15241 1.26316 12C1.26316 14.8476 2.39436 17.5785 4.40791 19.5921C6.42145 21.6056 9.15241 22.7368 12 22.7368C13.41 22.7368 14.8062 22.4591 16.1088 21.9195C17.4115 21.38 18.5951 20.5891 19.5921 19.5921C20.5891 18.5951 21.38 17.4115 21.9195 16.1088C22.4591 14.8062 22.7368 13.41 22.7368 12C22.7368 9.15241 21.6056 6.42145 19.5921 4.40791C17.5785 2.39436 14.8476 1.26316 12 1.26316ZM11.3684 5.05263H12.6316V11.8989L18.5684 15.3221L17.9368 16.4211L11.3684 12.6316V5.05263Z" fill="black"/>
</svg>
